<svg xmlns="http://www.w3.org/2000/svg" width="541.953" height="691.063" viewBox="0 0 541.953 691.063"><defs><style>.a{fill:#fff;}.b{fill:#eae6da;}</style></defs><g transform="translate(0 -0.001)"><g transform="translate(2.534 0.953)"><g transform="translate(15.716 674.073)"><rect class="a" width="1.067" height="1.068"/></g><g transform="translate(15.716 677.261)"><path class="a" d="M83.09,159.474v1.062h1.247v-1.062Zm0,3.183v1.062h1.247v-1.062Zm0,3.184v.582a2.327,2.327,0,0,0,.077.593l1.216-.234a1.475,1.475,0,0,1-.046-.359v-.582Zm2.043,3.084a3.615,3.615,0,0,0,1.072.162h.366v-1.066h-.366a2.169,2.169,0,0,1-.641-.1Zm3.919-.9v1.066h1.241v-1.066Zm3.722,0v1.066h1.24v-1.066Zm3.72,0v1.066h1.241v-1.066Zm3.722,0v1.066h1.24v-1.066Zm3.72,0v1.066h1.24v-1.066Zm3.722,0v1.066h1.24v-1.066Zm3.72,0v1.066h1.24v-1.066Zm3.722,0v1.066h1.24v-1.066Zm3.722,0v1.066h1.238v-1.066Zm3.72,0v1.066h1.24v-1.066Zm434.219,0v1.066H558v-1.066Zm3.721,0v1.066h1.24v-1.066Zm3.721,0v1.066h1.24v-1.066Zm3.721,0v1.066h1.241v-1.066Zm3.724,0v1.066h1.24v-1.066Zm3.72,0v1.066h1.238v-1.066Zm3.721,0v1.066h1.241v-1.066Zm3.72,0v1.066h1.241v-1.066Zm3.721,0v1.066h.38a3.571,3.571,0,0,0,1.059-.157l-.429-1a2.071,2.071,0,0,1-.63.095Zm2.2-1.234,1.211.244a2.379,2.379,0,0,0,.084-.606v-.573h-1.247v.571A1.446,1.446,0,0,1,588.734,166.787Zm.048-7.3v1.059h1.247v-1.059Zm0,3.182v1.06h1.247v-1.06Z" transform="translate(-83.09 -159.474)"/><path class="a" d="M107.638,159.474v1.066h1.06v-1.066Zm3.182,0v1.066h1.062v-1.066Zm3.183,0v1.066h1.06v-1.066Zm3.182,0v1.066h1.06v-1.066Zm3.183,0v1.066h1.06v-1.066Zm3.182,0v1.066h1.06v-1.066Zm3.184,0v1.066h1.06v-1.066Zm3.184,0v1.066h1.059v-1.066Zm3.182,0v1.066h1.06v-1.066Z" transform="translate(-70.139 -150.927)"/><path class="a" d="M126.459,159.474v1.066h1.06v-1.066Zm3.182,0v1.066H130.7v-1.066Zm3.184,0v1.066h1.06v-1.066Zm3.182,0v1.066h1.06v-1.066Zm3.183,0v1.066h1.06v-1.066Zm3.182,0v1.066h1.06v-1.066Zm3.184,0v1.066h1.06v-1.066Zm3.184,0v1.066H149.8v-1.066Zm3.182,0v1.066h1.06v-1.066Z" transform="translate(-48.266 -150.927)"/><path class="a" d="M145.209,159.474v1.066h1.06v-1.066Zm3.182,0v1.066h1.062v-1.066Zm3.183,0v1.066h1.06v-1.066Zm3.182,0v1.066h1.06v-1.066Zm3.184,0v1.066H159v-1.066Zm3.182,0v1.066h1.06v-1.066Zm3.183,0v1.066h1.06v-1.066Zm3.184,0v1.066h1.059v-1.066Zm3.182,0v1.066h1.06v-1.066Z" transform="translate(-33.21 -150.927)"/><path class="a" d="M164.084,159.474v1.066h1.06v-1.066Zm3.182,0v1.066h1.062v-1.066Zm3.183,0v1.066h1.06v-1.066Zm3.182,0v1.066h1.06v-1.066Zm3.183,0v1.066h1.06v-1.066Zm3.182,0v1.066h1.06v-1.066Zm3.183,0v1.066h1.06v-1.066Zm3.184,0v1.066h1.059v-1.066Zm3.182,0v1.066h1.06v-1.066Z" transform="translate(-18.054 -150.927)"/><path class="a" d="M182.96,159.474v1.066h1.06v-1.066Zm3.182,0v1.066H187.2v-1.066Zm3.184,0v1.066h1.06v-1.066Zm3.182,0v1.066h1.06v-1.066Zm3.184,0v1.066h1.06v-1.066Zm3.182,0v1.066h1.06v-1.066Zm3.184,0v1.066h1.06v-1.066Zm3.183,0v1.066H206.3v-1.066Zm3.182,0v1.066h1.06v-1.066Z" transform="translate(-2.898 -150.927)"/><path class="a" d="M201.96,159.474v1.066h1.06v-1.066Zm3.182,0v1.066H206.2v-1.066Zm3.183,0v1.066h1.06v-1.066Zm3.182,0v1.066h1.06v-1.066Zm3.184,0v1.066h1.06v-1.066Zm3.182,0v1.066h1.06v-1.066Zm3.183,0v1.066h1.06v-1.066Zm3.184,0v1.066H225.3v-1.066Zm3.182,0v1.066h1.06v-1.066Z" transform="translate(12.359 -150.927)"/><path class="a" d="M220.82,159.474v1.066h1.062v-1.066Zm3.182,0v1.066h1.063v-1.066Zm3.184,0v1.066h1.062v-1.066Zm3.182,0v1.066h1.063v-1.066Zm3.184,0v1.066h1.063v-1.066Zm3.182,0v1.066h1.062v-1.066Zm3.184,0v1.066h1.062v-1.066Zm3.184,0v1.066h1.062v-1.066Zm3.182,0v1.066h1.063v-1.066Z" transform="translate(27.503 -150.927)"/><path class="a" d="M239.634,159.474v1.066h1.059v-1.066Zm3.18,0v1.066h1.062v-1.066Zm3.184,0v1.066h1.06v-1.066Zm3.182,0v1.066h1.062v-1.066Zm3.184,0v1.066h1.062v-1.066Zm3.182,0v1.066h1.06v-1.066Zm3.184,0v1.066h1.06v-1.066Zm3.183,0v1.066h1.06v-1.066Zm3.182,0v1.066h1.062v-1.066Z" transform="translate(42.61 -150.927)"/><path class="a" d="M258.494,159.474v1.066h1.059v-1.066Zm3.18,0v1.066h1.062v-1.066Zm3.183,0v1.066h1.06v-1.066Zm3.182,0v1.066H269.1v-1.066Zm3.183,0v1.066h1.062v-1.066Zm3.182,0v1.066h1.06v-1.066Zm3.183,0v1.066h1.06v-1.066Zm3.183,0v1.066h1.06v-1.066Zm3.182,0v1.066h1.062v-1.066Z" transform="translate(57.754 -150.927)"/><path class="a" d="M277.511,159.474v1.066h1.059v-1.066Zm3.18,0v1.066h1.062v-1.066Zm3.184,0v1.066h1.06v-1.066Zm3.182,0v1.066h1.062v-1.066Zm3.183,0v1.066H291.3v-1.066Zm3.182,0v1.066h1.06v-1.066Zm3.183,0v1.066h1.06v-1.066Zm3.184,0v1.066h1.06v-1.066Zm3.182,0v1.066h1.062v-1.066Z" transform="translate(73.024 -150.927)"/><path class="a" d="M296.511,159.474v1.066h1.059v-1.066Zm3.18,0v1.066h1.062v-1.066Zm3.184,0v1.066h1.06v-1.066Zm3.182,0v1.066h1.062v-1.066Zm3.183,0v1.066H310.3v-1.066Zm3.182,0v1.066h1.06v-1.066Zm3.183,0v1.066h1.06v-1.066Zm3.184,0v1.066h1.06v-1.066Zm3.182,0v1.066h1.062v-1.066Z" transform="translate(88.28 -150.927)"/><path class="a" d="M315.636,159.474v1.066h1.059v-1.066Zm3.18,0v1.066h1.062v-1.066Zm3.184,0v1.066h1.06v-1.066Zm3.182,0v1.066h1.062v-1.066Zm3.183,0v1.066h1.062v-1.066Zm3.182,0v1.066h1.06v-1.066Zm3.183,0v1.066h1.06v-1.066Zm3.184,0v1.066h1.06v-1.066Zm3.182,0v1.066h1.062v-1.066Z" transform="translate(112.976 -150.927)"/><path class="a" d="M334.573,159.474v1.066h1.06v-1.066Zm3.18,0v1.066h1.063v-1.066Zm3.184,0v1.066H342v-1.066Zm3.182,0v1.066h1.063v-1.066Zm3.184,0v1.066h1.063v-1.066Zm3.182,0v1.066h1.062v-1.066Zm3.183,0v1.066h1.062v-1.066Zm3.184,0v1.066h1.062v-1.066Zm3.182,0v1.066h1.062v-1.066Z" transform="translate(122.967 -150.927)"/></g><g transform="translate(521.589 674.073)"><rect class="a" width="1.067" height="1.068"/></g><g transform="translate(524.791 14.969)"><path class="a" d="M368.309,825.522v1.8h1.066v-1.8Zm.011-658.367v1.807h1.068v-1.807Zm3.188,658.367v1.8h1.068v-1.8Zm.012-658.367v1.807h1.068v-1.807Zm3.188,658.367v1.8h1.069v-1.8Zm.014-658.367v1.807h1.066v-1.807ZM377.242,824.5l.837,1.123a6.382,6.382,0,0,0,.539-2.037l-1.051-.3A3.752,3.752,0,0,1,377.242,824.5ZM377.25,170a3.794,3.794,0,0,1,.318,1.226l1.054-.3a6.4,6.4,0,0,0-.532-2.042Zm.341,4.678v1.8h1.066v-1.8Zm0,5.411v1.8h1.066v-1.8Zm0,5.408v1.8h1.066v-1.8Zm0,5.411v1.8h1.066v-1.8Zm0,5.406v1.8h1.066v-1.8Zm0,5.411v1.8h1.066v-1.8Zm0,5.408v1.8h1.066v-1.8Zm0,5.408v1.8h1.066v-1.8Zm0,5.408v1.8h1.066v-1.8Zm0,5.411v1.8h1.066v-1.8Zm0,5.406v1.807h1.066v-1.807Zm0,5.411v1.8h1.066v-1.8Zm0,5.408v1.8h1.066v-1.8Zm0,5.411v1.8h1.066v-1.8Zm0,5.406v1.807h1.066V250.4Zm0,5.411v1.8h1.066v-1.8Zm0,470.26v1.8h1.066v-1.8Zm0,5.411v1.8h1.066v-1.8Zm0,5.408v1.8h1.066v-1.8Zm0,5.413v1.8h1.066v-1.8Zm0,5.406v1.8h1.066v-1.8Zm0,5.411v1.8h1.066v-1.8Zm0,5.408v1.8h1.066v-1.8Zm0,5.411v1.8h1.066v-1.8Zm0,5.406v1.8h1.066v-1.8Zm0,5.411v1.8h1.066v-1.8Zm0,5.408v1.8h1.066v-1.8Zm0,5.408v1.8h1.066v-1.8Zm0,5.411v1.8h1.066v-1.8Zm0,5.406v1.807h1.066v-1.807Zm0,5.411v1.8h1.066v-1.8Zm0,5.408v1.8h1.066v-1.8Zm0,5.411v1.8h1.066v-1.8Zm0,5.408v1.8h1.066v-1.8Z" transform="translate(-368.309 -167.155)"/><path class="a" d="M374.385,207.635V208.7h1.066v-1.069Zm0,3.2V211.9h1.066v-1.068Zm0,3.2v1.069h1.066v-1.069Zm0,3.2v1.065h1.066v-1.065Zm0,3.2v1.066h1.066v-1.066Zm0,3.2v1.065h1.066v-1.065Zm0,3.2v1.065h1.066v-1.065Zm0,3.2v1.065h1.066v-1.065Zm0,3.2v1.066h1.066v-1.066Zm0,3.2v1.068h1.066v-1.068Zm0,3.2v1.066h1.066v-1.066Zm0,3.2v1.068h1.066v-1.068Zm0,3.2v1.066h1.066v-1.066Z" transform="translate(-365.103 303.762)"/><path class="a" d="M374.385,234.988v1.068h1.066v-1.068Zm0,3.2v1.066h1.066V238.19Zm0,3.2v1.068h1.066V241.39Zm0,3.2v1.065h1.066v-1.065Zm0,3.2v1.068h1.066v-1.068Zm0,3.2v1.066h1.066v-1.066Zm0,3.2v1.066h1.066v-1.066Zm0,3.2v1.066h1.066v-1.066Zm0,3.2v1.066h1.066v-1.066Zm0,3.2v1.069h1.066V263.8Zm0,3.2v1.066h1.066V267Zm0,3.2v1.068h1.066V270.2Zm0,3.2v1.066h1.066V273.4Z" transform="translate(-365.103 202.558)"/><path class="a" d="M374.385,262.488v1.068h1.066v-1.068Zm0,3.2v1.066h1.066V265.69Zm0,3.2v1.068h1.066V268.89Zm0,3.2v1.065h1.066v-1.065Zm0,3.2v1.068h1.066v-1.068Zm0,3.2v1.066h1.066v-1.066Zm0,3.2v1.066h1.066v-1.066Zm0,3.2v1.066h1.066v-1.066Zm0,3.2v1.066h1.066V288.1Zm0,3.2v1.069h1.066V291.3Zm0,3.2v1.066h1.066V294.5Zm0,3.2v1.068h1.066V297.7Zm0,3.2v1.066h1.066V300.9Z" transform="translate(-365.103 100.808)"/><path class="a" d="M374.385,289.988v1.068h1.066v-1.068Zm0,3.2v1.068h1.066V293.19Zm0,3.2v1.069h1.066V296.39Zm0,3.2v1.065h1.066v-1.065Zm0,3.2v1.068h1.066v-1.068Zm0,3.2v1.065h1.066V306Zm0,3.2v1.066h1.066V309.2Zm0,3.2v1.065h1.066V312.4Zm0,3.2v1.066h1.066V315.6Zm0,3.2v1.068h1.066V318.8Zm0,3.2v1.066h1.066V322Zm0,3.2v1.068h1.066V325.2Zm0,3.2v1.066h1.066V328.4Z" transform="translate(-365.103 -0.943)"/><path class="a" d="M374.385,317.539v1.068h1.066v-1.068Zm0,3.2v1.068h1.066v-1.068Zm0,3.2v1.068h1.066v-1.068Zm0,3.2v1.066h1.066v-1.066Zm0,3.2v1.068h1.066v-1.068Zm0,3.2v1.065h1.066v-1.065Zm0,3.2v1.066h1.066v-1.066Zm0,3.2v1.065h1.066v-1.065Zm0,3.2v1.066h1.066v-1.066Zm0,3.2v1.068h1.066v-1.068Zm0,3.2v1.066h1.066V349.55Zm0,3.2v1.066h1.066V352.75Zm0,3.2v1.066h1.066v-1.066Z" transform="translate(-365.103 -102.882)"/><path class="a" d="M374.385,344.719v1.069h1.066v-1.069Zm0,3.2v1.068h1.066v-1.068Zm0,3.2v1.068h1.066v-1.068Zm0,3.2v1.065h1.066v-1.065Zm0,3.2v1.069h1.066v-1.069Zm0,3.2v1.065h1.066v-1.065Zm0,3.2v1.065h1.066v-1.065Zm0,3.2v1.066h1.066v-1.066Zm0,3.2v1.066h1.066v-1.066Zm0,3.2V374.6h1.066v-1.068Zm0,3.2V377.8h1.066v-1.065Zm0,3.2V381h1.066V379.93Zm0,3.2V384.2h1.066v-1.066Z" transform="translate(-365.103 -203.447)"/><path class="a" d="M374.385,371.958v1.068h1.066v-1.068Zm0,3.2v1.068h1.066v-1.068Zm0,3.2v1.068h1.066V378.36Zm0,3.2v1.065h1.066v-1.065Zm0,3.2v1.069h1.066v-1.069Zm0,3.2v1.065h1.066v-1.065Zm0,3.2v1.065h1.066v-1.065Z" transform="translate(-365.103 -314.434)"/><path class="a" d="M374.385,386.25v1.068h1.066V386.25Z" transform="translate(-365.103 -331.353)"/></g><g transform="translate(521.589 14.969)"><rect class="a" width="1.067" height="1.068"/></g><g transform="translate(15.716 14.969)"><rect class="a" width="1.067" height="1.068"/></g><g transform="translate(3.229 14.969)"><path class="a" d="M74.916,174.649v1.8h1.066v-1.8Zm0,5.408v1.8h1.066v-1.8Zm0,5.411v1.8h1.066v-1.8Zm0,5.411v1.8h1.066v-1.8Zm0,5.4v1.81h1.066v-1.81Zm0,5.411v1.8h1.066v-1.8Zm0,5.411v1.8h1.066v-1.8Zm0,5.411v1.8h1.066v-1.8Zm0,5.406v1.8h1.066v-1.8Zm0,5.413v1.8h1.066v-1.8Zm0,5.408v1.8h1.066v-1.8Zm0,5.408v1.8h1.066v-1.8Zm0,5.411v1.8h1.066v-1.8Zm0,5.408v1.8h1.066v-1.8Zm0,5.408v1.8h1.066v-1.8Zm0,5.408v1.8h1.066v-1.8Zm0,470.263v1.8h1.066v-1.8Zm0,5.408v1.8h1.066v-1.8Zm0,5.411v1.8h1.066v-1.8Zm0,5.408v1.8h1.066v-1.8Zm0,5.411v1.8h1.066v-1.8Zm0,5.408V754.9h1.066V753.1Zm0,5.411v1.8h1.066v-1.8Zm0,5.406v1.807h1.066v-1.807Zm0,5.411v1.8h1.066v-1.8Zm0,5.408v1.8h1.066v-1.8Zm0,5.411v1.8h1.066v-1.8Zm0,5.408v1.8h1.066v-1.8Zm0,5.411v1.8h1.066v-1.8Zm0,5.411v1.8h1.066v-1.8Zm0,5.408v1.8h1.066v-1.8Zm0,5.408v1.8h1.066v-1.8Zm0,5.408v1.8h1.066v-1.8Zm0,5.408v1.8h1.066V818Zm.037,5.555a6.26,6.26,0,0,0,.533,2.039l.839-1.118A3.749,3.749,0,0,1,76,823.263Zm0-652.67,1.051.312a3.844,3.844,0,0,1,.325-1.221l-.834-1.126A6.331,6.331,0,0,0,74.954,170.891Zm2.832,654.632v1.8h1.066v-1.8ZM77.8,167.155v1.807h1.068v-1.807Zm3.188,658.367v1.8h1.065v-1.8ZM81,167.155v1.807h1.068v-1.807Zm3.187,658.367v1.8h1.069v-1.8ZM84.2,167.155v1.807h1.066v-1.807Z" transform="translate(-74.916 -167.155)"/><path class="a" d="M74.916,360.523v1.066h1.066v-1.066Zm0,3.2v1.071h1.066V363.72Zm0,3.2v1.066h1.066v-1.066Zm0,3.2v1.068h1.066v-1.068Zm0,3.2v1.066h1.066v-1.066Zm0,3.2v1.069h1.066v-1.069Zm0,3.2v1.065h1.066v-1.065Zm0,3.2v1.065h1.066v-1.065Zm0,3.2v1.066h1.066v-1.066Zm0,3.2V390.4h1.066V389.33Zm0,3.2V393.6h1.066v-1.068Zm0,3.2V396.8h1.066v-1.068Zm0,3.2V400h1.066v-1.068Z" transform="translate(-74.916 -304.734)"/><path class="a" d="M74.916,332.925v1.068h1.066v-1.068Zm0,3.2v1.069h1.066v-1.069Zm0,3.2v1.066h1.066v-1.066Zm0,3.2V343.6h1.066v-1.068Zm0,3.2v1.066h1.066v-1.066Zm0,3.2V350h1.066v-1.068Zm0,3.2V353.2h1.066v-1.065Zm0,3.2V356.4h1.066V355.33Zm0,3.2V359.6h1.066v-1.065Zm0,3.2V362.8h1.066v-1.068Zm0,3.2V366h1.066v-1.069Zm0,3.2V369.2h1.066v-1.068Zm0,3.2V372.4h1.066v-1.066Z" transform="translate(-74.916 -159.805)"/><path class="a" d="M74.916,305.509v1.068h1.066v-1.068Zm0,3.2v1.069h1.066v-1.069Zm0,3.2v1.066h1.066V311.91Zm0,3.2v1.068h1.066v-1.068Zm0,3.2v1.066h1.066v-1.066Zm0,3.2v1.068h1.066v-1.068Zm0,3.2v1.065h1.066v-1.065Zm0,3.2v1.066h1.066v-1.066Zm0,3.2v1.065h1.066v-1.065Zm0,3.2v1.068h1.066v-1.068Zm0,3.2v1.068h1.066v-1.068Zm0,3.2v1.069h1.066v-1.069Zm0,3.2v1.066h1.066v-1.066Z" transform="translate(-74.916 -58.366)"/><path class="a" d="M74.916,278.009v1.068h1.066v-1.068Zm0,3.2v1.069h1.066v-1.069Zm0,3.2v1.066h1.066V284.41Zm0,3.2v1.068h1.066v-1.068Zm0,3.2v1.068h1.066v-1.068Zm0,3.2v1.068h1.066v-1.068Zm0,3.2v1.065h1.066v-1.065Zm0,3.2v1.066h1.066v-1.066Zm0,3.2v1.065h1.066v-1.065Zm0,3.2v1.068h1.066v-1.068Zm0,3.2v1.069h1.066v-1.069Zm0,3.2v1.068h1.066v-1.068Zm0,3.2v1.066h1.066v-1.066Z" transform="translate(-74.916 43.383)"/><path class="a" d="M74.916,250.669v1.066h1.066v-1.066Zm0,3.2v1.069h1.066v-1.069Zm0,3.2v1.066h1.066V257.07Zm0,3.2v1.069h1.066V260.27Zm0,3.2v1.066h1.066v-1.066Zm0,3.2v1.068h1.066v-1.068Zm0,3.2v1.066h1.066v-1.066Zm0,3.2v1.066h1.066v-1.066Zm0,3.2v1.065h1.066v-1.065Zm0,3.2v1.068h1.066v-1.068Zm0,3.2v1.069h1.066v-1.069Zm0,3.2v1.068h1.066v-1.068Zm0,3.2v1.066h1.066v-1.066Z" transform="translate(-74.916 144.541)"/><path class="a" d="M74.916,223.294v1.066h1.066v-1.066Zm0,3.2v1.069h1.066v-1.069Zm0,3.2v1.066h1.066v-1.066Zm0,3.2v1.069h1.066v-1.069Zm0,3.2v1.066h1.066V236.1Zm0,3.2v1.068h1.066V239.3Zm0,3.2v1.066h1.066V242.5Zm0,3.2v1.066h1.066V245.7Zm0,3.2v1.065h1.066V248.9Zm0,3.2v1.068h1.066V252.1Zm0,3.2v1.069h1.066V255.3Zm0,3.2v1.068h1.066V258.5Zm0,3.2v1.066h1.066V261.7Z" transform="translate(-74.916 245.828)"/><path class="a" d="M74.916,210.481v1.065h1.066v-1.065Zm0,3.2v1.065h1.066v-1.065Zm0,3.2v1.068h1.066v-1.068Zm0,3.2v1.068h1.066v-1.068Zm0,3.2v1.068h1.066v-1.068Zm0,3.2v1.068h1.066v-1.068Z" transform="translate(-74.916 302.816)"/><path class="a" d="M74.916,207.983v1.068h1.066v-1.068Z" transform="translate(-74.916 388.753)"/></g><path class="a" d="M90.471,165.759a1.512,1.512,0,1,1-1.515-1.514A1.514,1.514,0,0,1,90.471,165.759Z" transform="translate(-65.076 512.316)"/><path class="a" d="M82.57,173.6a1.51,1.51,0,1,1-1.508-1.508A1.51,1.51,0,0,1,82.57,173.6Z" transform="translate(-69.242 492.483)"/><path class="a" d="M363.253,165.759a1.512,1.512,0,1,1-1.512-1.514A1.513,1.513,0,0,1,363.253,165.759Z" transform="translate(152.219 512.316)"/><path class="a" d="M371.693,173.6a1.512,1.512,0,1,1-1.511-1.508A1.512,1.512,0,0,1,371.693,173.6Z" transform="translate(156.671 492.483)"/><path class="a" d="M371.693,417.474a1.512,1.512,0,1,1-1.511-1.514A1.51,1.51,0,0,1,371.693,417.474Z" transform="translate(156.671 -393.434)"/><path class="a" d="M360.23,425.853a1.512,1.512,0,1,1,1.511,1.509A1.511,1.511,0,0,1,360.23,425.853Z" transform="translate(152.219 -414.616)"/><path class="a" d="M90.471,425.853a1.512,1.512,0,1,1-1.515-1.512A1.51,1.51,0,0,1,90.471,425.853Z" transform="translate(-65.076 -414.616)"/><path class="a" d="M82.57,417.474a1.51,1.51,0,1,1-1.508-1.514A1.508,1.508,0,0,1,82.57,417.474Z" transform="translate(-69.242 -393.434)"/><path class="a" d="M604.339,828.211h-7.623v9.575c0,5.336-3.062,9.68-6.825,9.68H94.082c-3.767,0-6.829-4.344-6.829-9.68v-9.575H79.633c-3.765,0-6.831-4.346-6.831-9.685V186.3c0-5.334,3.065-9.68,6.831-9.68h7.621v-9.577c0-5.339,3.062-9.683,6.829-9.683H178.67v1.857H94.082c-3.044,0-5.522,3.509-5.522,7.825v11.435H79.633c-3.044,0-5.52,3.512-5.52,7.823v632.23c0,4.316,2.476,7.828,5.52,7.828h8.928v11.432c0,4.311,2.478,7.823,5.522,7.823H589.891c3.042,0,5.518-3.512,5.518-7.823V826.353h8.93c3.047,0,5.524-3.511,5.524-7.828V186.3c0-4.311-2.476-7.823-5.524-7.823h-8.93V167.039c0-4.316-2.476-7.825-5.518-7.825H515.114v-1.857h74.777c3.764,0,6.825,4.344,6.825,9.683v9.577h7.623c3.769,0,6.832,4.346,6.832,9.68v632.23C611.171,823.865,608.108,828.211,604.339,828.211Z" transform="translate(-72.802 -157.356)"/><g transform="translate(15.716 3.233)"><rect class="a" width="1.062" height="1.068" transform="translate(14.658 0)"/><rect class="a" width="1.062" height="1.068" transform="translate(17.84 0)"/><rect class="a" width="1.061" height="1.068" transform="translate(24.207 0)"/><rect class="a" width="1.059" height="1.068" transform="translate(33.756 0)"/><rect class="a" width="1.061" height="1.068" transform="translate(27.391 0)"/><rect class="a" width="1.062" height="1.068" transform="translate(30.573 0)"/><rect class="a" width="1.062" height="1.068" transform="translate(21.024 0)"/><rect class="a" width="1.067" height="1.061" transform="translate(0 5.36)"/><path class="a" d="M84.156,429.628H83.09v-.57a2.648,2.648,0,0,1,.07-.61l1.037.246a1.723,1.723,0,0,0-.041.364Z" transform="translate(-83.09 -426.391)"/><rect class="a" width="1.062" height="1.068" transform="translate(11.476 0)"/><rect class="a" width="1.067" height="1.061" transform="translate(0 8.542)"/><path class="a" d="M84.607,430.969l-.364-1a2.6,2.6,0,0,1,.9-.159h.325v1.068h-.325A1.507,1.507,0,0,0,84.607,430.969Z" transform="translate(-82.481 -429.806)"/><rect class="a" width="1.061" height="1.068" transform="translate(8.294 0)"/><rect class="a" width="1.061" height="1.068" transform="translate(5.111 0)"/><path class="a" d="M365.274,430.875h-.312v-1.068h.312a2.69,2.69,0,0,1,.918.162l-.368,1A1.615,1.615,0,0,0,365.274,430.875Z" transform="translate(139 -429.806)"/><path class="a" d="M366.227,429.034a1.507,1.507,0,0,0-.041-.359l1.04-.234a2.51,2.51,0,0,1,.067.593v.582h-1.066Z" transform="translate(139.646 -426.366)"/><rect class="a" width="1.062" height="1.068" transform="translate(500.78 0)"/><rect class="a" width="1.067" height="1.061" transform="translate(505.873 8.554)"/><rect class="a" width="1.061" height="1.068" transform="translate(497.598 0)"/><rect class="a" width="1.067" height="1.062" transform="translate(505.873 5.371)"/><rect class="a" width="1.061" height="1.068" transform="translate(494.413 0)"/><rect class="a" width="1.059" height="1.068" transform="translate(481.684 0)"/><rect class="a" width="1.062" height="1.068" transform="translate(478.499 0)"/><rect class="a" width="1.062" height="1.068" transform="translate(484.866 0)"/><rect class="a" width="1.061" height="1.068" transform="translate(491.231 0)"/><rect class="a" width="1.058" height="1.068" transform="translate(488.049 0)"/></g><path class="a" d="M588.054,819.364v19.49H91.5v-19.49H76.989V181.045H91.5v-19.5h84.335v1.881H92.812v19.5H78.305v634.56H92.812v19.489H586.738V817.486h14.511V182.926H586.738v-19.5H513.572v-1.881h74.481v19.5h14.509V819.364Z" transform="translate(-70.593 -155.147)"/><path class="a" d="M584.78,816.014V835.6H93.105V816.014H78.574V182.709H93.105V163.128h81.642v.944H93.765v19.581H79.232V815.069H93.765v19.586H584.122V815.069h14.534V183.653H584.122V164.072H513v-.944H584.78v19.581h14.534V816.014Z" transform="translate(-69.757 -154.307)"/></g><path class="b" d="M79.711,431.985a4.284,4.284,0,1,0-4.285,4.283A4.285,4.285,0,0,0,79.711,431.985Z" transform="translate(-71.143 -427.7)"/><path class="b" d="M380.845,431.985a4.285,4.285,0,1,0-4.285,4.283A4.285,4.285,0,0,0,380.845,431.985Z" transform="translate(161.108 -427.7)"/><path class="b" d="M79.711,431.985a4.284,4.284,0,1,0-4.285,4.283A4.285,4.285,0,0,0,79.711,431.985Z" transform="translate(-71.143 254.3)"/><path class="b" d="M380.845,431.985a4.285,4.285,0,1,0-4.285,4.283A4.285,4.285,0,0,0,380.845,431.985Z" transform="translate(161.108 254.3)"/></g></svg>