<svg xmlns="http://www.w3.org/2000/svg" width="250" height="250.372" viewBox="0 0 250 250.372"><defs><style>.a{fill:#bf9161;}.b{fill:#fff;}.c{fill:#462622;stroke:#fff;}.c,.d{stroke-width:2px;}.d,.h{fill:#3b1712;}.d{stroke:#bf9161;}.e{fill:#33100b;}.f{fill:none;stroke:#5e463c;stroke-linecap:round;stroke-linejoin:round;stroke-width:3px;}.g{fill:#cd435f;}</style></defs><g transform="translate(0.001 -11.306)"><g transform="translate(0 -2.14)"><path class="a" d="M665.383,140.167c-.139.283-.6.247-.932.339.012-.426.478-.405.849-.471a125.863,125.863,0,0,0-22.391-25.411c-.562.544-1,1.213-1.967,1.348a5.783,5.783,0,0,1,1.435-1.81q-4.563-3.909-9.5-7.377a.344.344,0,0,1,.054.17c-.092.563-.494.276-.494,0,.042-.252.143-.318.245-.309a124.682,124.682,0,0,0-21.348-12.014,4.428,4.428,0,0,0,2.595,1.8c-1.781,1.9.579,1.9,0,5.009-2.917-.86-2.5,3.518-4.5,2-1.715.794-1.47,3.544-4,3.508.694-1.64,2.39-2.278,3-4.008,1.908.41,1.936-1.067,2.5-2.005h2c.388-1.887-.614-2.4-.5-4.005-1.532-.8-2.009-2.66-4-3a2.26,2.26,0,0,1,.033-.521c-1.412-.577-2.821-1.155-4.256-1.68a.21.21,0,0,1-.146-.052q-5.749-2.1-11.752-3.65a1.991,1.991,0,0,0,.12.4,3.533,3.533,0,0,0-2,3c-.88-1.126.329-2.151.9-3.624a124.949,124.949,0,0,0-148.806,82.134c.064-.021.125-.047.191-.068,1.3,0,2,.591,3.16.73.082.808.7,1.074.482,2.186h-1.461a3.136,3.136,0,0,1-.96,2.917,16.429,16.429,0,0,0-3.155-.024,125.359,125.359,0,0,0-4.6,33.618c0,69.142,55.968,125.188,125,125.188,3.609,0,7.169-.188,10.7-.488a4.912,4.912,0,0,1-.216-.471c2.157-1.574,3.336.033,5.1-.245.816-.891-.191-2.333-.2-3.471,2.658-1.277,4.454.28,6.338,1.574a5.941,5.941,0,0,1,.23,1.136,125.219,125.219,0,0,0,82.253-192.353ZM448.3,180.807c-.807-.085-.381-1.4-.487-2.184-.2-1.013-.972-1.458-1.209-2.432.358-.285.988-.3,1.209-.73C449.212,176.127,448.372,179.35,448.3,180.807Zm5.6-15.756c-.261-.257.365-.639.5-.5C454.663,164.813,454.035,165.187,453.9,165.051Zm9.99,39.306a2.121,2.121,0,0,1-.266-2.057c.863-.41,1.894.853,1.781,1.807C464.759,204.67,464.371,204.347,463.891,204.356Zm3.854-2.057-.228-.426.43-.229.233.426Zm2.769,2.1c-.275-.257-.6-.37-.887-.629-.322-.815-.374-1.553.278-2.071.306.363.812.061,1,.844.362.584,1.16-.278,1.426.617C471.09,203.324,471.711,203.873,470.513,204.4Zm2.066,4.406c-.529.363-.859.075-1.1-.516.532-.36.962-.415,1.2.184C472.478,208.534,472.53,208.671,472.579,208.807Zm197.372-41.751c-.1.568-.5.278-.5,0C669.542,166.486,669.952,166.78,669.952,167.056Zm-2-10.016c-1.148.151-.551-1.449-1.5-1.5C666.6,154.587,669.406,156.215,667.947,157.04Zm-5.5,9.015c-.294.052-.626-.7-.494-1C662.705,163.279,662.891,165.974,662.444,166.055ZM661.95,138c-.019.488-.619.389-1,.5C660.96,138.021,661.564,138.117,661.95,138Zm-1-2.5c.256.259-.362.641-.5.5C660.186,135.745,660.809,135.363,660.946,135.5Zm-9.5,37.063c-.765-.716-.487-2.608,1-2.507-.1.408-.5.5-.5,1.006.224.443.438.9,1,1-.1.565-.5.276-.5,0-1.456.436-.562.745-.5,2.005h-1.5A1.372,1.372,0,0,1,651.443,172.565Zm1.687,29.367c-.073.276-.513.438-.412.773-.661.617-.748-.686-1.12-1.058.44-.344-.593-1.143-.245-1.513a1.657,1.657,0,0,1,1.28-.683C653.586,200.08,652.476,200.876,653.13,201.932Zm-2.779,1.487a7.754,7.754,0,0,0,2.223,2.116c.384.954-.492,1.534-.372,2.4-1.616,0-2.727-1.647-3.785-3.487C648.648,203.784,649.756,203.527,650.351,203.419Zm-3.4-44.88c-.1.573-.506.278-.506,0C646.535,157.975,646.947,158.263,646.947,158.538Zm-8-44.569c1.051.405,1.369,2.632.5,3.506C638.068,116.391,639.948,115.171,638.946,113.969Zm-.508-2.005c1.294-1.729,1.209,2.573,0,0Zm-2.5,7.012a2.831,2.831,0,0,0,.5-2c-.014-.49-.614-.393-1-.507.15-.674,1.252-.41,2-.495C637.463,117.489,637.736,119.263,635.939,118.976Zm-1,34.556c2.115.052.009.942-.5,0-1.772.17-1.23,1.381-3,.5-.473-.931,1.5-1.671,0-2,.508-1.55.824,1.086,1.5,1,.289-1.546,2.108-1.567,2-3.5h1.5c-.649-1.244,1.12-2.434,0-2.5,1.72-2.024.339,2.458,1,2.005a5.383,5.383,0,0,1-3,2.5C634.379,152.424,635.052,152.587,634.941,153.531Zm0-38.568c1.517-1.845,1.689,1.524,0,0Zm0-3.5c-.221.726-.438-.047-1,0A.5.5,0,0,1,634.941,111.46Zm.5,7.012c-.287,1.817-3.508,2.012-3.5,0C632.887,119.466,634.3,118.719,635.442,118.472Zm-2.007,2.507c-.009.481-.607.391-.993.5C632.455,120.993,633.054,121.089,633.435,120.979Zm-1.489-10.016c.252.257-.369.639-.508.5C631.184,111.2,631.807,110.821,631.946,110.963Zm-1,2c.256.262-.358.643-.506.5C630.182,113.206,630.805,112.826,630.942,112.961Zm0,2.507c2.223-.075.294,2.033,0,2.5C629.474,117.546,631.236,116.363,630.942,115.468Zm.5,3v1h-1v-1Zm-2-11.017c-.1.57-.5.276-.5,0C629.034,106.891,629.441,107.174,629.441,107.454Zm0,7.509c1.525-1.364-1.367,1.527,0,0Zm1.5,27.546c1.633-1.178-.466-2.832-.506-4,1.818-.485.423,2.248,2.007,2-.969,1.609.95,3.511-2.007,3.508.04,1.289,2.331.719,1,2.005,1.39-.085,1.72.768,1,1.5,1.176-.73.925-1.056,2.5-.495-.075,1.953-2.79.907-1.506,3-1.894-.24-3.117.21-3.5,1.5-.863-1.918.1-3.786,1.5-5.506-1.612.45-.7-1.638-1.5-2.005-2.708-.933-3.847,1.195-5.5-.5.734-.787,3.371-1.628.5-2,1-1.449,2.4.9,3,1.5C628.718,141.583,628.923,142.71,630.942,142.509Zm-11,4.013a5.287,5.287,0,0,1,2.5-2.507,1.868,1.868,0,0,1,0-2.5c1.214,1.458,2.494,2.846,2.5,5.509-.581-.087-.892.111-.993.495-1.094.1-1.6-.405-1.508-1.5-.675.153-.414,1.251-.5,2-.593-1.84-2.739-.214-3.508-1C618.519,146.437,619.35,146.6,619.94,146.522Zm-1-8.518c-.085-.04-1.416-.167-1-.5C618.442,137.1,620.366,138.718,618.941,138Zm8,11.522c-.071-1.906-.052-3.129-.5-3.506.179-.7.88-.042,1,.5,1.052-.141-.727-1.338.5-2,.447.306.894.606,1,0,.471,1.654-1.4,5.261-2,7.512h-2C624.975,150.56,626.076,150.169,626.94,149.526Zm.5-12.024c-.061,1.256-.96,1.572.5,2.01-1.823,2.194-2.125-3.157-3.995-1-1.55-.507,1.428-.476.993-1.508C626.142,136.8,626.027,137.917,627.443,137.5ZM625.94,133c-.1.573-.5.276-.5,0C625.535,132.43,625.94,132.719,625.94,133Zm-1-1.5a.5.5,0,0,1-.993,0C624.166,130.769,624.382,131.541,624.937,131.5Zm2,3.5c.325,2.321-2.739,1.268-4.5,1.506-.579.243.591,2.615-2,2-.207-1.051.346-1.329.5-2a1.37,1.37,0,0,0-1.5-1c1.511-1.468-1.026-1.1-.5-3.006a11.273,11.273,0,0,0,4.5,1C623.215,136.494,624.716,134.656,626.94,135Zm-8-7.007c1.11.207.386,2.653,0,3C617.423,130.373,619.472,129.272,618.941,127.993Zm0,7.509c-.221.745-.642-.2-1.5,0-.068-.9.609-1.058.494-2.007C619.3,133.139,617.581,135.86,618.941,135.5Zm-1.5-7.014c-.016.488-.616.386-1,.5C616.454,128.5,617.051,128.6,617.442,128.488Zm-5.5,5.509c-.591-.075-.424-.909-.5-1.5.849-.179.941.394,1,1C612.01,133.407,611.96,133.693,611.939,134Zm.5,3.506c-1.092,1.534-3.2-.58,0,0Zm-1.5-7.507c.019-.492.619-.389,1.007-.5C611.92,129.982,611.327,129.883,610.932,130Zm2-.5c.254.254-.367.636-.5.5C612.177,129.734,612.8,129.35,612.936,129.494Zm1-2.005c-.078-.04-1.409-.17-1-.5C613.438,126.584,615.364,128.2,613.934,127.489ZM614.44,133c-.019.488-.609.386-1,.5C613.454,133.009,614.049,133.111,614.44,133Zm-1,4.505c1.233.393,3.461-1.814,3.5.5-1.235-.648-2.425,1.119-2.5,0-1.2-.193.275,2.283-1.5,1.508A2.809,2.809,0,0,0,613.435,137.5Zm2.5-4.505a2.2,2.2,0,0,1,1,2C616.061,134.882,615.795,134.14,615.938,133Zm-2-12.019c.779-.561,1.045-1.628,2.506-1.5-1.292,1.715-.56,5.457-1.5,7.511a29.1,29.1,0,0,1-3.5-1.5c.4-2.05,2.056.262,3-1,.948-1.68-2.454-1.833,0-2.005-.247-1.59-4.51.836-4.007-1.5C612.014,121.662,612.106,121.087,613.934,120.979Zm-1.5-.5c-1.922-1.364.6-2.811-.5-5.007C614.532,116.318,612.713,118.613,612.435,120.474Zm-1.5-7.514c1.5-.5.892,1.122,1.007,2C611.059,114.848,610.8,114.106,610.932,112.961Zm-1,6.515v-1.5C611.393,117.237,611.393,120.208,609.937,119.475Zm.5-3.009c.264.259-.353.641-.5.507C609.676,116.714,610.3,116.332,610.433,116.467Zm0,6.515c.264.259-.353.639-.5.5C609.676,123.222,610.3,122.842,610.433,122.981Zm-.5,3c-.515.415-.9-.445-1-.5C607.005,124.369,610.278,125.7,609.937,125.986Zm-2.5,2.5c-.807.146-.859-.471-1.5-.495-.183.848.4.94,1,1-.494,1.534-1.334-.575-2-.5.146-1.018,1.35-.98,1.5-2,1.527-.368,1.463.862,3,.5C609.6,128.311,606.634,126.523,607.433,128.488Zm-.993-6.008c-.522-.325-.522-1.15-1.5-1,.365-1.131,2.8-.2,4-.5C609.706,123.087,606.349,121.059,606.441,122.48Zm.993,3c-.259-.259.367-.641.5-.5C608.191,125.243,607.579,125.625,607.433,125.484Zm-2.5-19.033c-1.522,1.857-1.682-1.517,0,0Zm0-3.5c.256.259-.365.639-.5.5C604.175,103.19,604.791,102.808,604.937,102.947Zm1,29.047c-.014.488-.614.391-1,.5C604.947,132.01,605.547,132.1,605.932,131.994Zm2-19.533c1.454-.735,1.454,2.241,0,1.508Zm1,4.005a.506.506,0,0,1-1,0C608.154,115.741,608.37,116.521,608.937,116.467Zm-1.5,1.008c.852-.186.948.384,1,1,.426.094.478-.191.5-.5.421-.092.471.193.5.5v1c-1.412.412-1.3-.707-2.5-.5A2.418,2.418,0,0,0,607.433,117.475Zm-.5-2.512c-.1.568-.5.283-.5,0C606.528,114.4,606.937,114.688,606.937,114.963Zm-.5,1.008c-.221,1.383-1.576.021-1-1.008C605.977,115.093,605.777,115.962,606.441,115.972Zm-4-23.545c.887.372.07.917,0,1.506C601.545,93.562,602.361,93.018,602.436,92.427Zm-1,1.006c-.645.858-1.042,1.97-2.506,2C598.86,93.857,600.211,93.713,601.436,93.433Zm-4.5,10.518c.487.012.383.608.5,1,1.348-.591,0-2.608,0-3.506.887-.452,1.463-1.213,2.5-1.5-1.426-.092-2.84-.945-3-3.508,4,.254,5.992-1.567,8.5-1.5.064,2.8,2.84.9,4,.5,1.15,1.15-.238,2.3-1,3.006a1.4,1.4,0,0,1-1-1.506c-3.7-.2-4.917,2.083-7.5,3.006.678.829-.4,2.922,0,5.007-.675.994-3.491-.156-3.5,1.5C594.665,105.59,597.877,105.638,596.936,103.951Zm5,6.008c.659.174.786.881,1.5,1C603.232,112.2,601.493,110.991,601.933,109.959Zm0,10.516c2.174.212-.529,2.915,0,0Zm.5-14.526c.581.085.416.912.5,1.506h-1.5C601.618,106.8,602.319,106.67,602.436,105.949Zm.5-1.5c.259.266-.358.648-.5.5C602.173,104.693,602.794,104.309,602.935,104.445Zm-3,8.515c-.445.311-.894.606-1,0A.509.509,0,0,1,599.935,112.961Zm0-6.006c-3.094,1.842-2.581-1.051,0,0Zm0,12.021c-.1.566-.506.276-.506,0C599.531,118.406,599.935,118.7,599.935,118.976Zm0,11.02c1.118-1.937-.231,1.348-.506,1C599.018,130.476,599.881,130.085,599.935,130Zm-3.5-37.569c.252.262-.362.643-.506.5C595.68,92.674,596.291,92.29,596.437,92.427Zm0,17.033c.252.262-.362.639-.506.5C595.68,109.7,596.291,109.32,596.437,109.459Zm0,4.51c-.019.488-.621.386-1,.5C595.442,113.978,596.042,114.082,596.437,113.969Zm-1-5.516c.256.257-.367.639-.5.5C594.677,108.7,595.291,108.319,595.437,108.453Zm-3,5.516c1.522-1.364-1.365,1.517,0,0Zm-2-14.026c.687-1.6.492,1.765.5,2.5C590.235,104.038,590.435,100.68,590.433,99.943Zm.5,4.008c.261.257-.358.639-.5.495C590.167,104.189,590.791,103.807,590.929,103.951Zm0,1c.261.257-.358.641-.5.5C590.167,105.195,590.791,104.813,590.929,104.95Zm-2-13.522c1.165.127.28,2.2,0,2.5-.383,2.184.619,4.639,0,5.506C587.906,97.719,588.379,93.23,588.934,91.428Zm-10,12.019c.254.257-.362.638-.5.5C578.173,103.687,578.789,103.312,578.931,103.446Zm-1.5,1.5c-.536.469-.158,1.85-1.5,1.5C575.839,105.362,576.335,104.858,577.429,104.95Zm-73.084,13.164c2.167.108.221,3.19,1.7,3.64.054.8-.946.521-.976,1.223-.172.737.245.884.242,1.456.024,1.079-1.259.844-1.459,1.7a12.817,12.817,0,0,1-1.939-2.674C502.169,121.125,503.475,119.834,504.345,118.114Zm-5.581,14.34c.765.118.948-.53,1.456,0-.468,1.477.414,4.3-1.456,4.373A17.764,17.764,0,0,1,498.765,132.453Zm-1.946,8.258c.616-1,2.183-.759,2.915,0-.193,1.105-.894,1.7-1.209,2.672.315.957.781,2.311.24,3.4a1.854,1.854,0,0,1-2.181-.247C496.786,144.521,497.2,142.67,496.819,140.712Zm-3.388,14.09c.835.379,2.546-.123,2.663.975-.983.481-3.171.33-3.395-.726A1.14,1.14,0,0,1,493.431,154.8Zm-16.5,35.239c.922-.6,2.56,1.006,1.7,2.187-1.235.028-1.645-.787-1.943-1.7C476.642,190.243,476.743,190.092,476.929,190.04Zm-.734-10.2c.433.057.555.417.487.971h-.72C475.856,180.3,476.127,180.161,476.2,179.836Zm-3.437,14.834a1.636,1.636,0,0,1,.374-.127h1.132a3.358,3.358,0,0,1,1.007.716c.167.229.158.405.014.542C474.755,196.767,472.558,196.122,472.758,194.67Zm.6,15.091c.553-1.275,2.673-.624,1.974.606C474.431,211,473.77,210.8,473.363,209.762Zm1.1,25.305c.64-.888,2.644-1.788,3.339-.961a1.14,1.14,0,0,1-.532.561C476.353,234.728,475.075,235.981,474.459,235.067Zm3.861,15.006c-.346-1.065-.007-1.918-.183-2.926-.725-.7-1.769-1.671-1.814-2.889.478-.634,1.39-1.138,2.042-.815.769,1.878,1.278,3.706,2.527,5.261C480.821,249.871,479.324,250.4,478.32,250.073ZM481,253.049a17.632,17.632,0,0,1,2.044,3.859c-.718.252-.583.912-1.275.686C481.482,256.07,479.39,253.992,481,253.049Zm3.863,19.139c-1.972.926-1.7-2.71-3.216-2.417-.423-.669.6-.9.292-1.529-.193-.735-.638-.664-.906-1.171-.527-.942.72-1.338.492-2.189a12.627,12.627,0,0,1,2.969,1.447C485.366,268.508,484.818,270.261,484.867,272.188ZM538.422,301.4a.506.506,0,0,1,1,0C539.2,302.133,538.982,301.353,538.422,301.4Zm1,2.005c.261-.77.52-.031.5.5C539.65,304.68,539.405,303.942,539.422,303.408Zm4.5,25.039c.1-.568.51-.276.508,0C544.325,329.019,543.918,328.729,543.918,328.447Zm.746-10.523c-.085-.271.153-.238.214-.12C544.969,318.07,544.729,318.042,544.664,317.924Zm5.023,9.432c.193-.054.327.1.546-.017l.224.431C550.051,328.114,549.884,327.678,549.687,327.356Zm.445-3.815c.548.582.016.839.143,1.3C549.519,325.143,549.148,323.739,550.131,323.541Zm15.645,4.59.447.86C565.555,329.408,564.847,328.435,565.777,328.131Zm.511,3.032c-.174-.052,0-.358.1-.33C566.553,330.885,566.374,331.192,566.287,331.163Zm-1.339-9.75c.877-1.147,2.258-.372,2.955.9C567.72,324.321,565.6,323.056,564.948,321.413Zm3.677,12.08a.97.97,0,0,1,.287-1.534c.108.21.343.031.539-.012l.454.86A1.185,1.185,0,0,1,568.625,333.494Zm.8-32.091c.1-.565.51-.276.5,0C569.83,301.97,569.423,301.681,569.426,301.4Zm18.339,12.787a1.607,1.607,0,0,1,1.188-.358c.237.375-.019.591.245.973C588.492,315.358,588.12,314.8,587.765,314.189Zm2.668,10.254c0-.49.614-.389,1-.5C591.419,324.429,590.814,324.33,590.433,324.443Zm61.408-92.909c-.313-.516-.6-1.02-.143-1.3.614-.455.927.092,1.214.73Zm1.729-12.761c-.623.457-.878-.276-1.416-.071-.764,1.02.313,1.364.927,2.255-.082,1.374-.144,4.312-2.3,3.431-1.1-2.368-1.379-4.491-2.235-6.79a13.6,13.6,0,0,1-3.524-6.1c-.063-.071-.127-.151-.19-.224a83.771,83.771,0,0,1-4.051,23.955c.177.089.351.174.52.28.273,1.338-.845,2.255-.228,3.7-1.939,1.023-1.668,2.721-3.153,3.883l-.118-.052a83.87,83.87,0,0,1-57.853,47.941,6.423,6.423,0,0,0-.007,1.779c-.656.4-.675.992-1.487,1.343-1-.436-2.371.335-2.964-1.444a1.506,1.506,0,0,0,1.132-.982,83.807,83.807,0,0,1-93.191-113.407.755.755,0,0,1,.285-1.107c.057-.007.1,0,.148,0a83.667,83.667,0,0,1,120.9-39.44,1.274,1.274,0,0,1,.176-1.218c1.64.021,1.193,2.139,3,2a1.5,1.5,0,0,1-1.376.37c.353.231.713.45,1.066.686.122-.071.257-.111.311-.052a.187.187,0,0,1,.007.257c1.7,1.15,3.343,2.377,4.953,3.647.56-.163,1.306.893,1.543,1.1-.012.038-.028.047-.038.08.654.542,1.284,1.11,1.924,1.671a1.362,1.362,0,0,0,.113-.749c1.6.436,1.565-.773,1.993-1.506.979-.2.734,2.278-.5,1.506a3.607,3.607,0,0,1-.2,1.989c1.313,1.209,2.579,2.467,3.816,3.756-.52-.66.313-2.187,1.393-1.739-.266.74-.746,1.261-1,2a.737.737,0,0,1-.306-.167,84.247,84.247,0,0,1,5.757,6.689l.052-.009c0,.024-.016.028-.019.047a83.5,83.5,0,0,1,16.14,36.457h3.282c.108.422.2.841.268,1.242.329.469.765.624,1.009,1.393l-1.28.681c-.506-.575.023-.829-.475-1.4-.426-.384-1.033-.137-1.525-.29a2.221,2.221,0,0,0-.4,1.317c.289.818.844.756,1.332.942.548.589-.555.669-.188,1.2a19.856,19.856,0,0,1,2.466,3.084c-.423.65-1.543,1.086-2.127,1.689a26.911,26.911,0,0,1,1.3,3.987c.369.74,1.052.462,1.635.5a13.082,13.082,0,0,1,2.458,2.545,4.312,4.312,0,0,0,.212,4.017,1.593,1.593,0,0,0-.96.785c.692,1.258,2.237-.271,3.258-.085C654.309,217.2,653.535,217.862,653.57,218.774Zm-.626-43.707c1.209.455,1.322,2.015,1.5,3.506C653.283,178.071,652.829,176.851,652.944,175.067Zm1-15.023c.224-.726.442.05,1,0C654.817,160.673,653.949,160.551,653.946,160.044Zm2,20.534c-.259-.259.365-.641.5-.5C656.7,180.34,656.078,180.722,655.944,180.578Zm-.5-12.518c-1.365-1.086.094-3.548,2-3.009C657.2,166.474,654.826,165.774,655.447,168.06Zm2,2c.1-.568.5-.278.5,0C657.849,170.628,657.445,170.336,657.445,170.058Zm1-34.056c2.924.667-1.812,2.368,0,0Zm1.5,18.027c.009-.481.609-.386,1-.5C660.934,154.019,660.334,153.92,659.948,154.029Zm1.188,71.722c-.6-.544.052-.7-.035-1.089a.667.667,0,0,1,.767.415A1.341,1.341,0,0,1,661.136,225.75Zm1.308-51.68c.132-.631,1-.511,1,0C663,174.379,662.553,174.673,662.444,174.07Zm1-2.005h-2c-.07-.674.8-2.761,1-1.506,1.2.2-.273-2.278,1.5-1.5C664.014,170.293,664.028,171.471,663.447,172.065Zm1-3.511c-.426-1.6.783-1.546,1-2.5C666.322,166.17,665.665,168.875,664.451,168.554Zm1.5-5h1.5c.136.806-.478.862-.5,1.5h-1Zm.5,10.52a2.2,2.2,0,0,1,2-1.006C668,173.936,667.333,175,666.449,174.07Zm3,18.529c-.261-.259.353-.639.5-.5C670.206,192.352,669.592,192.736,669.451,192.6Zm2-3c-.259-.259.36-.639.5-.5C672.2,189.348,671.589,189.729,671.45,189.6Zm.5-18.034c-.263-.254.355-.636.5-.5C672.712,171.325,672.086,171.7,671.951,171.561Zm5.5,17.53c-1.082.085-.221-1.772-.5-2.5C678.753,186.108,677.838,188.749,677.448,189.091Zm1-4.006a9.337,9.337,0,0,0-3.5,4.51c-2.513-.7.242-3.843,1.5-4.008a1.366,1.366,0,0,1,1-1.506c-.313-1.22-1.007-2.575,1-2.5C677.979,182,677.379,184.774,678.45,185.085Zm3.5-4.507c-.261-.259.358-.641.5-.5C682.713,180.34,682.089,180.722,681.953,180.578Zm-37.2,24.108a1.144,1.144,0,0,0,.534.061c.165-.556-.5-1.367-.685-2.029C644.653,203.374,644.714,204.027,644.752,204.686Zm-12.309-56.159h-1.5c-.388.108-.988.014-1,.5C630.671,148.748,632.527,149.608,632.443,148.527Zm12.1,53.429c.009.111.014.224.026.335a.538.538,0,0,1,.1-.245A1.517,1.517,0,0,1,644.545,201.956Z" transform="translate(-436.183 -70.667)"/><path class="b" d="M120.893,0A121.073,121.073,0,1,1,0,121.073,120.983,120.983,0,0,1,120.893,0Z" transform="translate(6.044 18.139)"/><path class="c" d="M672.232,197.1a124.046,124.046,0,0,0-5.5-35.936,2.461,2.461,0,0,1-.685.169c.012-.331.342-.337.628-.377-15.335-49.4-60.811-84.485-115.391-84.3-20.362.073-40.5,3.186-57.366,12.092-3.419,3.151-7.737,4.712-11.576,7.331-3.869,2.641-6.984,6.367-11.194,8.231-1.992,1.72-3.913,3.522-5.789,5.367v.1c-.028-.008-.038-.032-.058-.044q-1.966,1.917-3.819,3.916a.272.272,0,0,1,.2.258c-.076.468-.414.23-.414,0,.008-.026.016-.028.022-.046-1.131,1.226-2.254,2.462-3.341,3.734a.637.637,0,0,1,.046.438c-.294.714-.486.546-.567.188A123.274,123.274,0,0,0,442.3,140.677c-1.335,2.956-2.608,5.946-3.839,8.946a2.582,2.582,0,0,1,.3,1.452c-.5.153-.717.022-.8-.242-.134.331-.272.661-.408.994a2.862,2.862,0,0,1,1.211-.343c.112.671-.39.712-.416,1.238,1.027-1.647,3.085,1.772,3.279-.411a1.891,1.891,0,0,0,1.227.411c-.683.825.04.528,0,1.651-2.54-.766-1.259,2.313-2.044,3.307h-4.094c.014-.4.5-.319.821-.413-.108-.97-1.8-.236-2.046,0,1.5,1.655,1.583,4.736,2.454,7.019h-1.633c.578-1.248-.184-2.21-.414-3.712h-1.229a1.852,1.852,0,0,0-.154-.754c-.234.643-.462,1.286-.691,1.932a6.452,6.452,0,0,0,.845.058c-.4.552-1.1.807-1.229,1.651a.4.4,0,0,1-.2-.081c-.094.28-.2.559-.3.839q-.572,2.038-1.081,4.105a1.107,1.107,0,0,1,1.171-.734c.186.865-.551.79-1.189.823a123.553,123.553,0,0,0-3.579,29.478c1.117,26.615,8.782,52.307,23.627,72.683,3.067,3.371,5.691,7.392,8.878,10.858.226.246.466.486.689.73.348.357.7.716,1.063,1.059,3.625,3.42,7.434,6.648,10.922,10.2A120.821,120.821,0,0,0,585.8,315.637c2.869-1.3,5.721-2.682,8.646-3.94.412-.175.831-.306,1.245-.476.5-.159.625-.71,1.191-.8.633-.581.2-.095-.246.45,2.192-.843,4.408-1.611,6.634-2.345a.83.83,0,0,1,.983-.589c-.016.109-.058.186-.08.288.088-.032.188-.064.28-.093.436-.22.849-.472,1.287-.7a1.134,1.134,0,0,1,.48-.26c1.275-.669,2.546-1.347,3.795-2.057.082-2.022.4-4.472,2.018-5.023-.216-.609-.6-1.038-.823-1.653-.605.183.164.534,0,1.242-.6-.359-1.589-.329-1.231-1.651h1.231c-.723-.778-1.708-.879-.408-1.653-.18-.609-.526.167-1.229,0a1.575,1.575,0,0,1-.21-.47,113.018,113.018,0,0,1-14.969,7.757,3.63,3.63,0,0,1-1.629,1.557c-6.75,3.442-10.109,4.637-17.791,5.525-2.931.337-7.7.835-11.884,1.212a1.329,1.329,0,0,1,.228.936c1.745.046.014.78-.4,0-1.453.143-1.015,1.143-2.462.413-.23-.454.236-.851.4-1.155-1.241.1-2.394.189-3.339.244-.8.056-1.589.1-2.384.139-.983.059-1.968.1-2.949.161-.076.157-.136.135-.212.01-3.7.21-7.387.391-11.082.379a22.562,22.562,0,0,1-9-1.948c-1.133-.19-2.256-.425-3.377-.651-.108.343-.382.145-.382-.065l0-.008a112.549,112.549,0,0,1-38.706-15.628,45.742,45.742,0,0,1-8.882-6.315,113.817,113.817,0,0,1-16.422-15.816,4.279,4.279,0,0,1-.8.661c-.793-.268-.256-.885.122-1.444a110.305,110.305,0,0,1-23.607-49.048c-1.027-3.381-1.96-6.767-2.672-10.19a.69.69,0,0,1-.45-.024,1.142,1.142,0,0,1,.336-.5,54.7,54.7,0,0,1-1.161-11.618,37.024,37.024,0,0,1,.717-5.662,115.386,115.386,0,0,1,3.663-25.934c-.647.248-1.295.492-1.507,1.182-.711-.218.442-1.988.408-2.887a5.845,5.845,0,0,1,1.421.44c.166-.581.324-1.153.49-1.732a14.33,14.33,0,0,1-2.734.877c-1.265.236-1.071,1.946-2.45,2.067-.194-1.3,1.255-.938.817-2.478,1.6.315,2.118-1.53,3.279-.413.516-.438.43-1.474,1.487-1.367.152-.51.308-1.022.464-1.528-.542-.032-1.071-.04-1.135.415-.965-.111-.246-1.829.406-1.651.124-.663-.386-.712-.406-1.236.947-1.954.014-3.268,1.231-4.958,1.363,1.647,1.039-.343,2.7-.4a1.041,1.041,0,0,1,.068-.153,1.538,1.538,0,0,1,.921-2.341c-1.868-1.03-2.678-.589-5.325-.823.2-1.43,1.561-1.05,2.454-.825.074-.353-.162-.393-.412-.415.084-.466.412-.228.412,0,.791-.169.324-1.6,1.633-1.236.058.742-.494.871-.4,1.651.06.484.747.349,1.221.409.614-.175-.156-.526,0-1.24.382.284.793.532,1.163.819.056-.151.136-.286.2-.435a1.653,1.653,0,0,1-.539.032c-.07-.351.158-.389.4-.415-.128-.559-1.025-.343-1.639-.411a1.873,1.873,0,0,0,.41-1.238c.755.171.779,1.069,1.93.835,18.092-39.066,57.292-66.08,102.327-65.453,9.711.139,19.915.563,29.155,2.787,4.06.27,7.929.663,12.367,3.077,7.1,3.861,14.5,7.347,21.751,10.936a3.331,3.331,0,0,1,1.986,2.7,115.284,115.284,0,0,1,41.082,51.974,2.284,2.284,0,0,0,.731-1.139h.412a18.283,18.283,0,0,1-.4,3.095,115.216,115.216,0,0,1-23.316,118.76,1.326,1.326,0,0,0-.026.8,1.462,1.462,0,0,1-.7-.022A114.98,114.98,0,0,1,614.1,292.8c-.008.091-.02.167-.02.266a1.1,1.1,0,0,0-.2-.113c-.184.127-.37.26-.566.387-.05.593-.016,1.462-.869,1.375.218.736.987,3.23-.408,2.067.428.383.124,1.522,1.227,1.24-.462.593-.444,1.008.412,1.236-.234.936-.646-.5-1.231.415.819.845.1,1.1-.408,1.653-.072,1.171,2.676-.5,2.044,1.236a3.442,3.442,0,0,0-2.454.413.853.853,0,0,1,.26,1.055c2.864-1.7,5.627-3.541,8.331-5.462-.068-1.067.46-1.546,1.639-1.375a1.281,1.281,0,0,0-.318.429c1.259-.921,2.5-1.851,3.729-2.815-.042-.054-.03-.05.012-.014q1.568-1.234,3.087-2.516a.537.537,0,0,0-.378-.448c.076-.486.749-.351,1.235-.417a1.2,1.2,0,0,0-.006.165c.2-.173.408-.331.614-.5.312-.349.623-.708.933-1.059a1.232,1.232,0,0,1-.314-.26,4.1,4.1,0,0,0-2.462,1.24c-1.233-1.528,1.181-.438,1.235-1.653h1.639a5.416,5.416,0,0,1,2.236-1.968c.074-.085.15-.167.218-.254v-1.9a1.475,1.475,0,0,1,.7,1.1c2.418-2.795,4.862-5.615,7.52-8.366,2.618-2.7,5.165-5.373,7.593-8.083a123.04,123.04,0,0,0,22.756-62.693c-.038,0-.072.008-.1-.008-.112-.119-.018-.258.118-.347.1-1.4.186-2.795.236-4.2,0-1.393-.016-2.78-.082-4.111A4.19,4.19,0,0,1,672.232,197.1ZM431.8,221.692c-.208-.22.3-.53.412-.417C432.427,221.486,431.92,221.8,431.8,221.692Zm.412-52.041c-.276-.55.278-.919.4-.405.04.113-.042.3,0,.405C432.935,170.286,432.369,169.966,432.216,169.651Zm1.641,49.976c.36-.256.725-.5.813,0A.411.411,0,0,1,433.856,219.627Zm172.851,77.984c.214.218-.29.528-.408.415C606.084,297.813,606.593,297.5,606.707,297.611Zm-1.231,3.3c-.078.47-.406.234-.406,0C605.149,300.448,605.486,300.686,605.476,300.914Zm0,.829c-.006.4-.5.323-.813.409C604.677,301.755,605.169,301.835,605.476,301.743Zm-7.771,7.023c.21.21-.3.524-.412.411C597.088,308.963,597.589,308.648,597.705,308.765Zm-13.095,4.123c-.016.409-.5.327-.817.413C583.8,312.907,584.291,312.983,584.611,312.889Zm-11.462,4.133c-.078.468-.414.228-.408,0C572.819,316.554,573.148,316.792,573.148,317.022Zm-15.964-.411c-.006.4-.5.319-.819.411C556.379,316.619,556.869,316.7,557.184,316.611Zm-.819,1.234c.21.22-.292.53-.406.417C555.746,318.048,556.255,317.736,556.365,317.845Zm-6.542.417c-.008.4-.508.323-.819.411C549.012,318.27,549.5,318.357,549.823,318.262ZM549,315.369c-1.073.119-1.762-.149-1.639-1.238C548.434,314.014,549.409,313.992,549,315.369Zm-2.46-.415c1.375-1-.985,1.389,0,0Zm-19.227-2.889c.2.218-.3.534-.422.413C526.693,312.268,527.195,311.953,527.316,312.064Zm-25.789-8.672a.413.413,0,0,1-.817,0C500.894,302.793,501.071,303.436,501.527,303.392Zm-39.03-29.67c.216.214-.292.524-.408.415C461.874,273.922,462.391,273.605,462.5,273.722Zm-6.135-3.3c-.783.585-.743,2.006-1.237,2.893C453.283,273.039,455.1,270.214,456.362,270.417ZM442.041,240.27c-1.375,1,.985-1.383,0,0Zm-5.325-26.843c-.082.474-.414.236-.4,0C436.38,212.963,436.716,213.2,436.716,213.427Zm-1.225,2.482c-1.021-.06-.124-1.4,0-1.655C436.514,214.318,435.611,215.651,435.491,215.909Zm1.225-45.84c-1.249,1.127,1.115-1.258,0,0Zm3.279-11.148c-.218-.212.292-.526.406-.415C440.608,158.717,440.109,159.031,439.995,158.92Zm.815-8.676c-1.371,1,.987-1.383,0,0Zm0-1.238c.422-.345.737.371.817.417C443.2,150.345,440.53,149.236,440.81,149.006Zm1.231-5.779c.072-.468.4-.23.4,0C442.369,143.7,442.039,143.455,442.041,143.227Zm.4,6.605c-.208-.21.3-.526.412-.409C443.066,149.635,442.557,149.948,442.443,149.833Zm3.691-10.321c-.07.468-.408.226-.408,0C445.8,139.044,446.133,139.279,446.133,139.511Zm0,.825c.208.212-.3.526-.408.413C445.51,140.534,446.017,140.223,446.133,140.336Zm-1.647.825c.018-.4.51-.317.821-.411C445.3,141.153,444.819,141.072,444.487,141.161Zm1.647,2.48c-1.776-.171.426-2.4,0,0Zm0-5.367c.072-.472.4-.234.4,0C446.463,138.739,446.133,138.5,446.133,138.273Zm1.225-.413c.078-.472.408-.23.408,0C447.69,138.328,447.358,138.086,447.358,137.86Zm1.633,4.129c-.21-.214.3-.53.41-.413C449.622,141.788,449.107,142.1,448.991,141.989Zm.41-4.129c-.21-.216.3-.53.416-.417C450.022,137.656,449.514,137.969,449.4,137.86Zm.819,3.716c-.721-.3-.056-.754,0-1.24C450.953,140.634,450.282,141.086,450.22,141.576Zm0-2.891c-.208-.212.3-.526.416-.411C450.839,138.485,450.336,138.8,450.22,138.685Zm.819,1.236c.02-.4.5-.315.823-.409C451.846,139.913,451.353,139.828,451.039,139.921Zm2.048-15.275c.945-.127.456,1.19,1.231,1.238C454.194,126.666,451.9,125.325,453.087,124.645Zm5.729,2.891c.01-.407.5-.325.821-.415C459.622,127.52,459.138,127.444,458.816,127.537Zm2.865-9.5c.2-1.169,2.14-.595,1.641-2.476C464.437,116.451,463.239,118.479,461.682,118.034Zm2.046,4.129a.415.415,0,0,1,.819,0C464.361,122.764,464.188,122.125,463.728,122.163Zm2.863-10.321c.627.589.4,2.149-.815,2.067.07-.337.408-.413.408-.829-.186-.365-.364-.74-.821-.823.078-.474.414-.23.414,0,1.189-.361.46-.621.408-1.655h1.225A1.123,1.123,0,0,1,466.592,111.842Zm20.87-16.1c-.208-.212.3-.53.408-.415C488.085,95.538,487.575,95.85,487.461,95.738ZM612.44,303.392c-.212-.212.3-.526.411-.411C613.06,303.194,612.554,303.511,612.44,303.392Zm8.59-12.8c-.014.4-.5.317-.815.409C620.229,290.6,620.715,290.687,621.031,290.595Zm-6.954,9.91c-.348-1.319.641-1.274.821-2.069C616.337,298.67,615.1,300.382,614.077,300.5Zm2.452-3.718c-.21-.214.3-.53.41-.413C617.15,296.589,616.645,296.9,616.529,296.787Zm.41.825c-.21-.214.3-.524.416-.413C617.566,297.412,617.056,297.726,616.938,297.611Zm.821,2.067c-.649-.147.356-.73-.406-.827.1-.448.809-.282.815-.825.478.067.348.748.414,1.236C618.105,299.194,617.848,299.359,617.76,299.678Zm2.456-6.607v.825c.086.528,1.223.544,1.225,0,.487.254-.352,2.645-1.639,2.478-.531-.544-.536-1.534.414-1.653-.23-.841-1.231-.808-.414-1.649a2.3,2.3,0,0,1,1.639-.415C622.745,293.008,620.715,293.2,620.216,293.071Zm2.046.417a.413.413,0,0,1,.819,0C622.717,293.738,622.348,293.982,622.262,293.488Zm.416-6.614c-.222-.212.286-.528.4-.407C623.293,286.677,622.785,286.99,622.677,286.874ZM624.31,291a.422.422,0,0,1,0,.831c.266.415.939.426.809,1.236C623.908,293.155,623.682,291.6,624.31,291Zm.809-4.952c-.2-.212.308-.526.414-.419C625.751,285.848,625.241,286.165,625.119,286.052Zm.414,7.436c-.206-.222.3-.534.416-.417C626.156,293.282,625.649,293.6,625.533,293.488Zm1.64-10.329c-.21-.212.292-.524.408-.413C627.795,282.959,627.281,283.269,627.173,283.158Zm4.5-4.541c.21.216-.3.526-.414.411C631.054,278.817,631.56,278.5,631.675,278.618Zm-2.456,4.956c.212.214-.292.528-.409.411C628.6,283.771,629.106,283.459,629.219,283.574Zm-.819,5.367c-.126-1.095.855-1.063,1.637-1.238C630.159,288.79,629.469,289.056,628.4,288.941Zm1.637-1.651H628.4c.5-1.123,1.579-1.032.819-2.48,1.535.278,2.4-1.141,2.456.823C630.327,284.955,630.109,285.727,630.037,287.29Zm-.818-6.2c.056-1.181,1.707-.752,2.868-.823A1.563,1.563,0,0,1,629.219,281.094Zm3.271,0c.064-.484.753-.349,1.225-.415C633.652,281.16,632.974,281.029,632.491,281.094Zm-.4-1.238c.038-.78,1.349-.286,1.225-1.238C634.423,278.985,633.116,280.293,632.087,279.856Zm8.035-6.134c.208.214-.294.524-.408.415C639.5,273.922,640.008,273.605,640.122,273.722Zm-5.583,7.372c.066-.484.745-.349,1.229-.415C635.692,281.16,635.025,281.029,634.539,281.094Zm.821-.823c-.214-.214.294-.53.408-.415C635.978,280.072,635.468,280.382,635.36,280.271Zm2.048,1.234c-.216-.212.288-.524.4-.411C638.03,281.308,637.51,281.624,637.409,281.505Zm2.04-2.887a2.7,2.7,0,0,0,.412-2.067c.38-.442,1.509-.129,1.227-1.236C642.132,276.394,640.875,278.654,639.449,278.618Zm1.639-8.259c-.212-.214.3-.528.406-.417C641.711,270.161,641.2,270.468,641.087,270.359Zm1.231,2.887a.41.41,0,0,1,.811,0C642.768,273.5,642.4,273.748,642.318,273.246Zm.409,3.3c-.342-.427.354-.744.4-.825C644.039,274.136,642.952,276.835,642.728,276.551Zm.811-1.651c-.208-.216.3-.524.414-.411C644.165,274.7,643.657,275.017,643.539,274.9Zm2.05-4.541c-.214-.214.3-.528.41-.417C646.207,270.161,645.7,270.468,645.589,270.359Zm-.408-5.783c1.307-.351,1.267.649,2.042.827C646.738,266.494,644.718,266.526,645.182,264.576Zm5.311-11.148c-.855-.127.434-1.44,1.233-1.244C651.856,253.14,650.551,252.646,650.493,253.428Zm4.1-5.365c1.251-1.133-1.117,1.25,0,0Zm0,7.845a.415.415,0,0,1,.821,0C655.055,256.158,654.681,256.4,654.59,255.908Zm4.506-3.724c-.9,1.266-2.618-.47,0,0Zm1.227-2.478c-.21-.212.3-.526.414-.407C660.946,249.508,660.436,249.823,660.323,249.706Zm4.91-26.014c.082-.466.412-.226.41,0C665.562,224.164,665.232,223.924,665.232,223.692Zm0-33.862c.018-.4.5-.319.819-.413C666.04,189.818,665.548,189.737,665.232,189.83Zm1.235-10.323c1.365-1-1,1.385,0,0Zm0,5.365c-.216-.214.286-.528.4-.409C667.079,184.676,666.573,184.987,666.467,184.872Zm.4-3.714c-.206-.212.3-.526.409-.413C667.492,180.956,666.981,181.275,666.865,181.158Zm.409-3.3c1.379-1-.985,1.387,0,0Zm3.693,12.8c-.218-.21.294-.522.4-.409C671.577,190.457,671.079,190.772,670.967,190.653ZM441.216,160.574c.114.109.624-.206.412-.415C441.509,160.045,441.008,160.358,441.216,160.574Zm-4.092-4.547a4.8,4.8,0,0,0,3.277-1.236c-.707-.236-2.779-1.421-1.637,0h-1.227a.9.9,0,0,0-.51-1.617c-.106.254-.2.506-.3.758C436.955,154.859,437.883,155.265,437.123,156.027ZM611.379,294.619c-.354.228-.7.448-1.055.671a2.7,2.7,0,0,0,1.709.256A5.662,5.662,0,0,0,611.379,294.619ZM433.4,162.943c-.014.044-.03.091-.046.135a.317.317,0,0,1,.084-.028A.33.33,0,0,0,433.4,162.943Zm223.235-6.565c-.058-.054-.2,0-.312.083a3.261,3.261,0,0,0,.11.315C656.606,156.7,656.78,156.525,656.638,156.378ZM612.033,298.027c-.114-.117-.622.2-.41.409C611.733,298.555,612.24,298.238,612.033,298.027ZM443.4,158.765c.16-.45.318-.9.476-1.345-.2.087-.414.171-.614.26A1.329,1.329,0,0,0,443.4,158.765ZM561.689,312.477a1.312,1.312,0,0,1,.208-.417c-.216.02-.42.034-.622.054C561.4,312.332,561.533,312.5,561.689,312.477ZM442.011,162.836c.178-.563.35-1.129.538-1.688A1.635,1.635,0,0,0,442.011,162.836Z" transform="translate(-424.915 -59.751)"/><path class="a" d="M610.551,126.758c-.106.215-.458.188-.709.258.009-.324.363-.308.646-.359a95.75,95.75,0,0,0-17.034-19.332c-.428.414-.759.923-1.5,1.025a4.4,4.4,0,0,1,1.092-1.377q-3.471-2.974-7.224-5.612a.26.26,0,0,1,.041.129c-.07.428-.376.21-.376,0,.032-.192.109-.242.186-.235a94.844,94.844,0,0,0-16.241-9.14,3.37,3.37,0,0,0,1.974,1.371c-1.355,1.443.44,1.448,0,3.811-2.219-.654-1.9,2.676-3.42,1.524-1.3.6-1.119,2.7-3.045,2.669.528-1.248,1.819-1.733,2.28-3.049,1.452.312,1.473-.812,1.9-1.525h1.525c.3-1.436-.467-1.823-.381-3.047-1.165-.611-1.529-2.024-3.045-2.285a1.727,1.727,0,0,1,.025-.4c-1.074-.439-2.146-.878-3.238-1.278a.16.16,0,0,1-.111-.039q-4.373-1.6-8.94-2.777a1.534,1.534,0,0,0,.091.3,2.688,2.688,0,0,0-1.521,2.284c-.669-.857.25-1.637.682-2.757a95.057,95.057,0,0,0-113.207,62.485c.048-.016.095-.036.145-.052a15.81,15.81,0,0,1,2.4.556c.063.615.532.817.367,1.663h-1.112a2.386,2.386,0,0,1-.73,2.219,12.5,12.5,0,0,0-2.4-.018,95.243,95.243,0,0,0,91.6,120.816c2.746,0,5.454-.143,8.138-.371a3.724,3.724,0,0,1-.164-.359c1.641-1.2,2.538.025,3.882-.186.621-.678-.145-1.775-.154-2.64,2.022-.972,3.388.213,4.822,1.2a4.522,4.522,0,0,1,.175.864,95.264,95.264,0,0,0,62.575-146.338ZM445.4,157.675c-.614-.065-.29-1.065-.37-1.662-.156-.771-.739-1.11-.92-1.85.272-.217.752-.231.92-.556C446.1,154.115,445.456,156.568,445.4,157.675Zm4.262-11.987c-.2-.2.277-.486.381-.382C450.242,145.508,449.764,145.793,449.662,145.689Zm7.6,29.9a1.614,1.614,0,0,1-.2-1.565c.657-.312,1.441.649,1.355,1.375C457.923,175.83,457.627,175.584,457.262,175.592Zm2.932-1.565-.174-.324.328-.174.177.324Zm2.107,1.6c-.209-.2-.456-.281-.675-.479-.245-.62-.285-1.181.211-1.576.233.276.617.047.759.642.276.445.882-.212,1.085.47C462.739,174.806,463.212,175.224,462.3,175.626Zm1.572,3.352c-.4.276-.653.057-.834-.393.4-.274.732-.315.913.14C463.8,178.77,463.834,178.874,463.872,178.978Zm150.155-31.763c-.073.432-.381.212-.381,0C613.715,146.78,614.027,147,614.027,147.214Zm-1.525-7.62c-.873.115-.419-1.1-1.14-1.142C611.475,137.728,613.612,138.967,612.5,139.594Zm-4.186,6.858c-.224.039-.476-.536-.376-.764C608.514,144.341,608.655,146.391,608.315,146.452Zm-.376-21.34c-.014.371-.471.3-.764.384C607.186,125.125,607.646,125.2,607.939,125.112Zm-.764-1.9c.2.2-.276.488-.38.38C606.6,123.393,607.071,123.1,607.175,123.209Zm-7.229,28.2c-.582-.545-.371-1.984.762-1.907-.073.31-.381.382-.381.765.17.337.333.685.761.762-.075.43-.38.21-.38,0-1.108.332-.428.566-.381,1.525h-1.142A1.044,1.044,0,0,1,599.946,151.405Zm1.283,22.342c-.055.21-.39.333-.313.588-.5.47-.569-.522-.852-.8.335-.262-.451-.869-.186-1.151a1.261,1.261,0,0,1,.974-.52C601.577,172.338,600.732,172.944,601.229,173.747Zm-2.114,1.131a5.9,5.9,0,0,0,1.692,1.61c.292.726-.374,1.167-.283,1.828-1.23,0-2.074-1.253-2.88-2.653C597.82,175.156,598.663,174.961,599.115,174.878Zm-2.59-34.144c-.073.436-.385.212-.385,0C596.212,140.306,596.526,140.525,596.526,140.734Zm-6.087-33.907c.8.308,1.042,2,.378,2.667C589.771,108.67,591.2,107.741,590.438,106.827Zm-.387-1.525c.985-1.316.92,1.957,0,0Zm-1.9,5.335a2.154,2.154,0,0,0,.383-1.524c-.011-.373-.467-.3-.761-.385.114-.513.952-.312,1.523-.376C589.311,109.505,589.518,110.855,588.151,110.636Zm-.759,26.289c1.609.039.007.717-.381,0-1.348.129-.936,1.05-2.284.378-.36-.708,1.14-1.271,0-1.52.387-1.18.626.826,1.14.76.22-1.176,1.6-1.192,1.525-2.665h1.142c-.494-.946.852-1.852,0-1.9,1.308-1.54.258,1.87.763,1.525a4.1,4.1,0,0,1-2.286,1.9C586.964,136.083,587.476,136.206,587.392,136.925Zm0-29.342c1.154-1.4,1.285,1.16,0,0Zm0-2.665c-.168.552-.333-.036-.759,0A.384.384,0,0,1,587.392,104.918Zm.381,5.335c-.218,1.382-2.669,1.531-2.66,0C585.829,111.009,586.907,110.441,587.773,110.252Zm-1.527,1.907c-.007.366-.462.3-.755.382C585.5,112.171,585.956,112.244,586.246,112.16Zm-1.133-7.62c.191.2-.281.486-.387.378C584.534,104.721,585.008,104.432,585.113,104.54Zm-.764,1.52c.2.2-.272.489-.385.38C583.771,106.246,584.245,105.958,584.349,106.06Zm0,1.907c1.691-.057.224,1.547,0,1.905C583.232,109.548,584.573,108.648,584.349,107.967Zm.378,2.285v.764h-.763v-.764Zm-1.52-8.382c-.077.434-.379.21-.379,0C582.9,101.442,583.207,101.657,583.207,101.871Zm0,5.713c1.16-1.038-1.04,1.162,0,0Zm1.142,20.956c1.242-.9-.354-2.155-.385-3.044,1.384-.369.322,1.71,1.527,1.52-.737,1.224.723,2.671-1.527,2.669.03.981,1.774.547.763,1.525,1.058-.065,1.308.584.764,1.14.895-.556.7-.8,1.9-.376-.057,1.486-2.123.69-1.146,2.285-1.441-.183-2.372.16-2.66,1.14-.657-1.459.075-2.881,1.14-4.189-1.226.342-.53-1.246-1.14-1.525-2.06-.71-2.926.909-4.183-.384.558-.6,2.565-1.239.378-1.518.757-1.1,1.826.681,2.284,1.14C582.658,127.835,582.814,128.692,584.349,128.54Zm-8.369,3.053a4.022,4.022,0,0,1,1.9-1.907,1.421,1.421,0,0,1,0-1.9,6.011,6.011,0,0,1,1.9,4.191c-.442-.066-.678.084-.755.376-.832.074-1.217-.308-1.147-1.14-.514.117-.315.952-.378,1.522-.451-1.4-2.083-.163-2.669-.758C574.9,131.528,575.531,131.652,575.98,131.592Zm-.761-6.48c-.064-.03-1.077-.127-.764-.382C574.84,124.426,576.3,125.656,575.219,125.112Zm6.086,8.765c-.054-1.45-.039-2.38-.381-2.667.136-.532.669-.032.764.382.8-.108-.553-1.018.378-1.524.34.233.68.461.763,0,.358,1.258-1.063,4-1.523,5.715h-1.523C579.81,134.665,580.648,134.367,581.3,133.878Zm.383-9.147c-.047.955-.73,1.2.378,1.529-1.387,1.669-1.616-2.4-3.039-.764-1.18-.385,1.086-.362.755-1.147C580.7,124.2,580.61,125.046,581.688,124.731Zm-1.144-3.427c-.075.436-.381.21-.381,0C580.236,120.871,580.544,121.092,580.544,121.3Zm-.763-1.14a.382.382,0,0,1-.755,0C579.194,119.608,579.359,120.2,579.781,120.163Zm1.523,2.664c.247,1.766-2.083.964-3.426,1.145-.44.185.449,1.99-1.521,1.524-.158-.8.263-1.011.378-1.524a1.043,1.043,0,0,0-1.138-.764c1.149-1.117-.78-.834-.378-2.287a8.576,8.576,0,0,0,3.42.76C578.471,123.963,579.613,122.565,581.3,122.827Zm-6.086-5.331c.845.158.294,2.018,0,2.282C574.065,119.307,575.624,118.469,575.219,117.5Zm0,5.713c-.168.566-.489-.151-1.14,0-.052-.683.464-.8.376-1.527C575.489,121.411,574.185,123.481,575.219,123.209Zm-1.14-5.336c-.013.371-.469.294-.762.384C573.327,117.883,573.782,117.957,574.079,117.872Zm-4.186,4.191c-.449-.057-.322-.692-.381-1.142.646-.136.716.3.759.76C569.946,121.615,569.909,121.832,569.893,122.063Zm.378,2.667c-.831,1.167-2.434-.441,0,0Zm-1.144-5.711c.014-.375.471-.3.766-.382C569.878,119.009,569.427,118.934,569.127,119.02Zm1.525-.382c.193.194-.279.484-.381.382C570.073,118.821,570.548,118.529,570.651,118.638Zm.759-1.525c-.059-.03-1.072-.129-.759-.382C571.033,116.424,572.5,117.654,571.41,117.112Zm.385,4.191c-.014.371-.464.294-.764.378C571.045,121.312,571.5,121.389,571.8,121.3Zm-.764,3.427c.938.3,2.633-1.38,2.663.382-.94-.493-1.845.851-1.9,0-.917-.147.209,1.737-1.144,1.147A2.137,2.137,0,0,0,571.031,124.731Zm1.9-3.427a1.675,1.675,0,0,1,.759,1.524C573.028,122.737,572.826,122.173,572.935,121.3Zm-1.525-9.144c.592-.427.795-1.239,1.906-1.144-.983,1.3-.426,4.151-1.144,5.715a22.138,22.138,0,0,1-2.662-1.144c.3-1.559,1.564.2,2.284-.76.721-1.278-1.867-1.395,0-1.525-.188-1.21-3.431.636-3.048-1.142C569.95,112.68,570.02,112.242,571.41,112.16Zm-1.14-.384c-1.462-1.038.455-2.138-.378-3.809C571.865,108.614,570.481,110.36,570.27,111.776Zm-1.144-5.716c1.144-.38.678.853.766,1.524C569.223,107.5,569.023,106.931,569.127,106.06Zm-.757,4.956v-1.144C569.477,109.313,569.477,111.574,568.369,111.016Zm.378-2.289c.2.2-.269.488-.378.385C568.171,108.915,568.643,108.625,568.747,108.727Zm0,4.956c.2.2-.269.486-.378.378C568.171,113.866,568.643,113.578,568.747,113.683Zm-.378,2.285c-.392.315-.687-.339-.761-.382C566.139,114.739,568.629,115.754,568.369,115.969Zm-1.9,1.9c-.614.111-.653-.359-1.142-.376-.14.645.3.715.764.76-.376,1.167-1.015-.437-1.521-.384.111-.774,1.027-.746,1.144-1.52,1.162-.28,1.113.656,2.28.378C568.113,117.738,565.856,116.378,566.465,117.872Zm-.755-4.571c-.4-.247-.4-.875-1.144-.76.277-.86,2.132-.149,3.043-.382C568.194,113.764,565.64,112.221,565.71,113.3Zm.755,2.285c-.2-.2.279-.488.383-.382C567.041,115.4,566.576,115.695,566.465,115.587Zm-1.9-14.48c-1.158,1.413-1.28-1.154,0,0Zm0-2.665c.2.2-.277.486-.381.38C563.986,98.626,564.455,98.336,564.566,98.442Zm.757,22.1c-.011.371-.467.3-.757.382C564.573,120.552,565.029,120.624,565.323,120.54Zm1.525-14.86c1.106-.559,1.106,1.7,0,1.147Zm.761,3.047a.385.385,0,0,1-.761,0C567.013,108.175,567.177,108.768,567.609,108.727Zm-1.144.767c.648-.142.721.292.761.758.324.072.363-.145.383-.38.32-.07.358.147.381.38v.764c-1.074.314-.986-.538-1.9-.38A1.84,1.84,0,0,0,566.465,109.494Zm-.378-1.911c-.075.432-.378.215-.378,0C565.776,107.153,566.087,107.374,566.087,107.583Zm-.378.767c-.168,1.052-1.2.016-.764-.767C565.357,107.682,565.2,108.343,565.71,108.351Zm-3.046-17.913c.675.283.054.7,0,1.145C561.985,91.3,562.606,90.888,562.663,90.438Zm-.761.765c-.491.652-.793,1.5-1.906,1.524C559.943,91.526,560.97,91.417,561.9,91.2Zm-3.424,8c.371.009.292.462.378.76,1.025-.45,0-1.984,0-2.667.675-.344,1.113-.923,1.9-1.142-1.085-.07-2.16-.719-2.282-2.669,3.046.194,4.559-1.192,6.467-1.144.048,2.128,2.16.685,3.045.384.875.875-.181,1.753-.764,2.287a1.063,1.063,0,0,1-.761-1.145c-2.814-.151-3.741,1.585-5.7,2.287.516.631-.308,2.223,0,3.809-.514.756-2.656-.118-2.662,1.142C556.751,100.453,559.195,100.489,558.479,99.205Zm3.8,4.571c.5.133.6.67,1.14.764C563.268,105.484,561.946,104.561,562.28,103.776Zm0,8c1.654.161-.4,2.217,0,0Zm.383-11.051c.442.065.317.694.38,1.145H561.9C562.041,101.372,562.574,101.274,562.663,100.725Zm.38-1.144c.2.2-.272.493-.38.384C562.463,99.77,562.935,99.478,563.043,99.582Zm-2.282,6.478c-.338.237-.68.461-.764,0A.388.388,0,0,1,560.761,106.06Zm0-4.569c-2.354,1.4-1.964-.8,0,0Zm0,9.145c-.077.43-.385.21-.385,0C560.453,110.2,560.761,110.425,560.761,110.636Zm0,8.384c.85-1.473-.175,1.025-.385.758C560.063,119.385,560.72,119.088,560.761,119.02ZM558.1,90.438c.192.2-.276.489-.385.382C557.523,90.626,557.988,90.334,558.1,90.438Zm0,12.958c.192.2-.276.486-.385.38C557.523,103.579,557.988,103.29,558.1,103.4Zm0,3.431c-.014.371-.472.294-.761.378C557.342,106.834,557.8,106.913,558.1,106.827Zm-.761-4.2c.2.2-.279.486-.383.384C556.76,102.819,557.228,102.529,557.339,102.631Zm-2.286,4.2c1.158-1.038-1.038,1.154,0,0Zm-1.521-10.671c.522-1.214.374,1.343.378,1.905C553.381,99.272,553.533,96.717,553.531,96.156Zm.378,3.049c.2.2-.272.486-.378.376C553.329,99.386,553.8,99.1,553.909,99.205Zm0,.76c.2.2-.272.488-.378.382C553.329,100.152,553.8,99.861,553.909,99.965Zm-1.518-10.287c.886.1.213,1.672,0,1.905-.292,1.662.471,3.529,0,4.189C551.609,94.464,551.969,91.049,552.391,89.678Zm-7.61,9.144c.193.2-.276.486-.383.384C544.2,99,544.673,98.719,544.781,98.822Zm-1.142,1.144c-.408.357-.12,1.407-1.144,1.142C542.429,100.279,542.807,99.9,543.639,99.965Zm-55.6,10.015c1.648.082.168,2.427,1.3,2.769.041.609-.72.4-.743.93-.131.561.186.672.184,1.108.018.821-.957.642-1.11,1.294a9.753,9.753,0,0,1-1.475-2.034C486.383,112.271,487.377,111.289,488.039,109.98Zm-4.246,10.909c.582.09.721-.4,1.108,0-.356,1.124.315,3.271-1.108,3.327A13.517,13.517,0,0,1,483.793,120.889Zm-1.48,6.283a1.477,1.477,0,0,1,2.218,0c-.147.841-.68,1.291-.92,2.033a3.542,3.542,0,0,1,.183,2.59,1.411,1.411,0,0,1-1.659-.188A15.069,15.069,0,0,0,482.313,127.172Zm-2.577,10.719c.635.289,1.937-.093,2.026.742-.748.366-2.413.251-2.583-.552A.867.867,0,0,1,479.736,137.891ZM467.182,164.7c.7-.459,1.947.765,1.29,1.663-.94.022-1.251-.6-1.478-1.3C466.963,164.854,467.04,164.74,467.182,164.7Zm-.558-7.763c.329.043.422.317.37.739h-.548C466.365,157.286,466.571,157.184,466.623,156.937Zm-2.615,11.286a1.247,1.247,0,0,1,.285-.1h.861a2.556,2.556,0,0,1,.766.545c.127.174.12.308.011.412C465.528,169.818,463.856,169.327,464.008,168.223Zm.46,11.481c.421-.97,2.033-.475,1.5.461C465.281,180.645,464.778,180.491,464.468,179.7Zm.834,19.252c.487-.676,2.012-1.361,2.54-.731a.867.867,0,0,1-.4.427C466.743,198.7,465.771,199.651,465.3,198.955Zm2.937,11.417a13.188,13.188,0,0,1-.14-2.226,3.586,3.586,0,0,1-1.38-2.2c.363-.482,1.058-.866,1.554-.62a15.169,15.169,0,0,0,1.922,4C470.142,210.218,469,210.619,468.239,210.372Zm2.042,2.264a13.416,13.416,0,0,1,1.555,2.936c-.546.192-.444.694-.97.522C470.645,214.934,469.054,213.353,470.282,212.636Zm2.939,14.561c-1.5.7-1.294-2.061-2.447-1.839-.322-.509.453-.683.222-1.163-.147-.559-.485-.505-.689-.891-.4-.717.548-1.018.374-1.665a9.605,9.605,0,0,1,2.259,1.1C473.6,224.4,473.183,225.73,473.221,227.2Zm40.742,22.225a.385.385,0,0,1,.761,0C514.557,249.977,514.389,249.384,513.963,249.422Zm.761,1.525c.2-.586.4-.023.378.38C514.9,251.915,514.711,251.354,514.724,250.947ZM518.144,270c.079-.432.388-.21.387,0C518.454,270.432,518.144,270.211,518.144,270Zm.567-8.005c-.064-.206.116-.181.163-.091C518.944,262.1,518.762,262.081,518.712,261.991Zm3.821,7.175c.147-.041.249.077.415-.013l.17.328C522.81,269.744,522.683,269.412,522.533,269.166Zm.338-2.9c.417.443.013.638.109.988C522.406,267.483,522.123,266.415,522.871,266.264Zm11.9,3.492.34.654C534.605,270.728,534.067,269.987,534.774,269.756Zm.388,2.307c-.132-.039,0-.272.073-.251C535.364,271.852,535.228,272.085,535.162,272.063Zm-1.018-7.417c.668-.873,1.718-.283,2.248.686C536.252,266.858,534.64,265.9,534.144,264.646Zm2.8,9.19a.738.738,0,0,1,.218-1.167c.082.16.261.023.41-.009l.346.654A.9.9,0,0,1,536.941,273.836Zm.609-24.414c.073-.43.388-.21.378,0C537.858,249.854,537.548,249.633,537.55,249.422ZM551.5,259.15a1.223,1.223,0,0,1,.9-.272c.181.285-.014.45.186.74C552.055,260.039,551.772,259.618,551.5,259.15Zm2.03,7.8c0-.373.467-.3.764-.382C554.281,266.94,553.821,266.865,553.531,266.951Zm46.717-70.683c-.238-.393-.453-.776-.109-.989.467-.346.705.07.924.556Zm1.315-9.708c-.474.348-.668-.21-1.078-.054-.582.776.238,1.038.705,1.715-.063,1.045-.109,3.28-1.749,2.61-.834-1.8-1.049-3.417-1.7-5.166a10.347,10.347,0,0,1-2.681-4.644c-.048-.054-.1-.115-.145-.17a63.731,63.731,0,0,1-3.082,18.225c.134.068.267.133.4.213.208,1.018-.643,1.715-.174,2.818-1.475.778-1.269,2.07-2.4,2.954l-.09-.039a63.806,63.806,0,0,1-44.013,36.472,4.887,4.887,0,0,0-.005,1.353c-.5.3-.514.755-1.131,1.022-.764-.332-1.8.255-2.255-1.1a1.146,1.146,0,0,0,.861-.747,63.759,63.759,0,0,1-70.9-86.278.575.575,0,0,1,.217-.842c.043-.005.073,0,.113,0a63.65,63.65,0,0,1,91.974-30,.969.969,0,0,1,.134-.927c1.247.016.907,1.628,2.282,1.524a1.139,1.139,0,0,1-1.047.281c.268.176.542.342.811.522.093-.054.2-.084.236-.039a.142.142,0,0,1,.005.2c1.294.875,2.543,1.809,3.768,2.775.426-.124.993.679,1.174.839-.009.029-.022.036-.029.061.5.412.977.844,1.464,1.271a1.037,1.037,0,0,0,.086-.57c1.214.332,1.19-.588,1.516-1.145.745-.151.559,1.733-.378,1.145a2.746,2.746,0,0,1-.156,1.513c1,.92,1.962,1.877,2.9,2.857-.4-.5.238-1.663,1.06-1.323-.2.563-.567.959-.761,1.522a.561.561,0,0,1-.233-.127,64.054,64.054,0,0,1,4.38,5.089l.039-.007c0,.018-.012.022-.014.036a63.527,63.527,0,0,1,12.279,27.736h2.5c.082.321.156.64.2.945.251.357.582.475.768,1.059l-.974.518c-.385-.437.018-.631-.362-1.065-.324-.292-.786-.1-1.16-.22a1.689,1.689,0,0,0-.306,1c.22.622.643.575,1.013.717.417.448-.423.509-.143.916a15.106,15.106,0,0,1,1.876,2.346c-.322.495-1.174.826-1.618,1.285a20.468,20.468,0,0,1,.99,3.033c.281.563.8.351,1.244.38a9.946,9.946,0,0,1,1.87,1.936,3.281,3.281,0,0,0,.161,3.056,1.212,1.212,0,0,0-.73.6c.526.957,1.7-.206,2.479-.065C602.126,185.364,601.537,185.866,601.564,186.56Zm-.476-33.251c.92.346,1.006,1.533,1.142,2.667C601.346,155.594,601,154.666,601.088,153.309Zm.763-11.429c.17-.552.336.038.764,0C602.513,142.358,601.852,142.265,601.85,141.88Zm1.52,15.622c-.2-.2.277-.488.381-.384C603.948,157.32,603.472,157.611,603.37,157.5Zm-.378-9.524c-1.038-.826.072-2.7,1.52-2.289C604.326,146.771,602.52,146.239,602.992,147.978Zm1.52,1.52c.073-.432.379-.212.379,0C604.82,149.932,604.512,149.709,604.512,149.5Zm.763-25.909c2.225.507-1.378,1.8,0,0Zm1.142,13.715c.007-.366.464-.294.759-.378C607.166,137.3,606.71,137.221,606.416,137.3Zm.9,54.564c-.46-.414.039-.532-.027-.828a.508.508,0,0,1,.583.315A1.02,1.02,0,0,1,607.32,191.868Zm1-39.317c.1-.48.763-.389.763,0C608.74,152.785,608.4,153.009,608.315,152.551Zm.763-1.525h-1.525c-.054-.513.6-2.1.763-1.145.916.154-.208-1.733,1.14-1.138A3.2,3.2,0,0,1,609.078,151.025Zm.764-2.671c-.324-1.215.6-1.176.757-1.9C611.265,146.54,610.766,148.6,609.842,148.354Zm1.138-3.807h1.142c.1.613-.363.656-.378,1.142h-.764Zm.381,8a1.672,1.672,0,0,1,1.523-.765C612.539,152.448,612.035,153.257,611.362,152.551Zm2.284,14.1c-.2-.2.269-.486.381-.384C614.22,166.459,613.753,166.751,613.646,166.647Zm1.521-2.285c-.2-.2.274-.486.381-.384C615.74,164.173,615.273,164.464,615.167,164.361Zm.381-13.72c-.2-.194.27-.484.383-.378C616.126,150.462,615.65,150.749,615.548,150.642Zm4.181,13.336c-.823.064-.168-1.348-.378-1.9C620.723,161.709,620.026,163.718,619.729,163.978Zm.762-3.047a7.1,7.1,0,0,0-2.66,3.431c-1.911-.529.184-2.924,1.138-3.049a1.039,1.039,0,0,1,.759-1.145c-.238-.929-.766-1.959.762-1.905C620.134,158.584,619.677,160.694,620.492,160.931Zm2.665-3.429c-.2-.2.272-.488.379-.384C623.735,157.32,623.261,157.611,623.157,157.5Zm-28.3,18.341a.87.87,0,0,0,.406.047c.125-.423-.379-1.04-.521-1.543C594.781,174.844,594.827,175.341,594.856,175.843Zm-9.364-42.725h-1.142c-.3.082-.752.011-.762.382C584.143,133.286,585.556,133.941,585.491,133.118Zm9.207,40.647c.007.084.011.17.02.255a.41.41,0,0,1,.075-.186A1.165,1.165,0,0,1,594.7,173.765Z" transform="translate(-404.472 -41.994)"/><path class="d" d="M465.318,172.354a4.021,4.021,0,0,1-1.271-.438,3.847,3.847,0,0,1,.9,1.737C465.066,173.22,465.183,172.786,465.318,172.354Zm140.017,97.6c-.277,1.27.863,1.133,1.791,1.182a6.052,6.052,0,0,1-5.368,1.8c-.709-.787-.229-.938,0-1.8a20.742,20.742,0,0,1-3.92,1.144,88.344,88.344,0,0,1-15.9,8.108c-.257.24-.391.349-.151.06-.814.315-1.648.621-2.468.907a12.907,12.907,0,0,0-.814,2.924,20.99,20.99,0,0,1-3.574-1.2,1.882,1.882,0,0,1,.511-.461,88.2,88.2,0,0,1-25.332,3.717c-.4,0-.8-.017-1.194-.029-.311.189-.58.243-.731-.02a87.841,87.841,0,0,1-46.67-14.552h-.288l.069-.146A89.161,89.161,0,0,1,484.7,257.357a2.655,2.655,0,0,0-.291,1.23c-1.028.083-.651-1.245-.6-2.246a90.375,90.375,0,0,1-7.679-10.057,6.3,6.3,0,0,1,.38,3.35c-1.4-.589-.534-3.445-1.783-4.177a.489.489,0,0,1,.82-.086,88.623,88.623,0,0,1-8.156-16.185c-.671.521-1.643.738-1.757-.343a2.724,2.724,0,0,0,1.454-.423,88.454,88.454,0,0,1-5.485-30.711c0-2.915.154-5.8.426-8.641a4.512,4.512,0,0,0-3.054,2.283c-.257-1.133,1.343-2.263,1.694-3.382a3.842,3.842,0,0,0,1.451.206,89.38,89.38,0,0,1,2-11.436,5.868,5.868,0,0,1-.506.667,13.974,13.974,0,0,0-4.062-3.176c-.129.526-.249,1.07-.377,1.6a2.489,2.489,0,0,1,1.92.732,1.772,1.772,0,0,1-2.2.5,92.561,92.561,0,0,0-2.074,14.4,7.866,7.866,0,0,1,.894-.532,8.915,8.915,0,0,1-1.011,2.206c-.074,1.519-.12,3.041-.12,4.575a94.512,94.512,0,0,0,1.2,14.958,5.956,5.956,0,0,0,1.2-.206c.854-1.124.917-2.255,2.534-3.376a5.077,5.077,0,0,1-3.5,4.81c.177,1.047.354,2.094.574,3.13.646-.335,1.343-.618,1.663-.761.38.83-.543,1.2-1.486,1.514a93.31,93.31,0,0,0,15.424,34.559c.246-.289.866-.3,1.24-.592.357.853-.32.878-.886,1.084a84.2,84.2,0,0,0,10.493,11.836c.643-1.84-.094-2.787-.626-5.473,2.06.189.717,3.779,2.546,4.177-.586.466-.723,1.373-1.223,1.923.323.3.646.6.968.884,1.723-1.185,3.023,2.254,4.68,2.564.16.627-.046.91-.4,1.047,16.57,13.461,36.656,21.573,59.123,21.57A93.706,93.706,0,0,0,574.912,288a3.841,3.841,0,0,1-.591-.146c.808-2.552,4.079-2.415,5.379-2.981,1.843-.34,1.56-2.818,3.568-2.987.291,1.886-1.834,1.359-1.183,3.579-2.334-.452-3.1,2.217-4.777.6-.451.375-.594,1.053-.963,1.519a90.312,90.312,0,0,0,11.1-4.026c-.146-1.119.888-1.027,1.8-1.081a2.381,2.381,0,0,1-.266.395,93.673,93.673,0,0,0,20.381-12.735C608,270.137,606.455,270.81,605.335,269.949Zm-143.814-88.74c0,.438-.854.232-.854.006C460.672,180.771,461.521,180.977,461.521,181.209Zm-4.083,28.408c.111-.678.6-.329.6,0C457.913,210.3,457.438,209.948,457.438,209.617Zm-.131-11.516c.409-.395.831.192,1.254.432C458.138,198.922,457.721,198.332,457.307,198.1Zm2.948-6.323c-.563.389-.657-.2-.429-.432C460.39,190.948,460.49,191.534,460.255,191.778Zm-.429,23.215.42-.406c-.363-.189-.237-.956,1.36-1.385a2.643,2.643,0,0,1-.7,1.182l.611.609-.848.844Zm1.268,4.646c0-.435.843-.235.843.006C461.938,220.082,461.1,219.876,461.1,219.639Zm6.468,20.44c.129-.684.611-.335.6,0C468.049,240.751,467.563,240.408,467.563,240.079Zm0-8.958c.326-.918.634-.04.6.592C467.854,232.637,467.555,231.747,467.563,231.121Zm3.585,11.344c.117-.678.606-.326.606,0C471.626,243.14,471.148,242.8,471.148,242.465Zm23.938,26.874c.089-.675.6-.329.6,0C495.592,270.02,495.089,269.671,495.086,269.339Zm66.128,20.912c-.331-.309.423-.767.586-.6C562.108,289.965,561.374,290.414,561.214,290.251Zm-1.191-2.395c-1.143-.237,1.326-1.777,2.374-1.785C562.356,288.734,561.037,286.832,560.022,287.856Zm10.131,1.2c-.309-.309.428-.764.594-.592C571.064,288.766,570.316,289.221,570.153,289.055Zm-.6-1.791c-.169-1.565.22-2.566,1.8-2.389C570.393,285.307,571.49,287.8,569.553,287.264Zm18.492-5.974c-.046-.166.071-.443,0-.6-.454-.913.366-.449.6,0C589.034,281.5,588.248,282.031,588.045,281.29Zm5.368-1.794c-.314-.3.431-.761.589-.592C594.319,279.213,593.576,279.668,593.413,279.5Zm4.3-2.386c2.385.509-2.42-.243,0,0ZM550.106,104.062A88.684,88.684,0,0,0,494.872,123.4c.114.054.2.109.2.189,0,.315-.443.292-.68.172-.517.4-1.029.821-1.548,1.227a1.554,1.554,0,0,1-.723.718c0-.043-.017-.086-.017-.132-2.074,1.637-4.091,3.339-6.031,5.09,1.374.383,1.226,2.383-.406.366-1.074.987-2.137,1.988-3.185,3.018a1.4,1.4,0,0,0,.311-.186c.426.561-.414,1.084-.851,1.617a1.138,1.138,0,0,1-.443-.461c-.743.761-1.463,1.534-2.185,2.317.3.037.611.381.914.555-.383.329-.754-.074-1.12-.338a84.4,84.4,0,0,0-5.619,6.807c.177.392.083.767-.529,1.124-.043-.109-.086-.152-.126-.246-.34.475-.674.964-1,1.451a.971.971,0,0,1,.271.435l-1.28,1.222c-.031-.011-.04-.029-.069-.046-.929,1.442-1.826,2.918-2.677,4.432a.778.778,0,0,1,1.043.6l-1.283,1.267a.9.9,0,0,1-.528-.406c-1.1,2.106-2.14,4.252-3.094,6.446a2.823,2.823,0,0,1,1.1.712,4.964,4.964,0,0,1-1.54.335c-.451,1.073-.866,2.157-1.28,3.25.237-.117.717.04.717.22,0,.4-.728.249-.82.034-.683,1.88-1.32,3.785-1.891,5.719a14.81,14.81,0,0,1,3.548,1c.074-.744,1.034-1.35,2.1-2.149.6-1.783,1.234-3.545,1.934-5.276a1.574,1.574,0,0,0-1.071.246c-.437-.564.4-1.119.831-1.688l.583.578a89.906,89.906,0,0,1,7.859-14.72,12.99,12.99,0,0,0-2.06-2.152c.951-1.934,1.871.735,2.805,1.039.994-1.462,2.048-2.881,3.137-4.277-.3-.652-.151-1.3-1.234-1.974.657-.784,1.3.629,1.957,1.044a89.124,89.124,0,0,1,13.067-13.321,2.938,2.938,0,0,1,2.38-1.891v.014a88.379,88.379,0,0,1,142.046,64.349c.246-.074.683.152.663.323-.052.286-.406.229-.634.1.051.738.08,1.476.1,2.217.083.063.148.132.143.195a.217.217,0,0,1-.134.154c.037,1,.074,1.983.074,2.984a88.282,88.282,0,0,1-7.711,36.124,5.359,5.359,0,0,1,1.22.318c0,.847-.852,1.033-1.834,1.044A88.929,88.929,0,0,1,613.2,259.766a20.912,20.912,0,0,1,3.705-1.9c.712,1.216-1.905,1.825-2.408,1.76-2.271,1.124-3.885,3.636-5.14,3.837a87.871,87.871,0,0,1-8.733,6.95,13.784,13.784,0,0,0,2.331-.466,5.22,5.22,0,0,1,2.625-1.279c-.08-.06-.143-.129-.137-.195.06-.332.549-.2.754-.017a3.219,3.219,0,0,0,1.517-.907c-2.006.458,1.36-1.717,2.077-2.246,2.006-.458-1.363,1.722-2.077,2.246,2.771.309,4.285-.632,6.079-1.3a95.572,95.572,0,0,0,7.214-7.545,4.523,4.523,0,0,0-3.042.6c.451-1.568,2.154-1.222,3.888-1.622.471-.564.949-1.119,1.414-1.691-.263-.049-.217-.418-.009-.569.246-.12.377-.08.44,0a93.42,93.42,0,0,0,13.161-22.82c-1.117.258-2.1-.4-3.048-1.179.86.137,4.151-1.531,3.84-2.824a1.605,1.605,0,0,1,.671.117,93.64,93.64,0,0,0,5.282-31.011C643.605,145.994,600.581,104.651,550.106,104.062Zm-84.794,61.522c.006-.438.837-.237.837,0C466.149,166.016,465.312,165.813,465.312,165.584Zm0-3.379c2.845-.28.137,2.7,0,0Zm5.908-8.435c-.557.395-.651-.192-.423-.421C471.365,152.964,471.46,153.539,471.22,153.771Zm.014-2.506c-.808.412-.326-.412-.846-.841C471.031,150.008,471.666,150.847,471.234,151.264Zm.826,3.353c-.343-.569.563-1.116.014-1.677C473.44,151.985,473.417,154.246,472.06,154.618Zm.451-3.757c-.886-.561-.466-1.116.009-1.654-.286-.443-.568-.246-.848-.02-.437-.28-.234-.552.009-.83l.846-.813c1.534.855.488,1.668,1.68,2.506A2.88,2.88,0,0,0,472.511,150.861Zm2.154-6.975c.009-.421.854-.206.854.029C475.519,144.335,474.665,144.12,474.665,143.886Zm2.988-1.974c.783.106.377,1.116.406,1.239C478.733,145.657,477.113,141.846,477.653,141.911Zm1.683,2.5c-.014.421-.857.2-.846-.017C478.491,143.971,479.336,144.186,479.336,144.412Zm20.347-23.046c-2.425-.349,2.417-.472,0,0Zm2.091.375a1.6,1.6,0,0,1,2.1.349A1.6,1.6,0,0,1,501.774,121.741Zm133.061,42.313c-.209.907-.871,1.222-.486.358C634.692,163.627,635.04,163.138,634.835,164.053Zm-8.879,84.952c.486-.326.8.326,1.183.621C626.667,249.958,626.341,249.306,625.956,249.005Zm3.965-11.768c1.157-.195,2.251.126,3.46-.32C635.246,236.665,630.455,239.478,629.921,237.238Zm5.834-10.9a.606.606,0,0,1,1.2,0C636.686,227.209,636.42,226.277,635.755,226.343ZM602.367,271.13c.688-.08,1.686.109,1.777-.592C603.444,270.632,602.449,270.435,602.367,271.13Zm-94.753-5.367c.46-.134,1.166-.011,1.157-.6C508.322,265.3,507.613,265.182,507.613,265.763Z" transform="translate(-422.729 -60.646)"/><g transform="translate(16.824 0)"><g transform="translate(37.027)"><path class="e" d="M164.467,188.695H97.6a1.067,1.067,0,0,0-.76,1.663l4.75,7.561a.92.92,0,0,0,1.692-.609h0a.923.923,0,0,1,1.612-.723l10.335,12.4a.907.907,0,0,0,1.6-.558l1.068-7.631a.906.906,0,0,1,1.673-.458L130.2,216.747a.872.872,0,0,0,1.5,0l10.7-16.4a.906.906,0,0,1,1.672.469l1.1,8.271a.907.907,0,0,0,1.662.485l8.954-13.19a.91.91,0,0,1,1.666.518l.239,2.309a.91.91,0,0,0,1.687.486l5.848-9.34A1.066,1.066,0,0,0,164.467,188.695Z" transform="translate(-59.501 4.114)"/><line class="f" x1="122.752" y2="0.581" transform="translate(11.182 160.169)"/><g transform="translate(15.354 134.708)"><path class="g" d="M90.3,147.554l-5.951-11.31a.588.588,0,0,0-.95-.146l-4.242,4.354a.583.583,0,0,1-.793.047l-6.371-5.211a.614.614,0,0,0-.915.772l6.433,14.109a.59.59,0,0,0,.955.19l4.327-4.226A.58.58,0,0,1,83.42,146l6.138,2.446A.622.622,0,0,0,90.3,147.554Z" transform="translate(-71.017 -135.149)"/><path class="g" d="M179.939,147.554l5.951-11.31a.588.588,0,0,1,.95-.146l4.242,4.354a.583.583,0,0,0,.793.047l6.371-5.211a.614.614,0,0,1,.915.772l-6.434,14.109a.589.589,0,0,1-.955.19l-4.327-4.226a.58.58,0,0,0-.625-.128l-6.138,2.446A.621.621,0,0,1,179.939,147.554Z" transform="translate(-88.214 -135.149)"/></g><g transform="translate(24.384 0) rotate(10)"><g transform="translate(13.704 56.155)"><path class="e" d="M61.537,18.267c1.339.3,2.6.432,3.927.762a18.539,18.539,0,0,1,1.779.636l3.749-6.032C68.167,9.378,70.725,2.969,75.182.911A5.774,5.774,0,0,1,78.4.326,4.84,4.84,0,0,1,82.492,3.7a7.437,7.437,0,0,1,.277,4.072,10.034,10.034,0,0,1-2.96,5.489,7.424,7.424,0,0,1-5.15,2.229L70.985,21.9c.161.149.316.3.478.441a17.188,17.188,0,0,1,5.764,10.9,25.239,25.239,0,0,1-1.185,11.537A34.524,34.524,0,0,1,73.554,50.5c-.267.494-.638.931-.948,1.4-.523.8-1.035,1.6-1.643,2.54l7.289,1.034c1.506-2.181,3.554-2.7,5.288-1.377,1.684,1.281,1.754,3.371.141,5.267a3.427,3.427,0,0,1-1.037,4.273,2.994,2.994,0,0,1-3.46.291,3.486,3.486,0,0,1-1.754-3.895l-7.9-1.232c-.077.367-.169.69-.207,1.018a1.159,1.159,0,0,1-.4.755,45.675,45.675,0,0,1-7.207,5.47,4.669,4.669,0,0,1-.548.236l-1.04-2.761-1.662.843,2.012,2.427A46.683,46.683,0,0,1,53.5,70.345c-.106-.454-.193-.825-.277-1.2-.016-.072-.008-.15-.03-.219-.119-.377.066-.884-.425-1.1a1.737,1.737,0,0,0-1.667.106l1.578,2.711a55.339,55.339,0,0,1-9.366,3.378c-.139-.639-.295-1.278-.412-1.924s-.2-1.308-.3-1.985a24.235,24.235,0,0,0-2.374,4.1l-.178.635c-.281-.111-.321.133-.407.287q-1.26,2.251-2.513,4.507c-.036.064-.066.133-.108.193a3.306,3.306,0,0,0-.6,2.741,4.487,4.487,0,0,1-.579,3.059,4.1,4.1,0,0,1-.643.892,2.272,2.272,0,0,1-3.549-.076,8.106,8.106,0,0,0-1.775-1.244,7.52,7.52,0,0,1-1.7-1.127,3.258,3.258,0,0,1,0-4.8,5.2,5.2,0,0,1,3.591-1.48,1.6,1.6,0,0,0,1.419-.868q2.14-3.786,4.286-7.569c.058-.1.1-.217.162-.363C29.4,66.277,25.5,60.361,25.016,51.856l-9.328-1.59c-.126.161-.225.3-.334.423a1.816,1.816,0,0,1-1.717.62A97.18,97.18,0,0,1,3.457,49.345c-1.094-.254-2.193-.489-3.283-.731a.845.845,0,0,1,.012-.123c.006-.019.022-.049.033-.049,2.748.078,5.5.159,8.27.1L.352,46.714l.013-.149,7.084.136c-.108-.323-.4-.272-.605-.322-1.879-.463-3.761-.91-5.642-1.363a.858.858,0,0,1-.392-.187c2.428-.03,4.841.278,7.323.278-.155-.347-.454-.343-.687-.407-1.987-.551-3.977-1.088-5.965-1.632a.637.637,0,0,1-.415-.3c.591.055,1.183.1,1.774.166,1.782.184,3.564.361,5.344.563,2.387.27,4.763.614,7.114,1.117a1.726,1.726,0,0,1,1.308.97.7.7,0,0,0,.61.443c2.693.372,5.384.751,8.162,1.141.063-.229.137-.451.184-.678a32.2,32.2,0,0,1,3.076-8.554,35.412,35.412,0,0,1,2.826-4.568A38.263,38.263,0,0,1,39.7,25a39.235,39.235,0,0,1,7.206-4.267,29.339,29.339,0,0,1,10.716-2.658c.855-.034,1.713.007,2.57,0,.182,0,.611.05.611.05S61.3,18.215,61.537,18.267ZM51.689,23.99c.1.416.176.766.276,1.108a31.043,31.043,0,0,1,1.226,10.055,29.076,29.076,0,0,1-3.032,12.129,2.991,2.991,0,0,0-.292.827,1.251,1.251,0,0,0,1.072,1.6c1.465.3,2.928.649,4.41.817,1.875.212,3.767.264,5.652.384.253.016.514.005.629-.267a3.352,3.352,0,0,0,.381-1.08c.082-2.013.126-4.027.151-6.041a12.063,12.063,0,0,0-.147-1.688c-.116-.9-.264-1.793-.388-2.69-.043-.316-.028-.641-.087-.953A31.132,31.132,0,0,0,60.1,32.942a18.941,18.941,0,0,0-3.529-6.086,8.687,8.687,0,0,0-3.779-2.6C52.423,24.138,52.041,24.074,51.689,23.99ZM33.428,46.036c0,.362-.022.608,0,.849a16.022,16.022,0,0,0,3.7,9.069,8.4,8.4,0,0,0,7.882,3.219,6.121,6.121,0,0,0,2.59-.944,20.664,20.664,0,0,1-.335-8.875A32.526,32.526,0,0,1,33.428,46.036ZM53.957,59.992l3.05-2.065a22.36,22.36,0,0,0-4.641-3.018Zm-3.295-3.3A22.523,22.523,0,0,0,51,62.551L53.65,60.4A23.263,23.263,0,0,0,50.662,56.689Z" transform="translate(0 0)"/><path class="e" d="M1.643,17.665l-.112-.184-1-1.354L.054,15.109A28.8,28.8,0,0,1,7.5,7.376,28.815,28.815,0,0,1,9.079,12.8a1.655,1.655,0,0,0,1.106-1.148c.113-.31-.078-.51-.233-.73A15.64,15.64,0,0,1,8.1,7.334c-.042-.113-.066-.232-.124-.442a57.118,57.118,0,0,1,7.186-3.863,22.126,22.126,0,0,1,1.464,3.928c.54-.12,1.056-.6,1.058-1.038a1.151,1.151,0,0,0-.222-.52c-.5-.84-1.007-1.676-1.542-2.562a10.519,10.519,0,0,1,1.024-.555,49.667,49.667,0,0,1,7-2.193,9.2,9.2,0,0,1,1.6,3.779,32.752,32.752,0,0,1,.566,4.891c-.464.142-.919.307-1.386.415a.352.352,0,0,0-.315.467l-.116.1-.16-.371c-.317.1-.618.187-.915.286A34.235,34.235,0,0,0,12.4,15.35,20.685,20.685,0,0,0,6.992,21.7a2.524,2.524,0,0,1-.168.231c-.225-.122-.458-.239-.683-.37a20.518,20.518,0,0,1-3.566-2.832Z" transform="translate(46.066 65.309)"/><path class="b" d="M1.941.007c.352.084.734.148,1.1.266a8.687,8.687,0,0,1,3.779,2.6,18.941,18.941,0,0,1,3.529,6.086,31.128,31.128,0,0,1,1.446,5.251c.059.312.043.637.087.953.124.9.271,1.792.388,2.69a12.054,12.054,0,0,1,.147,1.688c-.025,2.014-.069,4.029-.151,6.041a3.352,3.352,0,0,1-.381,1.08c-.116.272-.376.283-.63.267-1.885-.12-3.778-.172-5.652-.384-1.482-.168-2.945-.518-4.41-.817a1.251,1.251,0,0,1-1.072-1.6A2.989,2.989,0,0,1,.411,23.3,29.076,29.076,0,0,0,3.443,11.17,31.043,31.043,0,0,0,2.217,1.115C2.117.773,2.044.423,1.941.007Z" transform="translate(49.748 23.983)"/><path class="b" d="M.011,0A32.525,32.525,0,0,0,13.852,3.318a20.664,20.664,0,0,0,.335,8.875,6.122,6.122,0,0,1-2.59.944A8.4,8.4,0,0,1,3.715,9.918,16.022,16.022,0,0,1,.014.849C-.011.608.011.362.011,0Z" transform="translate(33.417 46.036)"/><path class="b" d="M1.59,5.084,0,0A22.362,22.362,0,0,1,4.64,3.018Z" transform="translate(52.366 54.908)"/><path class="b" d="M.08,0A23.265,23.265,0,0,1,3.068,3.71L.414,5.862A22.523,22.523,0,0,1,.08,0Z" transform="translate(50.582 56.688)"/></g><g transform="matrix(0.755, -0.656, 0.656, 0.755, 0.172, 47.939)"><g transform="translate(4.963 3.345) rotate(-3)"><path class="e" d="M8.912,49.912c.1.083,2.426,2.205,2.435,2.211.211-.267.417-.53.626-.791a36.94,36.94,0,0,1,2.593-2.909,39.923,39.923,0,0,1,5.874-4.9c.354-.242.7-.49,1.076-.7a9.737,9.737,0,0,0,1.825-1.394A13.966,13.966,0,0,1,24.9,40.221q1.06-.752,2.125-1.5a1.022,1.022,0,0,1,.276-.107A22.147,22.147,0,0,0,30.368,37.4a18.118,18.118,0,0,0,5.254-3.805,13.432,13.432,0,0,0,3.288-5.669,11.959,11.959,0,0,0-1.435-9.616,15.809,15.809,0,0,0-4.6-4.736A20.6,20.6,0,0,0,28,11.124c-.052-.018-.106-.029-.173-.048l-.088.174-.544-.125a2.425,2.425,0,0,0,0,.29,9.316,9.316,0,0,1,.005,1.871,10.315,10.315,0,0,1-.359,2.037,9.713,9.713,0,0,1-2.1,3.934c-.182.2-.395.38-.593.569-.065.055-.088.181-.227.123.042-.053.08-.1.12-.151a.292.292,0,0,1,.049-.038c.287-.485.6-.959.855-1.458a10.287,10.287,0,0,0,1.044-3.522,17.392,17.392,0,0,0,.045-2.462,2.532,2.532,0,0,0-.2-.678c-.248-.827-.481-1.659-.723-2.487-.042-.145-.127-.279-.158-.425a5.274,5.274,0,0,0-1.079-1.967c-.408-.563-.753-1.171-1.177-1.722a13.432,13.432,0,0,0-4.9-4.027,11.4,11.4,0,0,0-4-1.095A11.665,11.665,0,0,0,5.976,2.083,14.806,14.806,0,0,0,1.438,7.256,17.129,17.129,0,0,0-.109,11.187c0,.017.062.065.047.079a.959.959,0,0,0,.208,0c.607.024,1.217.018,1.822.066a12.415,12.415,0,0,1,3.5.853A17.166,17.166,0,0,1,8.924,14.03a16.966,16.966,0,0,1,5.4,5.979,13.254,13.254,0,0,1,1.409,3.863,1.26,1.26,0,0,0,.082.21l.442-.058q1.6-.218,3.191-.436a.367.367,0,0,0,.329-.222.715.715,0,0,1,.536-.4c1.127-.239,2.268-.395,3.412-.521.991-.11,1.983-.208,2.974-.31a.353.353,0,0,1,.1.019.238.238,0,0,1-.146.1c-.9.239-1.8.474-2.693.72-.122.033-.28.028-.386.209.6-.03,1.15-.064,1.7-.084a10.213,10.213,0,0,1,1.627-.04,21.688,21.688,0,0,0-3.01.818l3.226-.072.01.066-3.656.8.011.067,3.686-.1.009.07c-.092.023-.184.049-.277.069-.368.08-.736.156-1.1.237-1.5.328-3,.685-4.529.866a.939.939,0,0,1-1.076-.437l-4.232.707c-.212,3.753-1.984,6.353-5.706,7.559.044.082.076.148.113.212.611,1.055,1.228,2.108,1.831,3.168a.912.912,0,0,0,.839.516,2.131,2.131,0,0,1,1.579.724,1.422,1.422,0,0,1,.01,1.932,1.939,1.939,0,0,1-.958.62A1.205,1.205,0,0,0,13,41.34a1.04,1.04,0,0,1-1.7.021,2.023,2.023,0,0,1-.307-.5,2.332,2.332,0,0,1-.141-1.5.627.627,0,0,0-.077-.491c-.472-.809-.929-1.626-1.4-2.438a1.1,1.1,0,0,0-.17-.183c-.264.331-.524.666-.794.992-.094.114-.236.192-.32.311s-.1.275-.18.393A37.887,37.887,0,0,0,5.714,42.22s-.969,2.138-1.34,3.314c-.036.113-.06.23-.1.341-.069.187-.148.37-.236.585a27.926,27.926,0,0,1,3.789,2.5,3.748,3.748,0,0,0,.944-.944,4.04,4.04,0,0,1,.356-.467c.434-.545.856-1.1,1.309-1.63A4.719,4.719,0,0,1,11.927,44.7l.5-.264.03.052-.41.264a8.541,8.541,0,0,0-2.471,3.4c-.228.525-.408,1.069-.61,1.6Z" transform="translate(24.604 3.776)"/><path class="e" d="M31.126,42.623c1.458-2.525,2.053-3.79,2.827-4.517.15-.141-.449,1.853-.293,1.717a1.05,1.05,0,0,0-.066-.268c-.269-.486,2.406-5.211,2.13-5.692-.029-.051-3.361.1-3.433,0-.086.639-1.081,5.111-1.265,5.692a20.8,20.8,0,0,1-2.973-1.307l.736-1.227a.736.736,0,0,0-.592-.108c-.233.041-.282.105-.321.342-.042.255-.092.508-.149.824a21.2,21.2,0,0,1-3.137-1.543,4.684,4.684,0,0,1,.909-1.076l-.78-.393-.469,1.217a2.25,2.25,0,0,1-.27-.113,20.8,20.8,0,0,1-3.128-2.3.725.725,0,0,1-.3-.548A1.547,1.547,0,0,0,20.467,33l-3.562.54a1.511,1.511,0,0,1-.824,1.736,1.385,1.385,0,0,1-1.559-.167,1.5,1.5,0,0,1-.434-1.869,1.473,1.473,0,0,1,.011-2.275c.775-.625,1.7-.421,2.439.562,1.067-.142,2.147-.278,3.286-.461-.276-.413-.523-.771-.756-1.137-.262-.413-.542-.818-.76-1.253a13.782,13.782,0,0,1-1.039-2.764,10.291,10.291,0,0,1-.221-4.472,7.458,7.458,0,0,1,2.612-4.554c.059-.048.124-.089.178-.128l-1.673-2.847a3.579,3.579,0,0,1-2.784-1.484,3.41,3.41,0,0,1-.247-.346A3.977,3.977,0,0,1,14.521,9.1a2.24,2.24,0,0,1,2.118-1.879,2.649,2.649,0,0,1,1.288.266,4.213,4.213,0,0,1,2.25,2.641,3.4,3.4,0,0,1-.024,2.328c-.085.219-.211.423-.326.648l1.694,2.656a9.661,9.661,0,0,1,2.434-.653c.073-.01.136-.085.2-.13.118-.559.211-1.124.357-1.676a22.371,22.371,0,0,1,1.8-4.659,17.407,17.407,0,0,1,2.832-3.981c.286-.3.577-.592.871-.893a28.569,28.569,0,0,0-3.628-2.254A15.722,15.722,0,0,0,23.459.488a18.12,18.12,0,0,0-3.948-.615c-.785-.028-1.574-.073-2.357-.031A20.536,20.536,0,0,0,9.582,1.674,18.425,18.425,0,0,0,5.113,4.559a15.773,15.773,0,0,0-3.741,4.8A14.041,14.041,0,0,0-.074,14.212a14.949,14.949,0,0,0-.032,2.721c.072.944.224,1.881.343,2.821a20.071,20.071,0,0,0,.666,2.6c.254.96.568,1.906.787,2.873.213.944.337,1.908.5,2.863.084.489.173.977.253,1.467a2.413,2.413,0,0,1,.026.388c0,1.268-.023,2.537.009,3.8.014.55-.005,1.1-.04,1.643-.147,2.294-.836,8.767-.95,9.3.148.005,1.581-.182,3.08-.261s2.862.008,2.917-.053c.025-.028.987-4.205,1.008-4.26.074-.2.064-.424.122-.63a25.129,25.129,0,0,0,.838-4.251c.086-.825.146-1.653.218-2.479l.031-.082q.006-1.361.012-2.721l-.08-1,.039,0,.1,1.008q.074,1.26.148,2.521a.5.5,0,0,0,0,.129,7.037,7.037,0,0,1,.106,1.925c.007.108,0,.217,0,.325a30.265,30.265,0,0,1-.566,4.5c-.2,1.326-1.02,4.687-1.169,5.066a29.976,29.976,0,0,1,4.753.5,47.087,47.087,0,0,1,4.682,1.164l1.628-3.974.55-1.625c.034-.121.686-2.255.722-2.376.026-.086.225-.592.129-.647-.221-.055-1.167-.6-1.4-.659.011-.825.066,1.326.22.549a4.341,4.341,0,0,1,.666-1.461,17.89,17.89,0,0,1,3.638,1.2c-.246.4-.465.761-.691,1.119-.145.23-.153.316.024.517a2.551,2.551,0,0,0,.316.257,9.975,9.975,0,0,1,.685-1.786,16.489,16.489,0,0,1,3.231,1.761,6.875,6.875,0,0,1-.876,1.7.528.528,0,0,0-.115.258.613.613,0,0,0,.512.542,11.241,11.241,0,0,1,.708-2.356,12.967,12.967,0,0,1,3.34,3.376Z" transform="translate(0 0)"/><path class="e" d="M40.032,19.888c-6.327,0-13.85-13.029-23.919-11.384-.708.116-3.244,1.13-3.314,1.618a12.872,12.872,0,0,0-.077,1.319,6.712,6.712,0,0,1-.225-1.327c.028-.357.051-.58.051-.58S6.694-1.048,5.455.02c-6.073,5.231-5.7,26.331-5.7,26.451C-.244,28.659,5.6,36.6,5.6,36.6a26.659,26.659,0,0,1-1.12-3.121c.1.082,4.111.237,4.111.237s-.285,3.881-.262,3.9c3.4,2.775,11.663-7.88,14.743-7.518.02,0-1.447,3.888-2.668,7.19-.44,1.188.07-.272-.221.547-.15.421.4,3.328.3,3.655a2.207,2.207,0,0,1-2.632,1.689c.291.028,7.727-2.58,7.977-2.58,6.57,0,15.325-8.118,15.328-12.429S46.6,19.884,40.032,19.888Z" transform="translate(11.701 4.831)"/><path class="e" d="M2.132,16.734C4.723,17.908,10.888,4.9,10.888,4.9s.481.98.088-.757A22.505,22.505,0,0,1,10.6-.042,34.15,34.15,0,0,1,5.772.452,44.448,44.448,0,0,1,.522.2S.475,2.4.44,5.165c-.015,1.117-.514,6.162-.487,7.39C.035,16.3.906,16.178,2.132,16.734Z" transform="matrix(-0.921, -0.391, 0.391, -0.921, 28.388, 50.425)"/></g><path class="e" d="M42.492,21.613A75.266,75.266,0,0,1,44.354,13.1c.4-1.043.032-.985.542-1.978C45.729,9.5,35.959,2.939,26.083.82S6.747.551,6.2,1.565C5.395,3.069.272,11.8-.112,12.092c-.025.019,12.863-4.825,23.983-2.2a35.846,35.846,0,0,1,12.136,5.177A26.355,26.355,0,0,1,42.492,21.613Z" transform="translate(-0.458 49.346)"/></g></g><g transform="translate(2.717 157.565)"><path class="b" d="M4.967,24.841c-.168-.144-.541-.31-.612-.561-.1-.369-.148-.973.063-1.171a1.9,1.9,0,0,0,.4-2.01q-1.6-8.241-3.205-16.48C1.48,3.924,1.365,3.29.571,3.023.045,2.846-.006,2.336.01,1.845c.019-.559.439-.687.863-.772,1.7-.34,3.408-.656,5.108-1,.468-.1.94-.062,1.07.4a1.611,1.611,0,0,1-.119,1.29,1.75,1.75,0,0,0-.361,1.756C7.656,9.048,8.7,14.588,9.773,20.124c.137.707.246,1.41,1.119,1.707.269.091.476.681.505,1.059a.938.938,0,0,1-.551.723C8.952,24.05,7.041,24.418,4.967,24.841Z" transform="translate(90.796 5.332) rotate(11)"/><g transform="translate(59.968 2.8) rotate(16)"><path class="b" d="M14.033,22.485a5.514,5.514,0,0,1-7.069-2.376,16.831,16.831,0,0,1-1.171-2.878c-1.3-4.026-2.565-8.063-3.836-12.1C1.732,4.415,1.548,3.742.631,3.487c-.3-.083-.56-.7-.613-1.1-.063-.471.4-.652.836-.779Q3.284.894,5.7.145c.439-.137.917-.22,1.121.221.172.371.3,1.008.094,1.253A1.713,1.713,0,0,0,6.743,3.47c1.474,4.624,2.926,9.254,4.4,13.879a14.4,14.4,0,0,0,.673,1.739c.155.331.36.788.649.886C13.706,20.4,13.77,21.445,14.033,22.485Z" transform="translate(0.011 1.977)"/><path class="b" d="M6.044,24.123,5.37,22.112C7.3,20.5,7.037,18.452,6.418,16.405,5.324,12.789,4.15,9.2,3.005,5.594A4.108,4.108,0,0,0,.674,2.661,1.07,1.07,0,0,1,.009,1.552C.015,1.035.438.9.858.773,1.668.534,2.466.247,3.288.06,3.611-.013,4.139.007,4.3.2a1.233,1.233,0,0,1,.231,1.11C3.478,2.928,4.007,4.506,4.511,6.1q1.541,4.87,3.083,9.739a10.111,10.111,0,0,1,.642,4.278,10.944,10.944,0,0,1-.8,2.713A2.42,2.42,0,0,1,6.044,24.123Z" transform="translate(8.993 0.051)"/></g><g transform="translate(13.844 0) rotate(30)"><path class="b" d="M.026,2.809C1.584,1.878,3.023.988,4.5.164A1.205,1.205,0,0,1,5.526.158a.884.884,0,0,1,.42,1.2c-.532.794-.092,1.365.275,1.979q4.252,7.1,8.509,14.205c.4.665.751,1.3,1.717,1.285.271,0,.685.5.783.847a1.09,1.09,0,0,1-.445.907c-1.572,1-3.184,1.943-4.784,2.9a.882.882,0,0,1-1.169-.058c-.357-.352-.607-.87-.283-1.261.665-.8.218-1.41-.175-2.066Q5.986,12.777,1.6,5.459C1.1,4.622.6,3.781.026,2.809Z" transform="translate(8.488 0.078)"/><path class="b" d="M11.458,6.307,10.593,3.99l.428-.015a26.054,26.054,0,0,1,3.013,6.008c1.063,3.133,2.251,6.223,3.37,9.337.127.353.526.755-.186,1.2-.315-.311-.67-.64-1-.992Q9.894,12.8,3.577,6.056c-.291-.31-.578-.624-.889-.913A1.422,1.422,0,0,0,1.347,4.6C.694,4.743.309,4.308.1,3.757c-.234-.614.175-.932.644-1.208C2.126,1.734,3.5.909,4.952.046l6.017,6.277.514.5.163.1-.073-.184Z" transform="translate(0.045 4.956)"/><path class="b" d="M.324,0A17,17,0,0,1,3.981,4.531C4.5,5.55,5.141,6.507,5.75,7.478A3.485,3.485,0,0,0,8.112,9.261a1.85,1.85,0,0,1,.8.364.87.87,0,0,1-.035,1.491,25.124,25.124,0,0,1-2.4,1.434c-.737.385-1.494-.066-1.32-.873.445-2.055-.547-3.61-1.52-5.218C2.405,4.428,1.212,2.373,0,.328Z" transform="translate(6.417 15.553)"/></g><g transform="matrix(0.995, 0.105, -0.105, 0.995, 102.424, 5.032)"><path class="b" d="M6.227.014c2.628,5.038,5.2,9.917,7.7,14.828a6.808,6.808,0,0,1,.436,2.093c.238,1.637.448,3.279.658,4.92.042.33.036.666.056,1.1l-2.984.419c-.317-.578-.626-1.122-.916-1.676Q6.72,13.18,2.258,4.667C1.831,3.856,1.512,2.964.494,2.6A.9.9,0,0,1,.086,1.389,1.23,1.23,0,0,1,.868.708C2.622.436,4.388.243,6.227.014Z" transform="translate(0.002 0.883)"/><path class="b" d="M0,0C1.674,1.857,1.756,4.007,2.016,6.1c.251,2.021.5,4.042.772,6.06a3.764,3.764,0,0,0,1.6,2.911,1.172,1.172,0,0,1,.6,1.3c-.143.624-.683.661-1.208.709-.759.069-1.513.22-2.272.248-.95.034-1.491-.778-.91-1.491,1.165-1.429.979-2.98.764-4.6C.9,7.745.473,4.249.036.755.011.553.016.348,0,0Z" transform="translate(2.348 7.915)"/><path class="b" d="M4.4,12.965A7.41,7.41,0,0,1,2.616,8.979c-.067-1.267-.305-2.526-.473-3.787A3.907,3.907,0,0,0,.559,2.267a1.648,1.648,0,0,1-.53-.943A.693.693,0,0,1,.661.409C1.667.266,2.67.074,3.681.01a.954.954,0,0,1,.806,1.53c-1.409,1.54-1.1,3.279-.86,5.054.257,1.892.492,3.786.731,5.68C4.388,12.5,4.384,12.735,4.4,12.965Z" transform="translate(9.367 0.021)"/></g><g transform="matrix(0.978, 0.208, -0.208, 0.978, 76.765, 4.177)"><path class="b" d="M3.538.015A9.8,9.8,0,0,1,3.9,1.395a1.61,1.61,0,0,1-.154.923,3.164,3.164,0,0,0,1.2,4.55,15.445,15.445,0,0,0,2.339.975,9.646,9.646,0,0,1,6.637,10.122,7.982,7.982,0,0,1-.871,3.546,5.055,5.055,0,0,1-2.933,2.475l-.441-1.61a9.859,9.859,0,0,0,1.066-2.3A3.187,3.187,0,0,0,8.8,16.68c-.956-.446-1.963-.785-2.954-1.154a8.141,8.141,0,0,1-4.788-4.636A12.132,12.132,0,0,1,.1,4.674,5.256,5.256,0,0,1,3.538.015Z" transform="translate(0.005 1.063)"/><path class="b" d="M6.279,6.034l.448,1.839c-1.179.375-2.089-.261-3.2-.469-.153.329-.289.662-.46.976-.231.421-.624.471-.894.083a3.015,3.015,0,0,1-.4-.923Q.931,4.476.128,1.4C0,.911-.168.265.414.051c.654-.241.764.487,1.011.9C1.97,1.855,2.455,2.8,3.062,3.665A5.152,5.152,0,0,0,6.279,6.034Z" transform="translate(2.609 17.309)"/><path class="b" d="M0,1.025c1.138-.415,2.083.2,3.147.281L3.761.016c.7,0,.831.492.95.918.548,1.96,1.065,3.928,1.583,5.9a1.117,1.117,0,0,1,.04.625,1.208,1.208,0,0,1-.479.643c-.132.065-.481-.125-.616-.294-.207-.257-.284-.615-.468-.9-.6-.918-1.184-1.856-1.864-2.715a2.543,2.543,0,0,0-1.3-.962C.343,3,.18,2.1,0,1.025Z" transform="translate(4.429 0.019)"/></g><g transform="matrix(0.94, 0.342, -0.342, 0.94, 46.194, 4.23)"><path class="b" d="M13.88,22.675c-1.7.636-3.309,1.266-4.943,1.816a1.081,1.081,0,0,1-.979-.265c-.2-.3-.337-.924-.164-1.146a1.951,1.951,0,0,0,.072-2.144Q4.958,13.2,2.075,5.451C1.815,4.752,1.559,4.166.7,3.96.391,3.887.086,3.291.022,2.895c-.037-.23.353-.672.643-.789C2.392,1.412,4.147.786,5.892.136A.881.881,0,0,1,7.028.411c.28.4.473.921.056,1.28-.82.706-.469,1.437-.186,2.194q3.229,8.636,6.457,17.272C13.529,21.625,13.682,22.1,13.88,22.675Z" transform="translate(0 0)"/><path class="b" d="M4.812,7.587.75,9.12l-.7-1.807c1.739-1.534,1.3-3.521,1.133-5.455A13.57,13.57,0,0,1,1.062.469.6.6,0,0,1,1.416.019a.716.716,0,0,1,.543.206A1.41,1.41,0,0,1,2.27.77C3.1,2.988,3.927,5.209,4.812,7.587Z" transform="translate(13.973 13.254)"/></g><g transform="matrix(0.914, 0.407, -0.407, 0.914, 31.392, 2.082)"><path class="b" d="M5.383.043l9.932,21.769c-1.679.766-3.28,1.521-4.909,2.212a1.048,1.048,0,0,1-.9-.183.906.906,0,0,1-.269-1.249c.551-.722.245-1.346-.06-2.013Q5.786,13.17,2.405,5.755C2.055,4.986,1.8,4.185.728,4.073c-.263-.027-.57-.587-.676-.954-.137-.476.234-.753.658-.944C2.215,1.5,3.714.806,5.383.043Z" transform="translate(0.018 2.339)"/><path class="b" d="M5.172,6.588.852,8.573l-.8-1.695A5.2,5.2,0,0,0,1.37,1.609,2.16,2.16,0,0,1,1.262.858a4.131,4.131,0,0,1,.32-.845c.263.166.653.271.768.509C3.307,2.5,4.213,4.508,5.172,6.588Z" transform="translate(15.324 15.205)"/><path class="b" d="M4.174.033C5.091,2.056,5.964,3.974,6.826,5.9a.828.828,0,0,1,.083.492.762.762,0,0,1-.305.491.679.679,0,0,1-.553-.131,2.961,2.961,0,0,1-.492-.575C4.366,4.648,3.014,3.425.849,3.783L.016,2C1.326,1.23,2.74.735,4.174.033Z" transform="translate(6.26 0.05)"/><path class="b" d="M4.632,8.22c-.073.12-.139.363-.29.439A.62.62,0,0,1,3.778,8.6a6.313,6.313,0,0,1-.731-.871A3.557,3.557,0,0,0,1.111,6.182,2.288,2.288,0,0,1,.09,4.056,4.663,4.663,0,0,0,.11,1.069C.009.684-.164.127.405.008c.232-.049.694.31.827.589,1.106,2.336,2.161,4.7,3.226,7.053A5.084,5.084,0,0,1,4.632,8.22Z" transform="translate(10.698 7.48)"/></g><g transform="translate(119.692 4.911) rotate(7)"><path class="b" d="M9.277,23.656c-1.8.242-3.426.472-5.06.677-.416.052-.868.094-1.092-.412a1.024,1.024,0,0,1,.232-1.378,1.325,1.325,0,0,0,.484-1.467Q2.915,14.332,1.971,7.591C1.82,6.5,1.707,5.4,1.537,4.311,1.428,3.612,1.385,2.888.5,2.584A.894.894,0,0,1,.083,1.374,1.221,1.221,0,0,1,.88.716C2.545.444,4.224.252,6.032.016Z" transform="translate(0.002 0.784)"/><path class="b" d="M3.536.009c.15.185.4.355.436.561.362,2.243.689,4.492,1.042,6.847L.379,8.068.016,6.217C2.127,5.19,2.616,3.3,2.844,1.263,2.9.771,2.827.221,3.536.009Z" transform="translate(9.924 16.239)"/><path class="b" d="M.252,2.638,0,.646,4.512.012c.128.89.245,1.668.352,2.448q.242,1.757.473,3.516a1.451,1.451,0,0,1,.044.622,1.223,1.223,0,0,1-.466.627c-.094.053-.432-.184-.558-.362a3.876,3.876,0,0,1-.341-.813C3.321,4.321,2.333,2.907.252,2.638Z" transform="translate(7.001 0.018)"/><path class="b" d="M.012,4.624A2.646,2.646,0,0,1,.28,3.74,4.428,4.428,0,0,0,1.124,1c.008-.127-.031-.283.028-.375A6.559,6.559,0,0,1,1.653,0a2.933,2.933,0,0,1,.59.551,1.938,1.938,0,0,1,.18.734c.317,2.266.637,4.532.931,6.8.062.478.29,1.143-.333,1.337-.7.219-.742-.505-.912-.954a4.6,4.6,0,0,0-1.563-2.4C.2,5.83.176,5.111.012,4.624Z" transform="translate(8.316 7.241)"/></g></g></g><g transform="translate(16.278 156.742)"><line class="f" x1="122.752" y2="0.581" transform="translate(31.717 3.427)"/><path class="e" d="M-87.766,5.686l187.874-1.54s-1.458,8.173-6.857,20.092S83.062,41.192,83.062,41.192L-71.684,41.2a96.553,96.553,0,0,1-9.993-16.777A108.928,108.928,0,0,1-87.766,5.686Z" transform="translate(87.766 -4.147)"/><g transform="translate(22.429 0.309)"><path class="b" d="M4.967,24.841c-.168-.144-.541-.31-.612-.561-.1-.369-.148-.973.063-1.171a1.9,1.9,0,0,0,.4-2.01q-1.6-8.241-3.205-16.48C1.48,3.924,1.365,3.29.571,3.023.045,2.846-.006,2.336.01,1.845c.019-.559.439-.687.863-.772,1.7-.34,3.408-.656,5.108-1,.468-.1.94-.062,1.07.4a1.611,1.611,0,0,1-.119,1.29,1.75,1.75,0,0,0-.361,1.756C7.656,9.048,8.7,14.588,9.773,20.124c.137.707.246,1.41,1.119,1.707.269.091.476.681.505,1.059a.938.938,0,0,1-.551.723C8.952,24.05,7.041,24.418,4.967,24.841Z" transform="translate(90.796 5.332) rotate(11)"/><g transform="translate(59.968 2.8) rotate(16)"><path class="b" d="M14.033,22.485a5.514,5.514,0,0,1-7.069-2.376,16.831,16.831,0,0,1-1.171-2.878c-1.3-4.026-2.565-8.063-3.836-12.1C1.732,4.415,1.548,3.742.631,3.487c-.3-.083-.56-.7-.613-1.1-.063-.471.4-.652.836-.779Q3.284.894,5.7.145c.439-.137.917-.22,1.121.221.172.371.3,1.008.094,1.253A1.713,1.713,0,0,0,6.743,3.47c1.474,4.624,2.926,9.254,4.4,13.879a14.4,14.4,0,0,0,.673,1.739c.155.331.36.788.649.886C13.706,20.4,13.77,21.445,14.033,22.485Z" transform="translate(0.011 1.977)"/><path class="b" d="M6.044,24.123,5.37,22.112C7.3,20.5,7.037,18.452,6.418,16.405,5.324,12.789,4.15,9.2,3.005,5.594A4.108,4.108,0,0,0,.674,2.661,1.07,1.07,0,0,1,.009,1.552C.015,1.035.438.9.858.773,1.668.534,2.466.247,3.288.06,3.611-.013,4.139.007,4.3.2a1.233,1.233,0,0,1,.231,1.11C3.478,2.928,4.007,4.506,4.511,6.1q1.541,4.87,3.083,9.739a10.111,10.111,0,0,1,.642,4.278,10.944,10.944,0,0,1-.8,2.713A2.42,2.42,0,0,1,6.044,24.123Z" transform="translate(8.993 0.051)"/></g><g transform="translate(13.844 0) rotate(30)"><path class="b" d="M.026,2.809C1.584,1.878,3.023.988,4.5.164A1.205,1.205,0,0,1,5.526.158a.884.884,0,0,1,.42,1.2c-.532.794-.092,1.365.275,1.979q4.252,7.1,8.509,14.205c.4.665.751,1.3,1.717,1.285.271,0,.685.5.783.847a1.09,1.09,0,0,1-.445.907c-1.572,1-3.184,1.943-4.784,2.9a.882.882,0,0,1-1.169-.058c-.357-.352-.607-.87-.283-1.261.665-.8.218-1.41-.175-2.066Q5.986,12.777,1.6,5.459C1.1,4.622.6,3.781.026,2.809Z" transform="translate(8.488 0.078)"/><path class="b" d="M11.458,6.307,10.593,3.99l.428-.015a26.054,26.054,0,0,1,3.013,6.008c1.063,3.133,2.251,6.223,3.37,9.337.127.353.526.755-.186,1.2-.315-.311-.67-.64-1-.992Q9.894,12.8,3.577,6.056c-.291-.31-.578-.624-.889-.913A1.422,1.422,0,0,0,1.347,4.6C.694,4.743.309,4.308.1,3.757c-.234-.614.175-.932.644-1.208C2.126,1.734,3.5.909,4.952.046l6.017,6.277.514.5.163.1-.073-.184Z" transform="translate(0.045 4.956)"/><path class="b" d="M.324,0A17,17,0,0,1,3.981,4.531C4.5,5.55,5.141,6.507,5.75,7.478A3.485,3.485,0,0,0,8.112,9.261a1.85,1.85,0,0,1,.8.364.87.87,0,0,1-.035,1.491,25.124,25.124,0,0,1-2.4,1.434c-.737.385-1.494-.066-1.32-.873.445-2.055-.547-3.61-1.52-5.218C2.405,4.428,1.212,2.373,0,.328Z" transform="translate(6.417 15.553)"/></g><g transform="matrix(0.995, 0.105, -0.105, 0.995, 102.424, 5.032)"><path class="b" d="M6.227.014c2.628,5.038,5.2,9.917,7.7,14.828a6.808,6.808,0,0,1,.436,2.093c.238,1.637.448,3.279.658,4.92.042.33.036.666.056,1.1l-2.984.419c-.317-.578-.626-1.122-.916-1.676Q6.72,13.18,2.258,4.667C1.831,3.856,1.512,2.964.494,2.6A.9.9,0,0,1,.086,1.389,1.23,1.23,0,0,1,.868.708C2.622.436,4.388.243,6.227.014Z" transform="translate(0.002 0.883)"/><path class="b" d="M0,0C1.674,1.857,1.756,4.007,2.016,6.1c.251,2.021.5,4.042.772,6.06a3.764,3.764,0,0,0,1.6,2.911,1.172,1.172,0,0,1,.6,1.3c-.143.624-.683.661-1.208.709-.759.069-1.513.22-2.272.248-.95.034-1.491-.778-.91-1.491,1.165-1.429.979-2.98.764-4.6C.9,7.745.473,4.249.036.755.011.553.016.348,0,0Z" transform="translate(2.348 7.915)"/><path class="b" d="M4.4,12.965A7.41,7.41,0,0,1,2.616,8.979c-.067-1.267-.305-2.526-.473-3.787A3.907,3.907,0,0,0,.559,2.267a1.648,1.648,0,0,1-.53-.943A.693.693,0,0,1,.661.409C1.667.266,2.67.074,3.681.01a.954.954,0,0,1,.806,1.53c-1.409,1.54-1.1,3.279-.86,5.054.257,1.892.492,3.786.731,5.68C4.388,12.5,4.384,12.735,4.4,12.965Z" transform="translate(9.367 0.021)"/></g><g transform="matrix(0.978, 0.208, -0.208, 0.978, 76.765, 4.177)"><path class="b" d="M3.538.015A9.8,9.8,0,0,1,3.9,1.395a1.61,1.61,0,0,1-.154.923,3.164,3.164,0,0,0,1.2,4.55,15.445,15.445,0,0,0,2.339.975,9.646,9.646,0,0,1,6.637,10.122,7.982,7.982,0,0,1-.871,3.546,5.055,5.055,0,0,1-2.933,2.475l-.441-1.61a9.859,9.859,0,0,0,1.066-2.3A3.187,3.187,0,0,0,8.8,16.68c-.956-.446-1.963-.785-2.954-1.154a8.141,8.141,0,0,1-4.788-4.636A12.132,12.132,0,0,1,.1,4.674,5.256,5.256,0,0,1,3.538.015Z" transform="translate(0.005 1.063)"/><path class="b" d="M6.279,6.034l.448,1.839c-1.179.375-2.089-.261-3.2-.469-.153.329-.289.662-.46.975-.231.421-.624.471-.894.083a3.015,3.015,0,0,1-.4-.923Q.931,4.476.128,1.4C0,.911-.168.265.414.051c.654-.241.764.487,1.011.9C1.97,1.855,2.455,2.8,3.062,3.665A5.152,5.152,0,0,0,6.279,6.034Z" transform="translate(2.609 17.309)"/><path class="b" d="M0,1.025c1.138-.415,2.083.2,3.147.281L3.761.016c.7,0,.831.492.95.918.548,1.96,1.065,3.928,1.583,5.9a1.117,1.117,0,0,1,.04.625,1.208,1.208,0,0,1-.479.643c-.132.065-.481-.125-.616-.294-.207-.257-.284-.615-.468-.9-.6-.918-1.184-1.856-1.864-2.715a2.543,2.543,0,0,0-1.3-.962C.343,3,.18,2.1,0,1.025Z" transform="translate(4.429 0.019)"/></g><g transform="matrix(0.94, 0.342, -0.342, 0.94, 46.194, 4.23)"><path class="b" d="M13.88,22.675c-1.7.636-3.309,1.266-4.943,1.816a1.081,1.081,0,0,1-.979-.265c-.2-.3-.337-.924-.164-1.146a1.951,1.951,0,0,0,.072-2.144Q4.958,13.2,2.075,5.451C1.815,4.752,1.559,4.166.7,3.96.391,3.887.086,3.291.022,2.895c-.037-.23.353-.672.643-.789C2.392,1.412,4.147.786,5.892.136A.881.881,0,0,1,7.028.411c.28.4.473.921.056,1.28-.82.706-.469,1.437-.186,2.194q3.229,8.636,6.457,17.272C13.529,21.625,13.682,22.1,13.88,22.675Z" transform="translate(0 0)"/><path class="b" d="M4.812,7.587.75,9.12l-.7-1.807c1.739-1.534,1.3-3.521,1.133-5.455A13.57,13.57,0,0,1,1.062.469.6.6,0,0,1,1.416.019a.716.716,0,0,1,.543.206A1.41,1.41,0,0,1,2.27.77C3.1,2.988,3.927,5.209,4.812,7.587Z" transform="translate(13.973 13.254)"/></g><g transform="matrix(0.914, 0.407, -0.407, 0.914, 31.392, 2.082)"><path class="b" d="M5.383.043l9.932,21.769c-1.679.766-3.28,1.521-4.909,2.212a1.048,1.048,0,0,1-.9-.183.906.906,0,0,1-.269-1.249c.551-.722.245-1.346-.06-2.013Q5.786,13.17,2.405,5.755C2.055,4.986,1.8,4.185.728,4.073c-.263-.027-.57-.587-.676-.954-.137-.476.234-.753.658-.944C2.215,1.5,3.714.806,5.383.043Z" transform="translate(0.018 2.339)"/><path class="b" d="M5.172,6.588.852,8.573l-.8-1.695A5.2,5.2,0,0,0,1.37,1.609,2.16,2.16,0,0,1,1.262.858a4.131,4.131,0,0,1,.32-.845c.263.166.653.271.768.509C3.307,2.5,4.213,4.508,5.172,6.588Z" transform="translate(15.324 15.205)"/><path class="b" d="M4.174.033C5.091,2.056,5.964,3.974,6.826,5.9a.828.828,0,0,1,.083.492.762.762,0,0,1-.305.491.679.679,0,0,1-.553-.131,2.961,2.961,0,0,1-.492-.575C4.366,4.648,3.014,3.425.849,3.783L.016,2C1.326,1.23,2.74.735,4.174.033Z" transform="translate(6.26 0.05)"/><path class="b" d="M4.632,8.22c-.073.12-.139.363-.29.439A.62.62,0,0,1,3.778,8.6a6.313,6.313,0,0,1-.731-.871A3.557,3.557,0,0,0,1.111,6.182,2.288,2.288,0,0,1,.09,4.056,4.663,4.663,0,0,0,.11,1.069C.009.684-.164.127.405.008c.232-.049.694.31.827.589,1.106,2.336,2.161,4.7,3.226,7.053A5.084,5.084,0,0,1,4.632,8.22Z" transform="translate(10.698 7.48)"/></g><g transform="translate(119.692 4.911) rotate(7)"><path class="b" d="M9.277,23.656c-1.8.242-3.426.472-5.06.677-.416.052-.868.094-1.092-.412a1.024,1.024,0,0,1,.232-1.378,1.325,1.325,0,0,0,.484-1.467Q2.915,14.332,1.971,7.591C1.82,6.5,1.707,5.4,1.537,4.311,1.428,3.612,1.385,2.888.5,2.584A.894.894,0,0,1,.083,1.374,1.221,1.221,0,0,1,.88.716C2.545.444,4.224.252,6.032.016Z" transform="translate(0.002 0.784)"/><path class="b" d="M3.536.009c.15.185.4.355.436.561.362,2.243.689,4.492,1.042,6.847L.379,8.068.016,6.217C2.127,5.19,2.616,3.3,2.844,1.263,2.9.771,2.827.221,3.536.009Z" transform="translate(9.924 16.239)"/><path class="b" d="M.252,2.638,0,.646,4.512.012c.128.89.245,1.668.352,2.448q.242,1.757.473,3.516a1.451,1.451,0,0,1,.044.622,1.223,1.223,0,0,1-.466.627c-.094.053-.432-.184-.558-.362a3.876,3.876,0,0,1-.341-.813C3.321,4.321,2.333,2.907.252,2.638Z" transform="translate(7.001 0.018)"/><path class="b" d="M.012,4.624A2.646,2.646,0,0,1,.28,3.74,4.428,4.428,0,0,0,1.124,1c.008-.127-.031-.283.028-.375A6.559,6.559,0,0,1,1.653,0a2.933,2.933,0,0,1,.59.551,1.938,1.938,0,0,1,.18.734c.317,2.266.637,4.532.931,6.8.062.478.29,1.143-.333,1.337-.7.219-.742-.505-.912-.954a4.6,4.6,0,0,0-1.563-2.4C.2,5.83.176,5.111.012,4.624Z" transform="translate(8.316 7.241)"/></g></g></g><g transform="matrix(0.998, -0.07, 0.07, 0.998, 149.751, 185.002)"><path class="g" d="M-.007,11.036,0,0,2.273,0,3.283,5.278l0-5.28H5.418L5.411,11.032H3.254L2.153,5.51l0,5.524Z" transform="translate(-0.062 42.663) rotate(-29)"/><path class="g" d="M-.113,11.025.961-.01l3.737,0L5.743,11.021l-2.093,0L3.5,9.237H2.161l-.13,1.786ZM2.329,7.478h1L2.847,1.864h-.1Z" transform="translate(14.131 35.187) rotate(-34)"/><path class="g" d="M-.008,11.032,0,0,2.273,0,3.284,5.276,3.288,0,5.42,0,5.412,11.028l-2.158,0-1.1-5.521,0,5.522Z" transform="translate(25.063 26.829) rotate(-43)"/><path class="g" d="M2.622,11.209a2.55,2.55,0,0,1-1.933-.756,2.878,2.878,0,0,1-.724-2.08l0-5.084A3.966,3.966,0,0,1,.625.81,2.456,2.456,0,0,1,2.681-.026,2.831,2.831,0,0,1,4.646.64,2.449,2.449,0,0,1,5.39,2.566v1.9l-2.2,0V2.837a1.3,1.3,0,0,0-.115-.655A.436.436,0,0,0,2.68,2a.417.417,0,0,0-.4.206,1.321,1.321,0,0,0-.11.6l0,5.534a1.206,1.206,0,0,0,.128.635.428.428,0,0,0,.385.2q.514,0,.514-.835V6.355l2.222,0v2.08A2.461,2.461,0,0,1,2.622,11.209Z" transform="matrix(0.616, -0.788, 0.788, 0.616, 37.196, 16.256)"/><path class="g" d="M1.753,11.027l0-3.633L0,0H2.184L2.8,3.734,3.418,0H5.6l-1.765,7.4,0,3.633Z" transform="matrix(0.545, -0.839, 0.839, 0.545, 45.345, 4.654)"/></g><path class="h" d="M3.85,0A3.856,3.856,0,1,1,0,3.856,3.853,3.853,0,0,1,3.85,0Z" transform="translate(105.236 239.206)"/><ellipse class="h" cx="3.85" cy="3.856" rx="3.85" ry="3.856" transform="translate(209.446 142.553)"/><ellipse class="h" cx="3.85" cy="3.856" rx="3.85" ry="3.856" transform="translate(0 142.553)"/></g><g transform="translate(18.401 55.04)"><path class="g" d="M-.048,11.021,1.022,0h3.74L5.813,11.019H3.718L3.564,9.236H2.227L2.1,11.02ZM2.4,7.478h1L2.911,1.869h-.1Z" transform="translate(0 57.534) rotate(-78)"/><path class="g" d="M2.68,11.128a2.522,2.522,0,0,1-2.024-.769A3.42,3.42,0,0,1,0,8.074L0,0H2.146l0,7.984a2.593,2.593,0,0,0,.1.821.418.418,0,0,0,.437.3.418.418,0,0,0,.437-.289,2.585,2.585,0,0,0,.1-.828L3.225,0H5.371l0,8.074A3.426,3.426,0,0,1,4.7,10.356,2.527,2.527,0,0,1,2.68,11.128Z" transform="translate(2.745 44.942) rotate(-69)"/><path class="g" d="M0,.069l2.917,0A2.093,2.093,0,0,1,4.8.92a4.534,4.534,0,0,1,.564,2.5,4.9,4.9,0,0,1-.5,2.478,1.926,1.926,0,0,1-1.8.836h-.9l0,4.365H-.007ZM2.3,4.741a.94.94,0,0,0,.585-.148.7.7,0,0,0,.244-.424,4.1,4.1,0,0,0,.058-.79,2.383,2.383,0,0,0-.154-1,.621.621,0,0,0-.617-.308H2.17l0,2.67ZM6.268,3.3,6.68,1.811h-.8V-.05H8.236v1.81L7.591,3.3Z" transform="translate(9.948 30.168) rotate(-63)"/><path class="g" d="M1.3,11.03l.007-8.912H0L0,0,4.83,0l0,2.119H3.518l-.007,8.912Z" transform="matrix(0.643, -0.766, 0.766, 0.643, 16.547, 19.056)"/><path class="g" d="M-.008,11.032,0,0,2.132,0,2.124,11.03Z" transform="matrix(0.682, -0.731, 0.731, 0.682, 24.449, 10.131)"/><path class="g" d="M1.3,11.032l.007-8.913H0L0,0,4.829,0l0,2.119H3.517L3.511,11.03Z" transform="matrix(0.719, -0.695, 0.695, 0.719, 30.609, 3.406)"/></g><g transform="matrix(0.891, 0.454, -0.454, 0.891, 195.274, 53.655)"><path class="g" d="M2.449,11.267A2.023,2.023,0,0,1,.67,10.424a4.5,4.5,0,0,1-.586-2.55l0-4.752A3.43,3.43,0,0,1,.759.812,2.54,2.54,0,0,1,2.788.03a2.856,2.856,0,0,1,1.7.438A2.25,2.25,0,0,1,5.319,1.74a8.237,8.237,0,0,1,.233,2.145l-2.158,0V2.894a1.408,1.408,0,0,0-.11-.617.4.4,0,0,0-.392-.219q-.629,0-.629.821l0,5.343a1.751,1.751,0,0,0,.129.758.461.461,0,0,0,.45.257A.459.459,0,0,0,3.3,8.982a1.749,1.749,0,0,0,.128-.758V6.644H2.831v-1.9l2.7,0,0,6.421H4.646l-.373-.925A1.958,1.958,0,0,1,2.449,11.267Z" transform="translate(3.639 0.031) rotate(19)"/><path class="g" d="M.145,14.174.137,3.144l4.419,0,0,2.132-2.171,0,0,2.144H4.469V9.5H2.389l0,2.53,2.312,0,0,2.144ZM.933,2.811v-1.4L3.911.04l0,2.183Z" transform="matrix(0.899, 0.438, -0.438, 0.899, 21.375, 2.637)"/><path class="g" d="M2.443,11.261a2.023,2.023,0,0,1-1.78-.842A4.5,4.5,0,0,1,.077,7.87l0-4.751A3.428,3.428,0,0,1,.753.809,2.542,2.542,0,0,1,2.782.027a2.858,2.858,0,0,1,1.7.438,2.249,2.249,0,0,1,.836,1.272,8.231,8.231,0,0,1,.233,2.144H3.389V2.891a1.407,1.407,0,0,0-.11-.616.4.4,0,0,0-.392-.219q-.63,0-.629.821l0,5.341a1.75,1.75,0,0,0,.129.758.461.461,0,0,0,.45.257.459.459,0,0,0,.449-.256,1.747,1.747,0,0,0,.128-.757V6.64H2.825v-1.9l2.7,0,0,6.42H4.64l-.373-.925A1.959,1.959,0,0,1,2.443,11.261Z" transform="translate(33.514 12.844) rotate(30)"/><path class="g" d="M.1,14.157.092,3.131l4.421,0V5.263H2.342V7.406H4.424V9.486H2.344v2.529H4.658v2.144ZM.888,2.8V1.4L3.868.026V2.208Z" transform="translate(50.717 20.637) rotate(43)"/></g><g transform="matrix(1, 0.017, -0.017, 1, 23.337, 173.902)"><path class="g" d="M.1,11.063.089.036l4.42,0V2.169H2.338V4.312H4.421v2.08H2.341l0,2.529H4.655v2.144Z" transform="matrix(0.469, 0.883, -0.883, 0.469, 9.725, 0.004)"/><path class="g" d="M2.923,11.262a2.791,2.791,0,0,1-2.172-.746,3.548,3.548,0,0,1-.67-2.4V7.035l2.171,0V8.411q0,.822.527.822a.457.457,0,0,0,.411-.173,1.1,1.1,0,0,0,.115-.584,2.643,2.643,0,0,0-.129-.892,1.949,1.949,0,0,0-.328-.591q-.2-.238-.713-.739L1.185,5.3A3.284,3.284,0,0,1,.079,2.914,3.161,3.161,0,0,1,.726.763,2.385,2.385,0,0,1,2.62.027,2.642,2.642,0,0,1,4.766.818,3.839,3.839,0,0,1,5.423,3.29l-2.248,0-.013-.758a.483.483,0,0,0-.122-.347A.448.448,0,0,0,2.7,2.055a.494.494,0,0,0-.385.141.55.55,0,0,0-.128.385A1.605,1.605,0,0,0,2.8,3.7L4.088,4.933a7.338,7.338,0,0,1,.746.829,3.25,3.25,0,0,1,.476.925A3.97,3.97,0,0,1,5.49,7.951a4.25,4.25,0,0,1-.6,2.471A2.247,2.247,0,0,1,2.923,11.262Z" transform="matrix(0.602, 0.799, -0.799, 0.602, 16.308, 13.146)"/><path class="g" d="M2.927,11.265a2.79,2.79,0,0,1-2.171-.746,3.55,3.55,0,0,1-.67-2.4V7.038l2.171,0V8.414q0,.822.527.822a.457.457,0,0,0,.411-.173,1.1,1.1,0,0,0,.115-.584,2.645,2.645,0,0,0-.129-.893A1.95,1.95,0,0,0,2.853,7q-.2-.238-.713-.739l-.951-.951A3.285,3.285,0,0,1,.082,2.916,3.163,3.163,0,0,1,.729.765,2.384,2.384,0,0,1,2.623.028,2.641,2.641,0,0,1,4.769.819a3.841,3.841,0,0,1,.657,2.473l-2.248,0-.013-.758a.483.483,0,0,0-.122-.347.448.448,0,0,0-.34-.129.494.494,0,0,0-.385.141.55.55,0,0,0-.128.385A1.606,1.606,0,0,0,2.806,3.7L4.091,4.935a7.339,7.339,0,0,1,.746.829,3.251,3.251,0,0,1,.476.925,3.972,3.972,0,0,1,.181,1.265,4.252,4.252,0,0,1-.6,2.472A2.246,2.246,0,0,1,2.927,11.265Z" transform="matrix(0.695, 0.719, -0.719, 0.695, 25.155, 24.691)"/><path class="g" d="M1.339,11.081,1.333,2.168H.023l0-2.119,4.829,0,0,2.119H3.542l.007,8.914Z" transform="matrix(0.743, 0.669, -0.669, 0.743, 34.739, 34.91)"/><path class="g" d="M.106,11.056.1.02H2.23l.007,11.036Z" transform="matrix(0.848, 0.53, -0.53, 0.848, 46.639, 44.896)"/><path class="g" d="M.1,11.083.092.046H2.364L3.382,5.329l0-5.281H5.51l.007,11.037H3.36L2.252,5.56l0,5.525Z" transform="translate(56.937 51.344) rotate(28)"/></g></g></g></svg>