<svg xmlns="http://www.w3.org/2000/svg" width="35.119" height="17.373" viewBox="0 0 35.119 17.373"><defs><style>.a,.b{fill:#888787;}.a{stroke:#888787;stroke-width:0.5px;}</style></defs><g transform="translate(0.25 0.25)"><path class="a" d="M34.619,9.6c0-1.125-1.13-2.044-2.909-2.429V5.236a.954.954,0,0,0-.008-.114V5.108c0-.054.007-.108.007-.162A4.951,4.951,0,0,0,26.764,0c-.156,0-.311.009-.466.024-.076.007-.151.02-.226.031s-.147.02-.22.034c-.1.018-.19.041-.284.064L25.424.19c-.105.03-.208.064-.31.1l-.1.038c-.108.041-.215.086-.319.134L24.613.5c-.108.052-.214.107-.317.167l-.065.04c-.105.063-.209.129-.309.2-.019.013-.037.028-.056.042-.1.074-.2.149-.3.23l0,0A4.955,4.955,0,0,0,20.365,0c-.156,0-.311.009-.466.024-.076.007-.151.02-.226.031s-.147.02-.22.034c-.1.018-.19.041-.284.064-.048.012-.1.024-.144.038-.105.03-.208.063-.31.1l-.1.038c-.108.041-.215.086-.319.134L18.214.5C18.105.554,18,.61,17.9.67l-.065.04c-.105.063-.209.129-.309.2L17.466.95c-.1.074-.2.149-.3.23l0,0A4.961,4.961,0,0,0,14.34.02.56.56,0,0,0,14.256,0c-.046,0-.091.006-.137.007s-.1-.01-.155-.01a4.955,4.955,0,0,0-3.2,1.181A4.94,4.94,0,0,0,2.618,4.946c0,.055,0,.108.007.162v.014a.973.973,0,0,0-.007.115V7.243C1.015,7.665,0,8.558,0,9.6c0,1.076,1.044,1.96,2.621,2.37a4.95,4.95,0,0,0,4.943,4.9h19.2A4.949,4.949,0,0,0,31.7,12.04C33.444,11.668,34.619,10.742,34.619,9.6ZM3.782,4.945A3.786,3.786,0,0,1,7.564,1.163,3.729,3.729,0,0,1,10.147,2.2a4.913,4.913,0,0,0-.838,2.75.582.582,0,0,0,1.164,0,3.784,3.784,0,0,1,3.636-3.775,3.717,3.717,0,0,1,2.263.868,4.914,4.914,0,0,0-.953,2.906.582.582,0,1,0,1.163,0A3.764,3.764,0,0,1,17.6,2.371c.08-.086.164-.167.25-.244l.039-.036c.076-.066.155-.127.235-.187.027-.02.054-.042.082-.061.063-.045.129-.084.195-.125.046-.028.091-.058.139-.084s.095-.048.142-.072c.067-.033.133-.068.2-.1.029-.012.059-.022.088-.033.088-.035.176-.069.266-.1l.041-.011c.106-.032.213-.06.323-.083l.028,0c.114-.023.229-.041.346-.053s.257-.02.388-.02a3.72,3.72,0,0,1,2.407.876,4.914,4.914,0,0,0-.953,2.906.582.582,0,1,0,1.164,0A3.764,3.764,0,0,1,24,2.37c.08-.086.164-.167.25-.244l.039-.036c.076-.066.155-.127.235-.187.027-.02.054-.042.082-.061.064-.045.129-.084.195-.124.046-.028.091-.058.139-.085s.095-.048.142-.072c.067-.033.133-.068.2-.1.029-.012.059-.021.088-.033.088-.035.176-.069.267-.1l.041-.011c.106-.032.213-.06.323-.083l.028,0c.114-.023.229-.041.346-.053a3.844,3.844,0,0,1,.387-.02,3.786,3.786,0,0,1,3.782,3.782V7.511l-.008.081c0,.012-.006.023-.007.036a.583.583,0,0,1-.05.188l0,0a.6.6,0,0,1-.124.168c-.006.005-.013.007-.019.013a.564.564,0,0,1-.157.1.581.581,0,0,1-.216.044H4.364A.583.583,0,0,1,4.15,8.1a.562.562,0,0,1-.106-.066.383.383,0,0,1-.166-.173.452.452,0,0,1-.026-.038.594.594,0,0,1-.05-.162.636.636,0,0,1-.016-.078l0-.039V5.253l.011-.1Zm24.09,4.873c0,.009-.006.017-.01.026a1.073,1.073,0,0,1-.139.191,1.41,1.41,0,0,1-.1.106c-.041.038-.086.075-.134.112a2.622,2.622,0,0,1-.254.168l-.085.048c-.059.032-.119.063-.183.093a5.094,5.094,0,0,1-1.162.364h0c-.206.04-.42.071-.64.091s-.464.035-.715.035c-.176,0-.35-.008-.521-.02l-.141-.012c-.135-.012-.269-.028-.4-.048l-.113-.016c-.163-.027-.322-.059-.475-.1l-.083-.023q-.187-.049-.361-.108l-.064-.023a1.966,1.966,0,0,0,.3-.531l0,0a1.621,1.621,0,0,0,.073-.264c0-.008,0-.015.006-.022a1.739,1.739,0,0,0,.026-.287,1.55,1.55,0,0,0-.027-.291h5.159c.009.014.024.029.031.042l.02.043a.51.51,0,0,1,.054.206A.54.54,0,0,1,27.872,9.818Zm-10.489,1.2-.149-.015c-.208-.023-.412-.052-.607-.091l-.067-.016c-.176-.038-.345-.083-.506-.134-.04-.013-.082-.025-.12-.039a4.084,4.084,0,0,1-.479-.195l-.025-.013c0-.006.006-.012.01-.018a2,2,0,0,0,.1-.176c.013-.026.024-.054.035-.08a1.587,1.587,0,0,0,.057-.149c.014-.042.022-.086.033-.129s.02-.075.026-.113a1.562,1.562,0,0,0,.022-.256,1.519,1.519,0,0,0-.028-.291h5.734c.014.022.038.045.049.066l0,0a.485.485,0,0,1,.061.222.535.535,0,0,1-.055.213.854.854,0,0,1-.056.092,1.008,1.008,0,0,1-.087.119,1.349,1.349,0,0,1-.119.122c-.029.026-.062.052-.094.078a2.154,2.154,0,0,1-.192.142,3.376,3.376,0,0,1-.534.269l-.091.036a5.164,5.164,0,0,1-.6.186l-.06.016c-.1.024-.207.045-.312.064-.148.027-.3.052-.458.07-.058.007-.119.01-.178.015-.211.018-.427.032-.657.032S17.6,11.041,17.382,11.022Zm-6.849.012-.141-.012c-.135-.012-.269-.028-.4-.048l-.113-.016c-.163-.027-.322-.059-.475-.1l-.083-.022q-.187-.049-.361-.108L8.9,10.708a1.97,1.97,0,0,0,.3-.531l0,0a1.614,1.614,0,0,0,.073-.264c0-.007,0-.015.006-.022A1.615,1.615,0,0,0,9.31,9.6a1.574,1.574,0,0,0-.027-.291h5.154c.012.018.032.038.042.056l.01.02a.5.5,0,0,1,.058.215.531.531,0,0,1-.055.211c-.011.023-.023.044-.036.066a1.014,1.014,0,0,1-.113.155,1.392,1.392,0,0,1-.109.111c-.032.03-.069.059-.106.088a2.267,2.267,0,0,1-.208.148l-.061.035a3.558,3.558,0,0,1-.537.256c-.031.012-.059.025-.091.037-.1.035-.2.066-.3.1-.059.017-.121.033-.184.049-.123.031-.249.059-.38.084s-.284.049-.436.066c-.073.009-.147.015-.22.021-.209.017-.423.032-.652.032C10.879,11.054,10.705,11.046,10.533,11.034ZM1.164,9.6c0-.392.579-.914,1.664-1.217.009.017.021.033.031.05a1.7,1.7,0,0,0,.091.147,1.736,1.736,0,0,0,.153.186c.031.032.064.06.1.09s.086.074.131.108.063.048.1.069a1.791,1.791,0,0,0,.242.132c.02.009.041.014.061.022a1.667,1.667,0,0,0,.234.073c.029.007.057.013.087.018a1.8,1.8,0,0,0,.31.03H8.033c.014.021.039.045.049.066l0,0a.485.485,0,0,1,.061.222.533.533,0,0,1-.055.212.829.829,0,0,1-.056.093,1.042,1.042,0,0,1-.087.119,1.384,1.384,0,0,1-.119.122c-.029.026-.062.052-.094.078a2.154,2.154,0,0,1-.192.142,5.368,5.368,0,0,1-2.424.666l-.146.007c-.155.007-.31.011-.466.008-.076,0-.146-.007-.22-.011a6.858,6.858,0,0,1-.978-.108l-.2-.038C1.882,10.616,1.164,10.045,1.164,9.6Zm29.373,2.6a3.787,3.787,0,0,1-3.772,3.51H7.564A3.786,3.786,0,0,1,3.79,12.174c.162.016.328.027.5.034l.166,0c.067,0,.134.005.2.005.053,0,.1,0,.156,0l.162,0c.159-.006.316-.015.47-.029h0a6.5,6.5,0,0,0,2.414-.652l.009,0a5.209,5.209,0,0,0,.617.263c.034.012.067.026.1.038a6.647,6.647,0,0,0,.677.189l.124.026c.24.049.486.09.741.118l.105.009c.269.026.542.042.82.042a6.667,6.667,0,0,0,3.494-.856c.11.069.228.135.352.2.033.017.07.031.1.047.1.047.2.093.308.135.052.021.107.039.161.058.094.034.19.067.289.1.06.018.122.035.184.052.1.027.2.052.3.074l.2.042c.1.021.211.039.319.055.065.01.13.02.2.029.119.015.239.026.361.037.058,0,.115.012.173.015.18.012.363.018.548.018a7.018,7.018,0,0,0,3.2-.689l.009,0a5.166,5.166,0,0,0,.617.264c.034.012.067.026.1.037a6.5,6.5,0,0,0,.677.189l.124.026c.24.05.486.09.741.118.035,0,.071.006.105.009.269.026.542.043.82.043.242,0,.476-.012.707-.031l.066-.005a6.961,6.961,0,0,0,2-.456c.058.023.124.038.184.06.136.049.274.1.418.137.106.03.213.057.323.083.151.036.3.066.462.092.115.019.23.037.348.051.157.019.315.032.475.043.125.008.249.016.376.018.056,0,.11.008.166.008.193,0,.381-.008.567-.019Zm.372-1.208c-.09.012-.18.023-.271.031-.2.017-.4.029-.617.03-.057,0-.114,0-.171,0-.168,0-.334-.012-.5-.025-.065-.006-.131-.009-.195-.016-.191-.021-.377-.051-.558-.087l-.086-.019h0a2.365,2.365,0,0,0,.236-.28c.016-.022.027-.044.041-.066a1.929,1.929,0,0,0,.126-.219c.017-.036.032-.072.046-.108a1.639,1.639,0,0,0,.069-.208c.009-.034.019-.067.026-.1a1.622,1.622,0,0,0,.034-.317,1.578,1.578,0,0,0-.027-.291h.9a1.712,1.712,0,0,0,.309-.031c.034-.006.067-.015.1-.023a1.8,1.8,0,0,0,.191-.059c.037-.013.074-.026.11-.042a1.673,1.673,0,0,0,.225-.122,1.652,1.652,0,0,0,.14-.1c.027-.021.053-.042.079-.065a1.894,1.894,0,0,0,.135-.133c.013-.015.025-.03.038-.045a1.753,1.753,0,0,0,.234-.356.1.1,0,0,0,.007-.012c1.214.279,1.923.84,1.923,1.284C33.455,10.112,32.5,10.79,30.908,10.99Zm0,0" transform="translate(0 0)"/><path class="b" d="M95.82,189.883a.582.582,0,1,1-.582-.582A.582.582,0,0,1,95.82,189.883Zm0,0" transform="translate(-88.256 -176.501)"/><path class="b" d="M138.843,207.094a.582.582,0,1,1-.582-.582A.582.582,0,0,1,138.843,207.094Zm0,0" transform="translate(-128.37 -192.548)"/><path class="b" d="M173.265,189.883a.582.582,0,1,1-.582-.582A.582.582,0,0,1,173.265,189.883Zm0,0" transform="translate(-160.465 -176.501)"/><path class="b" d="M199.078,207.094a.582.582,0,1,1-.582-.582A.582.582,0,0,1,199.078,207.094Zm0,0" transform="translate(-184.532 -192.548)"/><path class="b" d="M233.5,189.883a.582.582,0,1,1-.582-.582A.582.582,0,0,1,233.5,189.883Zm0,0" transform="translate(-216.626 -176.501)"/><path class="b" d="M267.921,207.094a.582.582,0,1,1-.582-.582A.582.582,0,0,1,267.921,207.094Zm0,0" transform="translate(-248.721 -192.548)"/><path class="b" d="M302.34,181.281a.582.582,0,1,1-.582-.582A.582.582,0,0,1,302.34,181.281Zm0,0" transform="translate(-280.812 -168.481)"/><path class="b" d="M328.156,207.094a.582.582,0,1,1-.582-.582A.582.582,0,0,1,328.156,207.094Zm0,0" transform="translate(-304.882 -192.548)"/><path class="b" d="M371.179,189.883a.582.582,0,1,1-.582-.582A.582.582,0,0,1,371.179,189.883Zm0,0" transform="translate(-344.997 -176.501)"/><path class="b" d="M405.6,198.488a.582.582,0,1,1-.582-.582A.582.582,0,0,1,405.6,198.488Zm0,0" transform="translate(-377.091 -184.525)"/></g></svg>