<svg xmlns="http://www.w3.org/2000/svg" width="72.22" height="59.872" viewBox="0 0 72.22 59.872"><defs><style>.a{fill:#ed6e35;stroke:#ed6e35;stroke-width:0.8px;}</style></defs><g transform="translate(0.4 -17.242)"><g transform="translate(49.235 17.643)"><path class="a" d="M144.314,29.736c1.705-2.174,2-4.912.862-7.919a14.366,14.366,0,0,0-2.145-3.751,1.181,1.181,0,0,0-1.813,1.514c.057.07,4.1,5.043,1.238,8.7-4.128,5.263.273,12.205.463,12.5a1.181,1.181,0,0,0,1.984-1.283C144.865,39.438,141.229,33.669,144.314,29.736Z" transform="translate(-140.695 -17.643)"/></g><g transform="translate(57.162 17.643)"><path class="a" d="M166.967,29.736c1.705-2.174,2-4.912.862-7.919a14.373,14.373,0,0,0-2.145-3.751,1.181,1.181,0,0,0-1.813,1.513c.041.05,4.11,5.036,1.238,8.7-4.128,5.263.274,12.205.463,12.5a1.181,1.181,0,0,0,1.984-1.283C167.519,39.438,163.882,33.669,166.967,29.736Z" transform="translate(-163.348 -17.643)"/></g><g transform="translate(7.569 18.19)"><g transform="translate(0 0)"><path class="a" d="M25.249,31.3c1.705-2.174,2-4.912.862-7.919a14.378,14.378,0,0,0-2.145-3.751,1.181,1.181,0,0,0-1.813,1.513c.042.05,4.11,5.036,1.238,8.7-4.129,5.263.273,12.2.463,12.5a1.181,1.181,0,1,0,1.983-1.283C25.8,41,22.164,35.233,25.249,31.3Z" transform="translate(-21.63 -19.207)"/></g></g><g transform="translate(15.497 18.19)"><g transform="translate(0 0)"><path class="a" d="M47.9,31.3c1.705-2.174,2-4.912.862-7.919A14.367,14.367,0,0,0,46.62,19.63a1.181,1.181,0,0,0-1.813,1.513c.042.05,4.11,5.036,1.238,8.7-4.129,5.263.273,12.2.462,12.5a1.181,1.181,0,1,0,1.983-1.283C48.454,41,44.817,35.233,47.9,31.3Z" transform="translate(-44.284 -19.207)"/></g></g><g transform="translate(0 29.056)"><path class="a" d="M67.5,88.595H64.994a29.3,29.3,0,0,0-26.68-27.961v-1.2a4.941,4.941,0,0,0-2.55-9.175h-.107a4.941,4.941,0,0,0-2.551,9.175v1.2A29.3,29.3,0,0,0,6.426,88.595H3.921A3.925,3.925,0,0,0,0,92.515v1.477a3.926,3.926,0,0,0,3.92,3.923H67.5a3.926,3.926,0,0,0,3.92-3.923V92.515A3.926,3.926,0,0,0,67.5,88.595ZM33.072,55.2a2.586,2.586,0,0,1,2.584-2.583h.107A2.579,2.579,0,0,1,36.7,57.6a1.181,1.181,0,0,0-.749,1.1v1.824h-.484V58.7a1.182,1.182,0,0,0-.749-1.1A2.568,2.568,0,0,1,33.072,55.2ZM67.5,95.552H3.92a1.561,1.561,0,0,1-1.558-1.561V92.515A1.56,1.56,0,0,1,3.92,90.957H5.862l.032,0H48.307a1.181,1.181,0,0,0,0-2.362H8.791A26.924,26.924,0,0,1,35.547,62.885h.325A26.924,26.924,0,0,1,62.628,88.6H55.946a1.181,1.181,0,0,0,0,2.362l9.121,0H67.5a1.56,1.56,0,0,1,1.558,1.558v1.477h0A1.561,1.561,0,0,1,67.5,95.552Z" transform="translate(0 -50.256)"/></g></g></svg>