<svg xmlns="http://www.w3.org/2000/svg" width="45.37" height="44.54" viewBox="0 0 45.37 44.54"><defs><style>.a{fill:#cd435f;stroke:#cd435f;}</style></defs><g transform="translate(0.649 -0.727)"><g transform="translate(3 1.301)"><g transform="translate(0 0)"><path class="a" d="M41.986,39.115c-1.586-2.43-24.8-33-28.284-37.2a.855.855,0,0,0-1.274-.188c-.374.369-.6.907.185,4.134.469,1.933,4.134,12.71,5.382,15.806,2.541,6.3,4.167,6.091,5.1,6.211a1.824,1.824,0,0,0,1.28-.31c1.042-.711,1.389-.918,1.792-1.159.141-.084.292-.174.481-.29,1.126,1.845,2.517,4.708,3.867,7.488a71.552,71.552,0,0,0,5.2,9.61,4,4,0,0,0,2.685,1.736,3.9,3.9,0,0,0,3.593-5.843Zm-1.491,3.128A2.03,2.03,0,0,1,38.607,43.3a2.451,2.451,0,0,1-1.558-1.08A71.1,71.1,0,0,1,32.02,32.88,79.974,79.974,0,0,0,27.6,24.5a.837.837,0,0,0-1.148-.234c-.563.363-1.935,1.182-3.019,1.922a.151.151,0,0,1-.122.032c-.575.3-.611-.139-1.581-1.456-1.563-2.12-5.974-14.576-7.25-18.667-.495-1.587.032-.712.42-.213,4.192,5.393,24.145,31.785,25.686,34.146A2.062,2.062,0,0,1,40.495,42.243Z" transform="translate(-12.086 -1.527)"/></g></g><g transform="translate(22.048 1.227)"><g transform="translate(0 0)"><path class="a" d="M110.67,9.774a.837.837,0,0,0-1.185-.018c-2.139,2.075-4.133,4.1-5.736,5.724q-.614.623-1.124,1.139l-1.58-1.581,6.677-6.479a.838.838,0,1,0-1.167-1.2l-6.695,6.5-1.487-1.489,6.717-6.517a.838.838,0,1,0-1.167-1.2l-6.735,6.534L95.74,9.728l7.278-7.062a.838.838,0,0,0-1.167-1.2L93.475,9.59c-2.141,2.077-1.975,5.127.357,7.94l-4.763,4.692a.838.838,0,0,0,1.167,1.2L95,18.729a6.773,6.773,0,0,0,3.214,1.492c.15.025.3.045.453.059a4.809,4.809,0,0,0,3.826-1.167c.581-.564,1.4-1.4,2.447-2.456,1.6-1.62,3.584-3.635,5.71-5.7A.839.839,0,0,0,110.67,9.774Zm-9.341,8.136a3.2,3.2,0,0,1-2.5.7,5.124,5.124,0,0,1-3.18-1.567c-1.713-1.765-2.879-4.289-1.1-6.146l6.9,6.9Z" transform="translate(-88.814 -1.227)"/></g></g><g transform="translate(0 28.322)"><g transform="translate(0)"><path class="a" d="M18.516,111.909a.838.838,0,0,0-1.183.07c-3.371,3.793-9.49,10.495-11.554,12.326a2.609,2.609,0,0,1-3.508-.371c-.905-.956-.769-2.167.375-3.323a104.065,104.065,0,0,1,10.406-8.726.838.838,0,0,0-1.009-1.338,105.508,105.508,0,0,0-10.588,8.886c-2.17,2.194-1.572,4.417-.4,5.654a4.688,4.688,0,0,0,2.6,1.367,3.838,3.838,0,0,0,3.241-.895c2.386-2.116,9.251-9.717,11.695-12.466A.837.837,0,0,0,18.516,111.909Z" transform="translate(0 -110.377)"/></g></g></g></svg>