<svg xmlns="http://www.w3.org/2000/svg" width="40.234" height="52.722" viewBox="0 0 40.234 52.722"><defs><style>.a{fill:#9a2ae0;stroke:#9a2ae0;stroke-width:0.8px;}</style></defs><path class="a" d="M39.007,28.161a1.221,1.221,0,0,0-1-.289,3.131,3.131,0,0,0-2.8-2.485c.008-.013.016-.025.024-.038,1.077-1.9.215-4.37.031-4.845a7.144,7.144,0,0,0-3.224-3.6A6.719,6.719,0,0,0,29.627,9.36,7.84,7.84,0,0,0,28.4,8.6a7.412,7.412,0,0,0-.313-4.722A7.473,7.473,0,0,0,24.189.143a1.674,1.674,0,0,0-1.5.072,1.625,1.625,0,0,0-.82,1.23q-.045.363-.109.707A3.662,3.662,0,1,0,16.7,7.425c-.645.146-1.32.247-2.014.351-2.392.358-4.865.729-6.8,3.013A6.606,6.606,0,0,0,6.12,15.328a5.8,5.8,0,0,0,.735,2.525,8.424,8.424,0,0,0-1.962,1.429A5.366,5.366,0,0,0,3.2,22.421a4.972,4.972,0,0,0,.668,3.016,3.134,3.134,0,0,0-2.444,2.436,1.229,1.229,0,0,0-1.406,1.4L2.99,48.272a4.278,4.278,0,0,0,4.248,3.636H32.193a4.278,4.278,0,0,0,4.248-3.636l2.971-19A1.223,1.223,0,0,0,39.007,28.161ZM19.039,2.463a2.143,2.143,0,0,1,2.092,1.679,5.751,5.751,0,0,1-1.044,1.537A5.347,5.347,0,0,1,18.7,6.722a2.142,2.142,0,0,1,.336-4.258ZM4.709,22.6a3.882,3.882,0,0,1,1.25-2.23,7.32,7.32,0,0,1,2.3-1.5,15.652,15.652,0,0,1,2.946-.872.761.761,0,1,0-.313-1.489,19.046,19.046,0,0,0-2.64.728,4.331,4.331,0,0,1-.612-1.976,5.1,5.1,0,0,1,1.407-3.483c1.568-1.848,3.657-2.161,5.868-2.492A14.58,14.58,0,0,0,19.154,8.2l.024-.011.009,0,.013-.007A6.881,6.881,0,0,0,21.187,6.73a7.422,7.422,0,0,0,1.43-2.18l.008-.02,0-.009a10.5,10.5,0,0,0,.749-2.893.113.113,0,0,1,.061-.09.142.142,0,0,1,.13-.006,5.977,5.977,0,0,1,3.12,2.958,6.382,6.382,0,0,1,.122,4.218,17.605,17.605,0,0,1-6.137,5.252,22.856,22.856,0,0,1-6.115,1.867.761.761,0,0,0,.28,1.5,24.234,24.234,0,0,0,6.513-2,18.918,18.918,0,0,0,6.4-5.343,6.305,6.305,0,0,1,.96.6,5.251,5.251,0,0,1,1.8,2.337,5.175,5.175,0,0,1,.039,3.607,3.12,3.12,0,0,1-.177.326c-1.92,3.081-9.448,3.686-15.5,4.173l-.432.034c-2.668.207-6.323.491-8.6,3.243l-.05.062a7.41,7.41,0,0,0-.436.6A3.644,3.644,0,0,1,4.709,22.6Zm-.226,4.3H26.242a.761.761,0,0,0,0-1.521H6.928c.017-.022.033-.044.05-.066l.012-.015.025-.03c1.868-2.253,5.018-2.5,7.549-2.694L15,22.535c6.37-.512,13.544-1.089,16.257-4.323a5.636,5.636,0,0,1,2.587,2.838,4.676,4.676,0,0,1,.065,3.548,2.08,2.08,0,0,1-.789.777H29.651a.761.761,0,1,0,0,1.521h5.293a1.605,1.605,0,0,1,1.6,1.6v.182c-.078.07-.152.14-.225.208a1.822,1.822,0,0,1-1.393.7,1.79,1.79,0,0,1-1.379-.693,3.2,3.2,0,0,0-4.852,0,1.718,1.718,0,0,1-2.758,0,3.2,3.2,0,0,0-4.852,0,1.718,1.718,0,0,1-2.758,0,3.2,3.2,0,0,0-4.851,0,1.717,1.717,0,0,1-2.757,0,3.2,3.2,0,0,0-4.851,0,1.79,1.79,0,0,1-1.379.693,1.819,1.819,0,0,1-1.391-.7c-.072-.068-.147-.137-.224-.207V28.5A1.605,1.605,0,0,1,4.483,26.9Zm30.455,21.14h0a2.765,2.765,0,0,1-2.745,2.349H31.052l1.607-17.155a.761.761,0,1,0-1.515-.142l-1.62,17.3H25.762l.788-17.192a.761.761,0,1,0-1.52-.07l-.792,17.261H20.476l0-17.227a.761.761,0,0,0-1.522,0l0,17.226H15.191L14.4,33.125a.761.761,0,1,0-1.52.07l.788,17.192H9.907L8.251,32.7a.761.761,0,1,0-1.515.142L8.379,50.386H7.238a2.765,2.765,0,0,1-2.745-2.35L1.607,29.6a5.157,5.157,0,0,1,.455.4A3.213,3.213,0,0,0,6.92,30a1.717,1.717,0,0,1,2.757,0,3.2,3.2,0,0,0,4.851,0,1.717,1.717,0,0,1,2.757,0,3.2,3.2,0,0,0,4.852,0,1.718,1.718,0,0,1,2.758,0,3.2,3.2,0,0,0,4.852,0A1.718,1.718,0,0,1,32.5,30a3.237,3.237,0,0,0,2.426,1.111A3.273,3.273,0,0,0,37.364,30a5.127,5.127,0,0,1,.457-.4Zm0,0" transform="translate(0.403 0.414)"/></svg>