<svg xmlns="http://www.w3.org/2000/svg" width="69.848" height="69.847" viewBox="0 0 69.848 69.847"><defs><style>.a{fill:#26a1ce;stroke:#26a1ce;}</style></defs><g transform="translate(0.494 0.503)"><g transform="translate(0.01 0)"><path class="a" d="M67.909,33.321h0a1.147,1.147,0,0,0-1.331.928h0A29.587,29.587,0,0,1,59.67,48.538a25.88,25.88,0,0,1-18.387,8.847,21.664,21.664,0,0,1-7.532-1.018,19.045,19.045,0,0,1-9.733-6.926c-3.412-4.632-4.073-10.3-1.721-14.788a9.781,9.781,0,0,1,4.153-4.265,6.631,6.631,0,0,1,4.414-.623c.179.079.372.146.566.21A3.213,3.213,0,0,1,33.7,32.926a5.978,5.978,0,0,0-2.048.018,5.709,5.709,0,0,0-3.635,3.075,5.351,5.351,0,0,0-.267.688,2.935,2.935,0,0,1-.143.385,1.1,1.1,0,0,0-.081.213,8.938,8.938,0,0,0,.749,6.109A12.064,12.064,0,0,0,33.544,48.6c5.278,2.762,11.867,2.031,17.21-1.906a22.466,22.466,0,0,0,8.793-20.921A28.3,28.3,0,0,0,49.993,7.453,32.429,32.429,0,0,0,34.61.025a1.147,1.147,0,0,0-.472,2.246l.069.012A30.159,30.159,0,0,1,48.5,9.192a25.993,25.993,0,0,1,8.771,16.824A20.193,20.193,0,0,1,49.4,44.84c-4.631,3.412-10.3,4.072-14.786,1.721a9.783,9.783,0,0,1-4.266-4.153,6.654,6.654,0,0,1-.623-4.416c.079-.179.147-.372.212-.566a2.775,2.775,0,0,1,.143-.384,3.419,3.419,0,0,1,2.048-1.855,4.09,4.09,0,0,1,.8-.047,5.87,5.87,0,0,0,.016,2.065,5.713,5.713,0,0,0,3.075,3.634,5.049,5.049,0,0,0,.688.266,3.109,3.109,0,0,1,.385.145,1.1,1.1,0,0,0,.213.083,8.929,8.929,0,0,0,6.108-.75A12.047,12.047,0,0,0,48.6,35.313c2.762-5.27,2.032-11.864-1.9-17.21A22.466,22.466,0,0,0,25.775,9.314,28.289,28.289,0,0,0,7.46,18.865,32.422,32.422,0,0,0,.031,34.248a1.147,1.147,0,1,0,2.252.442c0-.012,0-.023.006-.035A30.165,30.165,0,0,1,9.2,20.362a26,26,0,0,1,16.825-8.768,20.193,20.193,0,0,1,18.825,7.868c3.413,4.632,4.072,10.3,1.721,14.788a9.781,9.781,0,0,1-4.153,4.265A6.646,6.646,0,0,1,38,39.138a5.789,5.789,0,0,0-.574-.212,2.767,2.767,0,0,1-.382-.142,3.43,3.43,0,0,1-1.856-2.048,4.028,4.028,0,0,1-.047-.82,5.26,5.26,0,0,0,5.647-3.079,5.1,5.1,0,0,0,.27-.688,2.961,2.961,0,0,1,.143-.384,1.247,1.247,0,0,0,.081-.212,8.949,8.949,0,0,0-.749-6.109,12.079,12.079,0,0,0-5.268-5.187C30,17.494,23.4,18.223,18.048,22.168A21.542,21.542,0,0,0,10.31,33.049a24.528,24.528,0,0,0-1.127,8.305A28.19,28.19,0,0,0,18.821,61.4a31.831,31.831,0,0,0,15.386,7.43,1.108,1.108,0,0,0,.2.018,1.147,1.147,0,0,0,.2-2.276,29.575,29.575,0,0,1-14.286-6.9A25.874,25.874,0,0,1,11.477,41.28a21.961,21.961,0,0,1,1.018-7.532,19.045,19.045,0,0,1,6.926-9.733c4.632-3.412,10.3-4.071,14.788-1.721a9.8,9.8,0,0,1,4.266,4.153,6.655,6.655,0,0,1,.622,4.416c-.079.178-.146.371-.21.563a3.334,3.334,0,0,1-.171.443,3.048,3.048,0,0,1-2.788,1.836,5.261,5.261,0,0,0-3.085-5.633,5.081,5.081,0,0,0-.688-.267,3.109,3.109,0,0,1-.385-.145,1.181,1.181,0,0,0-.211-.081,8.956,8.956,0,0,0-6.108.75A12.058,12.058,0,0,0,20.262,33.6c-2.762,5.271-2.031,11.865,1.913,17.216a21.554,21.554,0,0,0,10.872,7.743,24.281,24.281,0,0,0,7.485,1.139c.273,0,.547,0,.823-.013A28.193,28.193,0,0,0,61.4,50.043a31.845,31.845,0,0,0,7.435-15.388A1.147,1.147,0,0,0,67.909,33.321Z" transform="translate(-0.01 0)"/></g></g></svg>