<svg xmlns="http://www.w3.org/2000/svg" width="184.193" height="127.969" viewBox="0 0 184.193 127.969"><defs><style>.a{fill:#cd435f;}</style></defs><g transform="translate(48.438)"><g transform="translate(31.077)"><g transform="translate(1.761 2.93)"><path class="a" d="M63.01,561.647l-.194-.5c-.041-.105-4.159-10.536-10.131-11.927a3.229,3.229,0,0,0-1.241-.081c-.007.757,3.248,4.382,7.165,7.814l.78.682-.923.408a17.928,17.928,0,0,1-6.562,1.311,10.841,10.841,0,0,1-9.826-5.487c-4.735-8.017-1.7-16.97,8.546-25.212,3.782-3.043,7.575-4.585,11.275-4.585,5.5,0,10.318,3.649,12.579,9.524A13.861,13.861,0,0,1,71.195,548.6l-2.035,1.79,1.171-2.575c.013-.028,1.366-3.282-1.524-9.25-.535-1.105-1.091-1.714-1.566-1.714-.438,0-.837.537-1.037.858-1.265,2.028-1.867,6.7-.779,9.923a10.072,10.072,0,0,0,4.028,5.1c1,.759,1.8,1.358,1.94,2.314a2.52,2.52,0,0,1-.52,1.8c-2.084,3.1-7.173,4.6-7.389,4.661ZM51.767,547.819a5.144,5.144,0,0,1,1.151.158c5.818,1.354,9.794,9.929,10.736,12.154,1.263-.433,4.8-1.805,6.3-4.044a1.3,1.3,0,0,0,.306-.83c-.063-.419-.707-.907-1.454-1.471a11.282,11.282,0,0,1-4.456-5.7c-1.242-3.683-.516-8.8.91-11.094.723-1.16,1.475-1.4,1.976-1.4.941,0,1.807.8,2.573,2.382a16.806,16.806,0,0,1,1.98,8.177,12.13,12.13,0,0,0,1.636-12.051c-2.112-5.481-6.422-8.754-11.531-8.754-3.454,0-7.023,1.462-10.605,4.344-5.6,4.508-14.127,13.552-8.26,23.485a9.653,9.653,0,0,0,8.871,4.914,17.141,17.141,0,0,0,5.171-.867c-3.044-2.734-7.193-6.856-6.659-8.576A1.234,1.234,0,0,1,51.767,547.819Z" transform="translate(-39.897 -524.068)"/></g><path class="a" d="M43.451,556.126a17.137,17.137,0,0,1-5.021-13.857,22.6,22.6,0,0,1,9.839-16.218c5.645-3.812,11.014-5.119,15.53-3.778,3.873,1.148,7.052,4.182,9.449,9.019l-1,.612c-2.241-4.519-5.183-7.347-8.742-8.4-4.207-1.249-9.271.01-14.645,3.637a21.289,21.289,0,0,0-9.293,15.257,15.824,15.824,0,0,0,4.656,12.8Z" transform="translate(-38.356 -521.762)"/><g transform="translate(4.54 9.364)"><path class="a" d="M49.485,557.821c-6.244-1.453-7.162-5.99-7.154-8.566.014-4.39,2.714-9.145,5.555-9.783a11.327,11.327,0,0,1,10.57,2.739c.1-2.7.754-8.727,4.407-11.574,2.562-2,6.062-2.007,10.4-.033l-.433,1.176c-3.958-1.8-7.093-1.835-9.317-.1-4.186,3.26-3.934,11.748-3.932,11.833l.051,1.465-1-.959c-3.341-3.219-6.49-4.207-10.529-3.3-2.078.466-4.626,4.5-4.639,8.543-.013,3.779,2.206,6.377,6.246,7.317Z" transform="translate(-42.331 -529.132)"/></g><g transform="translate(13.63 12.85)"><path class="a" d="M50.4,539.682l-.107-1.267a13.959,13.959,0,0,0,9.641-6.539l.952.7A14.857,14.857,0,0,1,50.4,539.682Z" transform="translate(-50.288 -531.876)"/></g><g transform="translate(12.237 14.501)"><path class="a" d="M50.207,546.5l-1.138-.1c.01-.174.36-4.2,8.569-4.571.547-1.746,2.85-7.991,7.926-8.648l.131,1.263c-5.039.652-7.07,8.111-7.09,8.186l-.117.443-.416.013C50.629,543.3,50.21,546.466,50.207,546.5Z" transform="translate(-49.069 -533.175)"/></g></g><g transform="translate(0 77.099)"><g transform="translate(71.775 5.06)"><path class="a" d="M140.355,573.242a2.169,2.169,0,0,1-.267-.013l-1.527-.2,1.27-.954c.087-.065,8.65-6.532,10.7-14.407,1.973-7.561-6.686-11.654-6.774-11.695l-2.3-1.062,2.651-.163c.989,0,6.082.316,9.232,6.556,2.788,5.519,3.016,5.523,5.187,5.553.3,0,.627.009,1,.025,4.536.2,6.43.764,7.238,2.148.729,1.25.355,2.948-.483,5.281l-.08.22-.19.108a3.112,3.112,0,0,1-1.5.3,9.723,9.723,0,0,1-4.388-1.311c-.588-.31-1.1-.629-1.56-.921a4.653,4.653,0,0,0-2.3-.995c-1.3,0-3.045,1.475-6.011,5.089C145.343,572.777,141.435,573.242,140.355,573.242Zm6.824-26.527c2.638,2.1,5.861,5.9,4.451,11.3-1.565,6-6.49,11.065-9.249,13.522,1.654-.612,4.143-2.086,7.028-5.6,3.29-4.011,5.147-5.5,6.854-5.5a5.5,5.5,0,0,1,2.863,1.16c.442.278.926.584,1.485.878,2.8,1.478,4.228,1.226,4.705,1.093.62-1.768.928-3.1.49-3.85-.548-.94-2.381-1.4-6.325-1.569-.358-.017-.676-.022-.964-.025-2.713-.038-3.232-.386-6.17-6.2A10.61,10.61,0,0,0,147.179,546.716Z" transform="translate(-138.56 -544.744)"/></g><g transform="translate(96.545 18.826)"><path class="a" d="M161.111,561.846a2.769,2.769,0,0,1-.867-2.047,6.376,6.376,0,0,1,2.289-4.221l.743.966a5.226,5.226,0,0,0-1.889,3.258,1.428,1.428,0,0,0,.472,1.081Z" transform="translate(-160.244 -555.579)"/></g><path class="a" d="M92.344,587.284c-11.221,0-13.408-7.781-14.359-11.165-.139-.494-.254-.907-.371-1.2l-.1-.25c-1.231-3.057-4.976-12.358,4.358-22.112,9.053-9.463,19.481-10.1,29.567-10.709,2.518-.152,5.122-.31,7.616-.611,11.072-1.338,21.888.133,34.045,4.621l-.36,1.206c-11.994-4.429-22.657-5.879-33.562-4.564-2.525.3-5.144.464-7.678.617-9.88.6-20.1,1.22-28.846,10.365s-5.368,17.514-4.1,20.668l.1.252c.131.328.263.786.417,1.339,1.228,4.365,4.106,14.593,24.411,8.308,7.645-2.367,12.681-4.082,16.358-5.334,7.489-2.549,8.839-3.009,13.55-2.559,8.18.785,15.475-.813,19.52-4.274l.7,1.008c-4.264,3.649-11.859,5.342-20.314,4.532-4.488-.431-5.639-.038-13.117,2.508-3.684,1.254-8.729,2.972-16.387,5.342A39.2,39.2,0,0,1,92.344,587.284Z" transform="translate(-75.728 -540.761)"/><g transform="translate(3.518 24.966)"><path class="a" d="M95.934,586.316c-7.85,0-13.67-4-17.126-11.887l1.028-.555c4.935,11.271,14.613,14.069,28.77,8.317l1.008-.41c14.383-5.847,19.228-7.819,29.01-7.005,9.647.806,19.628-6.177,20.537-14.363l1.134.156c-1,8.962-11.364,16.33-21.756,15.475-9.532-.8-13.939,1-28.532,6.932l-1.009.409A35.184,35.184,0,0,1,95.934,586.316Z" transform="translate(-78.808 -560.412)"/></g><g transform="translate(78.749 21.758)"><path class="a" d="M145.08,571.416l-.415-1.184c6.019-2.6,7.271-7.62,8.1-10.943.131-.526.25-1,.372-1.4l1.082.406c-.117.385-.228.835-.353,1.337C153.029,562.98,151.631,568.588,145.08,571.416Z" transform="translate(-144.665 -557.887)"/></g><path class="a" d="M87.2,557.536c5.528-2.56,17.971-4.839,24.575-5.029s12.575.76,18.544,0,19.14-.028,19.14-.028a29.04,29.04,0,0,0-10.737-2.261c-5.749.009-13.931.564-17.69,0s-16.583,1.611-24.765,3.66S87.2,557.536,87.2,557.536Z" transform="translate(-74.095 -538.227)"/><path class="a" d="M90.3,566.022s14.645-.306,22.91-3.461,17.692-3.375,28.569-2.8-5.062-2.159-11.355-2-21.117,3.874-26.64,4.8S94.277,563.559,90.3,566.022Z" transform="translate(-73.654 -536.163)"/><path class="a" d="M115.933,569.914c2.232,2.857,5.544-5.707,7.584-9.39a15.179,15.179,0,0,0,2.254-7.019c.168-2.244.608-4.758.545-6.974-3.148.11-4.922,9.558-5.841,12.272-.8,2.376-2.142,3.383-3.459,5.37C115.878,565.889,114.712,568.349,115.933,569.914Z" transform="translate(-70.08 -539.2)"/><path class="a" d="M101.558,569.918c2.01.666,3.32-2.78,4.116-4.315.916-1.763,2.815-4.362,2.583-6.523-.777-.062-2.2,1.455-3.053,1.851-1.27.593-1.462.867-2.094,2.331C102.6,564.433,99.792,569.331,101.558,569.918Z" transform="translate(-72.134 -535.806)"/><path class="a" d="M107.18,558.794c2.184,2.322,3.294-3.488,4.288-5.9a25.156,25.156,0,0,0,1.276-3.826,24.624,24.624,0,0,0,1.151-4.237c-1.816.86-3.193,4.359-4.032,6.277C109.014,553.051,105.554,557.066,107.18,558.794Z" transform="translate(-71.312 -539.659)"/><path class="a" d="M91.859,576.205c1.276-1.179,1.849-4.813,2.047-6.026.136-.845-.075-1.844.129-2.666.4-1.594,1.84-3.213,2.771-4.506,1.807-2.51,3.574-4.354,4.2-7.573.216-1.1.329-2.225.539-3.331.211-1.126,1.2-2.89.719-4-2.231.326-4.027,5.889-4.839,7.935a88.156,88.156,0,0,1-3.683,8.362c-1.13,2.129-1.8,4.349-2.783,6.565a12.475,12.475,0,0,0-1.335,3.575C89.444,575.772,90.151,577.783,91.859,576.205Z" transform="translate(-73.754 -538.775)"/><path class="a" d="M137.851,550.129c-1.6.236-2.9,4.233-3.48,5.7a63.456,63.456,0,0,1-2.648,6.013c-.812,1.531-1.292,3.128-2,4.717a8.983,8.983,0,0,0-.96,2.573c-.13.884.378,2.33,1.606,1.2.917-.849,1.33-3.46,1.47-4.328.1-.61-.054-1.33.094-1.921a11.061,11.061,0,0,1,1.992-3.241c1.3-1.8,2.571-3.127,3.024-5.445.153-.793.234-1.6.386-2.394S138.194,550.926,137.851,550.129Z" transform="translate(-68.182 -538.227)"/><path class="a" d="M116.595,549.6c-1.621-.844.5-3.155,1.059-2S118.216,550.444,116.595,549.6Z" transform="translate(-69.997 -538.996)"/><path class="a" d="M116.237,553.987c.658,1.639,2.253,1.146,1.456,0S115.579,552.348,116.237,553.987Z" transform="translate(-69.988 -537.468)"/><path class="a" d="M129.265,548.557c-1.437.091-1.4-1.143-.437-1.273S129.909,548.514,129.265,548.557Z" transform="translate(-68.268 -538.999)"/><path class="a" d="M128.469,554.788c-.876-1.217-1.988-1.244-1.21,0S128.469,554.788,128.469,554.788Z" transform="translate(-68.431 -537.216)"/><path class="a" d="M124.459,563.73c-2.064.245-1.474-1.752,0-1.654S124.459,563.73,124.459,563.73Z" transform="translate(-68.982 -534.996)"/><path class="a" d="M109.946,564.608c-1.076-.387-.4-2.016.812-1.528S111.021,565,109.946,564.608Z" transform="translate(-70.934 -534.749)"/><path class="a" d="M142.8,550.314c0-2.082-1.468.2-1.47.522S142.8,551.6,142.8,550.314Z" transform="translate(-66.391 -538.412)"/><path class="a" d="M92.864,550.882c-.868,1.307-.016,2.092,1.163,1.037S93.411,550.061,92.864,550.882Z" transform="translate(-73.34 -538.115)"/><path class="a" d="M87.272,568.525c-1.324-1.64-.082-2.748.8-1.772S87.991,569.416,87.272,568.525Z" transform="translate(-74.167 -533.829)"/><path class="a" d="M101.566,555.367c-1.437.091-1.4-1.145-.436-1.272S102.213,555.323,101.566,555.367Z" transform="translate(-72.21 -537.157)"/><path class="a" d="M119.976,550.063c-1.437.092-1.4-1.143-.438-1.273S120.62,550.022,119.976,550.063Z" transform="translate(-69.59 -538.592)"/><path class="a" d="M90.552,563.763c-1.438.093-1.4-1.143-.439-1.273S91.2,563.722,90.552,563.763Z" transform="translate(-73.778 -534.886)"/><path class="a" d="M91.226,557.244c-2.063.244-1.474-1.753,0-1.657S91.226,557.244,91.226,557.244Z" transform="translate(-73.712 -536.751)"/></g><g transform="matrix(0.951, 0.309, -0.309, 0.951, 97.909, 13.949)"><path class="a" d="M17.821,4.961a7.428,7.428,0,0,0-.449-2.621,3.146,3.146,0,0,0-.85-1.2,2.605,2.605,0,0,0-1.266-.6,2.483,2.483,0,0,0-2.518.9,3.228,3.228,0,0,0-.365.593c-1.124.744-2.859,2.656-3.753,7.52-.219,9.614-.543,8.059-.862-.038q-.031-1.311-.167-2.6C4.945,1.583,3.226.7,2.318.748,2.3.736,2.289.723,2.291.714A1.17,1.17,0,0,0,1.32.531,1.189,1.189,0,0,0,.6,1.123a1.975,1.975,0,0,0-.264.683A5.231,5.231,0,0,0,.152,3.137,8.73,8.73,0,0,0,.138,4.424,12.959,12.959,0,0,0,.479,6.969a11.65,11.65,0,0,0,2.08,4.439c.05,0,.081.013.131.017v.089l.041-.042A12.245,12.245,0,0,1,.869,2.036c.111-.366.293-.765.612-.871.346-.079.68.224.912.536A6.639,6.639,0,0,1,3.4,3.947,14.3,14.3,0,0,1,3.85,8.861a79.955,79.955,0,0,0-.464,9.89,21.238,21.238,0,0,0,.167,2.5A2.361,2.361,0,0,0,4,22.488c.319.184.488-.14.59-.248a5.593,5.593,0,0,1,.388-.416,5.137,5.137,0,0,1,4.16-1.158,31.1,31.1,0,0,1,4.523.868,5.387,5.387,0,0,0,1.147.122,1.28,1.28,0,0,0,1.1-.417,1.716,1.716,0,0,0,.129-1.275,9.179,9.179,0,0,0-.312-1.229A75.491,75.491,0,0,1,13.032,9.08a19.842,19.842,0,0,1-.445-4.931,4.424,4.424,0,0,1,.66-2.256A1.967,1.967,0,0,1,15.2,1.152a2.228,2.228,0,0,1,1.751,1.393,6.441,6.441,0,0,1,.5,2.407,19.542,19.542,0,0,1-.479,4.877l.064.017L17,9.765A.367.367,0,0,1,17.13,9.7,18.015,18.015,0,0,0,17.821,4.961Z" transform="translate(11.806 20.162)"/><path class="a" d="M9.233,9.93a5.559,5.559,0,0,1,3.931,1.124s.015,0,.013.013c.365.212,4.81,2.655,8.993.259l0-.026a6.867,6.867,0,0,1,1.662-.881c2.878-1.062,8.106.679,9.186,6.809a.485.485,0,0,0,.059-.155A12.693,12.693,0,0,0,32.067,7.061a13.194,13.194,0,0,0-7.885-5.612A27.293,27.293,0,0,0,14.317.735,17.056,17.056,0,0,0,5.333,3.724a11.215,11.215,0,0,0-3.186,3.5A13.185,13.185,0,0,0,.542,11.858a14.012,14.012,0,0,0,.273,5.165,11.053,11.053,0,0,0,6.714,7.932C.823,18.576,3.632,10.323,9.233,9.93Z" transform="translate(2.313 5.443)"/><path class="a" d="M39.957,15.451a15.06,15.06,0,0,0-4.837-9.9,18.933,18.933,0,0,0-9.391-4.468,32.124,32.124,0,0,0-9.885-.009A20.638,20.638,0,0,0,6.676,4.566,14.659,14.659,0,0,0,.89,12.886,14.342,14.342,0,0,0,2.251,23.122c-.045-.128-.092-.248-.137-.377a15.885,15.885,0,0,1-.521-5.676,13.165,13.165,0,0,1,5.14-9.245,18.447,18.447,0,0,1,9.669-3.4,28.8,28.8,0,0,1,10.384.92,16.744,16.744,0,0,1,4.895,2.337,12.43,12.43,0,0,1,3.756,4.17,12.762,12.762,0,0,1,1.532,5.512,14.286,14.286,0,0,1-.773,5.543,12.19,12.19,0,0,1-7.242,7.149,12.152,12.152,0,0,0,8.385-4.41,12.477,12.477,0,0,0,2.228-4.757A17.381,17.381,0,0,0,39.957,15.451Z"/><path class="a" d="M.019.056.012,0,0,.06Z" transform="translate(28.833 30.008)"/></g></g><g transform="translate(0 7.771)"><path class="a" d="M121.793,526.87c3.087,6.073,14.458,18.23,33.338,13.975,19.3-4.358,26.109-20.112,22.234-32.118,5.959,9.211,2.261,32.639-21.738,36.45s-35.091-11.93-35.561-22.894h.013A22.553,22.553,0,0,0,121.793,526.87Z" transform="translate(-118.863 -489.057)"/><path class="a" d="M147.963,546.08h0a30.129,30.129,0,0,1-26.218-15.2,24.477,24.477,0,0,1-1.431-18.554c1.938-5.75,6.19-10.348,12.3-13.3a42.13,42.13,0,0,1,18.172-4.256c10.1,0,18.993,4.064,24.406,11.151a22.393,22.393,0,0,1,2.931,21.356c-3.231,8.9-11.371,15.426-22.333,17.9A35.586,35.586,0,0,1,147.963,546.08Zm2.82-50.04a40.839,40.839,0,0,0-17.62,4.13c-5.792,2.8-9.82,7.138-11.647,12.556a23.57,23.57,0,0,0,1.359,17.572,28.807,28.807,0,0,0,25.086,14.51h0a34.352,34.352,0,0,0,7.544-.87c10.531-2.378,18.338-8.61,21.419-17.095a21.129,21.129,0,0,0-2.747-20.153C168.932,499.823,160.623,496.04,150.783,496.04Z" transform="translate(-119.119 -494.77)"/><g transform="translate(0.825 17.331)"><path class="a" d="M148.871,546.423c-9.541,0-15.9-3.357-19.775-6.523-5.48-4.476-9.054-11.208-9.328-17.568l1.269-.055a23.69,23.69,0,0,0,8.863,16.64c4.574,3.737,12.791,7.755,25.966,5.66,10.111-1.606,17.723-7.073,21.436-15.395,3.091-6.928,3.04-15.186-.124-20.081l1.066-.69c3.386,5.236,3.475,13.991.219,21.29-3.894,8.727-11.847,14.456-22.4,16.131A45.718,45.718,0,0,1,148.871,546.423Z" transform="translate(-119.768 -508.411)"/></g><g transform="translate(34.443 8.871)"><path class="a" d="M154.036,518.591c-4.41,0-6.642-.567-7.462-1.889-.861-1.391.053-3.226.936-5,3.428-6.881,6.219-9.951,9.047-9.951,2.082,0,4,1.649,6.026,5.189,2.206,3.852,2.715,6.549,1.6,8.492-1.2,2.1-4.233,3.1-9.545,3.155Zm2.522-15.569c-2.223,0-4.81,3.025-7.909,9.245-.84,1.686-1.447,3.034-.995,3.764.53.855,2.676,1.288,6.382,1.288l.592,0c4.75-.051,7.516-.874,8.456-2.517.853-1.489.329-3.853-1.6-7.228C159.727,504.511,158.117,503.022,156.558,503.022Z" transform="translate(-146.229 -501.752)"/></g><g transform="translate(16.673 4.146)"><path class="a" d="M143.712,516.272h0c-3.883,0-8.961-6.264-11.133-10.784a2.917,2.917,0,0,1,.126-2.94c2.124-3.378,11.1-4.515,14.869-4.515.488,0,.936.017,1.331.047a2.429,2.429,0,0,1,2.244,2.348c.733,4.473-4.012,14.682-6.147,15.589A3.285,3.285,0,0,1,143.712,516.272Zm3.861-16.969c-4.63,0-12.206,1.4-13.792,3.921a1.639,1.639,0,0,0-.057,1.714c2.283,4.75,7.04,10.064,9.989,10.064h0a2.017,2.017,0,0,0,.792-.154c1.5-.638,6.053-10.183,5.392-14.214-.177-1.081-.676-1.255-1.089-1.288C148.441,499.319,148.025,499.3,147.573,499.3Z" transform="translate(-132.242 -498.033)"/></g><g transform="translate(31.867 27.318)"><path class="a" d="M150.574,533.443h0a2.341,2.341,0,0,1-1.887-.766c-1.612-1.911-5.712-11.738-4.128-15.147a2.063,2.063,0,0,1,1.958-1.258l.141,0c7.883.394,16.15,1.279,17.685,4.867.606,1.418.108,3.067-1.479,4.9C160.614,528.643,154.032,533.443,150.574,533.443Zm-3.988-15.9a.83.83,0,0,0-.874.522c-1.248,2.685,2.364,11.917,3.947,13.792a1.13,1.13,0,0,0,.915.315c2.824,0,9.06-4.337,11.329-6.958,1.243-1.438,1.671-2.64,1.272-3.573-1.428-3.341-12.832-3.911-16.58-4.1Z" transform="translate(-144.202 -516.272)"/></g><g transform="translate(4.581 13.369)"><path class="a" d="M127.835,524.961h0a4.322,4.322,0,0,1-3.66-1.906c-2.187-3.091-1.614-8.939-.155-13.064,1.132-3.2,2.527-4.7,4.39-4.7,1.89,0,3.806,1.594,6.023,3.44l.384.318c1.009.837,1.978,1.545,2.834,2.167,2.649,1.93,4.564,3.322,3.954,6.028-.36,1.6-4.433,4.67-11.271,7.215A7.23,7.23,0,0,1,127.835,524.961Zm.573-18.4c-.452,0-1.831,0-3.191,3.852-1.627,4.6-1.63,9.611-.005,11.907a3.023,3.023,0,0,0,2.622,1.368h0a5.961,5.961,0,0,0,2.054-.421c7.04-2.618,10.3-5.529,10.475-6.3.408-1.813-.767-2.76-3.463-4.722-.872-.634-1.859-1.353-2.9-2.216l-.384-.319C131.674,508.092,129.839,506.563,128.408,506.563Z" transform="translate(-122.725 -505.293)"/></g><g transform="translate(13.118 27.835)"><path class="a" d="M141.756,535.256h0a15.553,15.553,0,0,1-5.387-1.276c-4.524-1.752-6.652-3.341-6.9-5.153-.253-1.852,1.536-3.471,3.507-4.945a40.866,40.866,0,0,0,3.6-3.186c2.253-2.155,4.2-4.017,6.107-4.017a2.8,2.8,0,0,1,1.794.657c1.868,1.513,1.742,3.169,1.569,5.461a27.189,27.189,0,0,0-.052,4.548c.248,3.043.154,5.351-1.121,6.732A4.041,4.041,0,0,1,141.756,535.256Zm.926-17.307c-1.4,0-3.26,1.78-5.229,3.665a41.647,41.647,0,0,1-3.717,3.284c-2.211,1.653-3.138,2.81-3.009,3.756.172,1.246,2.225,2.64,6.1,4.142a14.631,14.631,0,0,0,4.928,1.189h0a2.806,2.806,0,0,0,2.183-.769c1.016-1.1.98-3.424.788-5.768a28.267,28.267,0,0,1,.052-4.748c.165-2.188.248-3.284-1.1-4.377A1.534,1.534,0,0,0,142.682,517.95Z" transform="translate(-129.444 -516.679)"/></g><path class="a" d="M139.207,504.175c-.285-3.273,1.438-4.539,2.918-2.912S139.207,504.175,139.207,504.175Z" transform="translate(-113.694 -493.205)"/><path class="a" d="M140.256,510.036c-1.6-1.324-2.021-2.894-.283-3.1S140.256,510.036,140.256,510.036Z" transform="translate(-113.782 -491.482)"/><path class="a" d="M136.639,506.095c-2.311-1.295-2.6-1.906-1.024-2.8S136.639,506.095,136.639,506.095Z" transform="translate(-114.924 -492.503)"/><path class="a" d="M142.249,506.332c-.109-2.438-.269-3.847,1.182-3.05S142.249,506.332,142.249,506.332Z" transform="translate(-112.881 -492.528)"/><path class="a" d="M155.549,512.624c-2.61-4.078.357-4.184,1.451-3.747S155.549,512.624,155.549,512.624Z" transform="translate(-109.548 -491.001)"/><path class="a" d="M153.546,507.363s-1.121-4.83,1.3-3.363S153.546,507.363,153.546,507.363Z" transform="translate(-109.877 -492.348)"/><path class="a" d="M152.913,510.614c-3.457-1.065-4.752-.642-4.31,1.265S152.913,510.614,152.913,510.614Z" transform="translate(-111.166 -490.639)"/><path class="a" d="M147.691,523.4s-3.078-5.333-.239-4.888S147.691,523.4,147.691,523.4Z" transform="translate(-111.781 -488.355)"/><path class="a" d="M151.123,524.523s-.465-4.708,2.058-3.049S151.123,524.523,151.123,524.523Z" transform="translate(-110.471 -487.643)"/><path class="a" d="M135.641,523.94s-3.757-.363-2.662,1.8S135.641,523.94,135.641,523.94Z" transform="translate(-115.424 -486.886)"/><path class="a" d="M139.314,523.541c-1.883-2.517-1.8-4.771.039-4.409S139.314,523.541,139.314,523.541Z" transform="translate(-114.029 -488.191)"/><path class="a" d="M139.97,525.6s-3.9-.155-2.73,2.169S139.97,525.6,139.97,525.6Z" transform="translate(-114.277 -486.43)"/><path class="a" d="M132.276,513s-1.725-4.822-3.715-2.411S132.276,513,132.276,513Z" transform="translate(-116.679 -490.674)"/><path class="a" d="M126.8,518.654s-.635-4.668,2.14-3.594S126.8,518.654,126.8,518.654Z" transform="translate(-117.057 -489.325)"/></g></svg>