<svg xmlns="http://www.w3.org/2000/svg" width="217.021" height="201.237" viewBox="0 0 217.021 201.237"><defs><style>.a{fill:#cd435f;}</style></defs><g transform="translate(133.809)"><g transform="translate(1.947 59.205)"><path class="a" d="M418.457,488.223a12.523,12.523,0,0,1,.287,3.394,14.187,14.187,0,0,1-4.063,9.369c-.451-.41-.932-.834-1.409-1.231-3.94-3.3-10.754-7.346-15.542-8.536a15.2,15.2,0,0,1,3.449-10.149c2.175-2.341,4.432-3.23,6.579-3.12a9.861,9.861,0,0,1,6.185,3.066,17.115,17.115,0,0,1,2.216,2.612s.014,0,0,.014a18.779,18.779,0,0,1,1.628,2.709A8.939,8.939,0,0,1,418.457,488.223Z" transform="translate(-359.514 -477.94)"/><path class="a" d="M419.552,513.075c.315.436.573.833.78,1.148-2.777-1.97-15.814-2.8-26.621-18.235l3.843,1.19,3.271,1.012c5.691,5.993,10.1,6.772,13.311,8.878C416.132,508.381,418.239,511.172,419.552,513.075Z" transform="translate(-360.992 -471.299)"/><path class="a" d="M400.987,535.527c-1.313,4.118-3.064,6.621-9.508,3.324-5.855-3-8.96-2.462-7.4-8.906.109-.465.233-.943.369-1.423,1-3.584,2.517-7.114,4.882-8.851l.125-.055c4.378,9.357,5.28,9.767,10.848,9.466.9-.055,1.792-.109,2.668-.192-.109.438-.246.889-.412,1.368C401.93,532.093,401.493,533.926,400.987,535.527Z" transform="translate(-364.684 -462.604)"/><path class="a" d="M402.567,553.009c4.514,8.55-4.788,14.87-16.17,10.616-.807-.315-1.628-.67-2.462-1.081-.549-.274-1.081-.547-1.587-.834-10.7-5.992-14.911-15.376-11.274-21.683-1.845,3.83,1.274,9.836,6.553,14.255C392.034,566.306,405.22,561.2,402.567,553.009Z" transform="translate(-369.793 -455.093)"/></g><g transform="translate(64.563)"><path class="a" d="M419.447,475.286l-1.276-.488c6.005-15.654,10.8-28.242,13.937-36.625-3.271,7.51-8.178,19.3-15.276,36.707l-1.267-.514c7.895-19.361,13.082-31.785,16.327-39.1a.989.989,0,0,1,1.321-.518,1.6,1.6,0,0,1,.921,1.915C431.03,444.979,425.951,458.337,419.447,475.286Z" transform="translate(-415.565 -434.662)"/></g><g transform="translate(55.502 56.22)"><path class="a" d="M412.441,484.7l-1.278-.491,2.409-6.246a1.277,1.277,0,0,0-.763-.733,1.488,1.488,0,0,0-.6-.093l-2,4.94-1.27-.513,2.168-5.3c.1-.14.684-.806,2.124-.332a2.693,2.693,0,0,1,1.733,1.9l.044.2Z" transform="translate(-408.942 -475.759)"/></g><g transform="translate(0 165.563)"><path class="a" d="M372.912,591.362a6.438,6.438,0,0,1-4.227-1.849,1.254,1.254,0,0,1-.224-1.294c3.358-7.834,7.788-18.476,13.543-32.531l1.267.517c-5.737,14.01-10.157,24.629-13.513,32.462a3.782,3.782,0,0,0,1.606.979,3.24,3.24,0,0,0,1.841.306c2.988-7.439,7.335-18.353,12.85-32.342l1.272.5c-5.516,13.993-9.865,24.912-12.929,32.451a1.308,1.308,0,0,1-1.137.776A2.572,2.572,0,0,1,372.912,591.362Z" transform="translate(-368.37 -555.688)"/></g><g transform="translate(35.502 104.937)"><path class="a" d="M397.462,521.193a2.874,2.874,0,0,1-1.7-.695c-1.855-1.42-1.464-2.536-1.264-2.891l2.513-6.237,1.27.513-2.622,6.443c.008.03.105.449.934,1.083.594.454.884.423.955.4a.324.324,0,0,0,.178-.148l2.264-5.813,1.274.5L399,520.175a1.7,1.7,0,0,1-1.092.959A1.65,1.65,0,0,1,397.462,521.193Z" transform="translate(-394.322 -511.371)"/></g><g transform="translate(8.4 121.515)"><path class="a" d="M387.56,527.168a47.371,47.371,0,0,1-6.268-2.847l.253.062c-1.893.2-3.788.357-5.684.5l.386-.178a1.674,1.674,0,0,0-.484,1.5,4.05,4.05,0,0,0,.825,1.681,15.377,15.377,0,0,0,3.038,2.889l.107.078.037.067c1.358,2.409,2.6,4.866,3.884,7.3.643,1.217,1.279,2.439,1.85,3.7.293.625.586,1.254.843,1.9a6.386,6.386,0,0,0,.9,1.741c1.6,2.06,4.29,2.962,6.863,3.416,2.655.33,5.442.6,8.149.962l-.714.339c1.748-2.881,3.538-5.766,5.123-8.726.39-.743.757-1.5,1.089-2.248a7.207,7.207,0,0,0,.4-1.125,1.394,1.394,0,0,0,.051-.447c0-.021,0-.016,0-.018l-.092-.131-.172-.212a32.57,32.57,0,0,0-3.866-3.213l.075-.115a23.617,23.617,0,0,1,4.315,2.822l.252.261.1.122a.84.84,0,0,1,.135.268,1.893,1.893,0,0,1,.023.815,8.292,8.292,0,0,1-.335,1.309,22.861,22.861,0,0,1-.978,2.4,86.931,86.931,0,0,1-4.881,9.005l-.246.4-.469-.059c-2.74-.345-5.408-.754-8.191-1.163a15.148,15.148,0,0,1-4.037-1.382A8.221,8.221,0,0,1,386.6,546a6.452,6.452,0,0,1-.513-.98c-.133-.324-.238-.668-.339-.989-.212-.644-.445-1.286-.7-1.917-.538-1.254-1.123-2.494-1.754-3.709a72.943,72.943,0,0,0-4.3-7l.144.145a13.357,13.357,0,0,1-3.5-2.932,5.066,5.066,0,0,1-1.078-2.227,2.908,2.908,0,0,1,.849-2.513l.175-.167.211-.011c1.9-.094,3.8-.178,5.7-.213l.156,0,.1.064c.951.61,1.936,1.19,2.911,1.776s1.964,1.15,2.962,1.713Z" transform="translate(-374.51 -523.489)"/></g><g transform="translate(8.464 123.69)"><path class="a" d="M375.189,525.079c.148,1.751.265,3.5.33,5.254.081,1.751.146,3.5.179,5.254l-.142-.378a24.8,24.8,0,0,1,4.984,7.7,5.706,5.706,0,0,1,.357,2.408c-.042.436-.242.828-.235,1.088a3.639,3.639,0,0,0,.1,1.018,9.635,9.635,0,0,0,2.192,3.776,14.072,14.072,0,0,0,3.416,2.806,7.673,7.673,0,0,0,2,.789,3.455,3.455,0,0,0,1.012.075c.311-.019.655-.13,1.071-.191a24.222,24.222,0,0,1,9.161.855l-.54.071a44.462,44.462,0,0,0,4.744-3.614A28.12,28.12,0,0,0,407.9,547.7a11.059,11.059,0,0,0,2.283-5.265,7.765,7.765,0,0,0-1.729-5.487l.1-.092a7.635,7.635,0,0,1,2.471,5.621,11.186,11.186,0,0,1-2.1,5.944,24.324,24.324,0,0,1-4.146,4.668,34.283,34.283,0,0,1-5.011,3.676l-.249.151-.29-.081a27.2,27.2,0,0,0-8.663-1.242c-.335.014-.722.108-1.164.107a4.486,4.486,0,0,1-1.22-.192,8.177,8.177,0,0,1-2.115-1.012,16.471,16.471,0,0,1-3.431-3.023,12.278,12.278,0,0,1-2.453-3.884,4.268,4.268,0,0,1-.224-1.207c-.008-.5.146-.813.137-1.13a4.908,4.908,0,0,0-.491-1.986,37.869,37.869,0,0,0-4.91-7.3l-.144-.181,0-.2c.029-1.752.093-3.5.172-5.254.062-1.751.176-3.5.322-5.254Z" transform="translate(-374.557 -525.079)"/></g><g transform="translate(1.752 140.136)"><path class="a" d="M401.287,551.728a8.062,8.062,0,0,1,1.744,3.651,5.791,5.791,0,0,1-.792,4.12,7.252,7.252,0,0,1-3.279,2.679,10.81,10.81,0,0,1-4.063.858,20.776,20.776,0,0,1-7.876-1.69,40.48,40.48,0,0,1-7.118-3.636,27.425,27.425,0,0,1-6.186-5.156,16.3,16.3,0,0,1-3.907-7.209,7.123,7.123,0,0,1,.382-4.3,6.17,6.17,0,0,1,3.093-2.981,14.976,14.976,0,0,1,8.011-.752l-.008.137c-2.62.108-5.328.368-7.52,1.569a4.966,4.966,0,0,0-2.364,2.546,6.088,6.088,0,0,0-.166,3.5,16.694,16.694,0,0,0,3.465,6.67,34.454,34.454,0,0,0,5.631,5.371,24.874,24.874,0,0,0,6.84,3.834,18.34,18.34,0,0,0,7.659.967c2.492-.216,5.075-1.026,6.525-2.993a5.117,5.117,0,0,0,.959-3.44,9.242,9.242,0,0,0-1.146-3.665Z" transform="translate(-369.65 -537.101)"/></g><g transform="translate(1.207 143.058)"><path class="a" d="M371.769,539.318a10.357,10.357,0,0,0-1.44,6.841,17.065,17.065,0,0,0,2.464,6.579,22.67,22.67,0,0,0,4.562,5.594,25.845,25.845,0,0,0,6.156,3.889,26.583,26.583,0,0,0,6.854,2.133,16.436,16.436,0,0,0,6.971-.33,8.14,8.14,0,0,0,5.3-3.945,8.051,8.051,0,0,0-.211-6.821l.12-.063a7.917,7.917,0,0,1,1.068,7.317,8.908,8.908,0,0,1-5.869,4.912,15.946,15.946,0,0,1-7.609.2,21.781,21.781,0,0,1-6.973-2.736,47.821,47.821,0,0,1-6.1-4.214,26.6,26.6,0,0,1-5.235-5.316,14.133,14.133,0,0,1-2.562-7.1,9.4,9.4,0,0,1,2.387-7.015Z" transform="translate(-369.252 -539.237)"/></g><g transform="translate(20.011 116.215)"><path class="a" d="M403.052,528.915c-.3,1.871-.75,3.629-1.155,5.457a22.375,22.375,0,0,1-.808,2.721,6.873,6.873,0,0,1-1.553,2.555,3.993,3.993,0,0,1-2.862,1.1,8.907,8.907,0,0,1-2.818-.633c-1.778-.658-3.393-1.573-5.15-2.148-.869-.319-1.759-.587-2.636-.989a4.443,4.443,0,0,1-3.056-4.971,15.559,15.559,0,0,1,.527-2.847,26.242,26.242,0,0,1,2.036-5.3,10.561,10.561,0,0,1,3.736-4.246l.081.109a12.972,12.972,0,0,0-2.848,4.59,37.79,37.79,0,0,0-1.59,5.2,20,20,0,0,0-.52,2.613,3.879,3.879,0,0,0,.3,2.305,4.573,4.573,0,0,0,1.824,1.575c.784.425,1.616.851,2.446,1.272A37.839,37.839,0,0,0,394,539.7c1.718.572,3.739.479,4.717-.836a15.361,15.361,0,0,0,2.164-4.781c.291-.875.588-1.762.933-2.632.341-.886.757-1.7,1.109-2.569Z" transform="translate(-382.998 -519.615)"/></g><g transform="translate(21.186 102.29)"><path class="a" d="M400.752,514.179a61,61,0,0,0-6.189-2.423,31.453,31.453,0,0,0-3.182-.829,13.833,13.833,0,0,0-3.151-.363l.354-.159c-1.186,1.181-2.352,2.384-3.565,3.538l.127-.692c1.153,2.5,2.177,5.062,3.239,7.6a66.5,66.5,0,0,0,3.476,7.466,11.406,11.406,0,0,0,2.443,3.187,5.278,5.278,0,0,0,3.685.982c2.7-.133,5.439-.49,8.168-.807,1.369-.152,2.744-.308,4.146-.389a9.85,9.85,0,0,1,4.416.473,3.051,3.051,0,0,1,.577.36,3.306,3.306,0,0,1,.458.473c.015.021.03,0-.064-.012s-.123.037-.083,0a2.43,2.43,0,0,0,.406-1.4,8.394,8.394,0,0,0-.822-3.672,20.466,20.466,0,0,0-4.784-6.365,63.089,63.089,0,0,0-6.43-5.1l.072-.118a43.376,43.376,0,0,1,6.966,4.529,20.393,20.393,0,0,1,5.4,6.488,9.535,9.535,0,0,1,1.046,4.3,3.434,3.434,0,0,1-.878,2.427,1.35,1.35,0,0,1-1.016.367,1.389,1.389,0,0,1-.937-.512,1.346,1.346,0,0,0-.549-.457,9.215,9.215,0,0,0-3.721-.423c-1.346.041-2.711.159-4.081.274a76.966,76.966,0,0,1-8.3.379,6.044,6.044,0,0,1-4.037-1.372,12.95,12.95,0,0,1-2.464-3.4c-2.532-4.914-5.06-9.807-7.443-14.768l-.183-.383.312-.31c1.183-1.183,2.417-2.319,3.628-3.475l.166-.16h.19a14.694,14.694,0,0,1,3.46.483,26.55,26.55,0,0,1,3.224,1.067,35.545,35.545,0,0,1,5.979,3.072Z" transform="translate(-383.857 -509.436)"/></g><g transform="translate(24.916 102.839)"><path class="a" d="M387.255,509.868c-.421,3.357,1.315,6.216,3.011,8.959a35.519,35.519,0,0,0,2.781,4.1,34.206,34.206,0,0,0,3.468,3.573,7.3,7.3,0,0,0,4.153,1.9,30.5,30.5,0,0,0,4.844-.1,11.067,11.067,0,0,1,5.153.791,7.471,7.471,0,0,1,3.527,3.717l-.115.075a8.545,8.545,0,0,0-3.814-2.8,11.951,11.951,0,0,0-4.677-.327,21.239,21.239,0,0,1-5.116-.083,7.246,7.246,0,0,1-4.5-2.661c-1.056-1.294-2.126-2.57-3.259-3.8s-2.339-2.4-3.382-3.743a14.426,14.426,0,0,1-2.362-4.546,7.27,7.27,0,0,1,.156-5.09Z" transform="translate(-386.583 -509.837)"/></g><g transform="translate(26.81 83.805)"><path class="a" d="M395.575,496.116a59.006,59.006,0,0,0-4.617,4.12,10.12,10.12,0,0,0-1.848,2.356,1.484,1.484,0,0,0-.17.568.4.4,0,0,0,.027.185,1.279,1.279,0,0,0,.134.275,5.147,5.147,0,0,0,.941,1.047,47.729,47.729,0,0,1,4.721,4.235,18,18,0,0,1,1.952,2.579c.592.9,1.051,1.91,1.543,2.758,2,3.551,5.569,6.023,9.223,7.995,1.818,1.029,3.721,1.967,5.5,3.068a18.974,18.974,0,0,0,2.8,1.315,8.991,8.991,0,0,0,1.454.4,3.942,3.942,0,0,0,.717.064,1.568,1.568,0,0,0,.525-.081l-.131.145a12.208,12.208,0,0,0,1.018-3.434,5.425,5.425,0,0,0-.442-3.309l-.238-.432.431-.334a7.834,7.834,0,0,0,2.776-3.588,3.429,3.429,0,0,0,.168-1.011,1.385,1.385,0,0,0-.443-.352,14.127,14.127,0,0,0-2.207-.859,50.421,50.421,0,0,1-9.393-3.844,38.987,38.987,0,0,1-8.172-6.055A41.731,41.731,0,0,1,395.575,496.116Zm.068-.141a51.844,51.844,0,0,0,6.848,7.254,40.775,40.775,0,0,0,8.178,5.542,61.823,61.823,0,0,0,9.207,3.7,14.962,14.962,0,0,1,2.442,1.027,3,3,0,0,1,.646.5,1.537,1.537,0,0,1,.45,1,4.633,4.633,0,0,1-.26,1.456,8.8,8.8,0,0,1-3.364,4.168l.194-.766a6.5,6.5,0,0,1,.414,4.018,12.547,12.547,0,0,1-1.319,3.663l-.06.112-.072.037a1.867,1.867,0,0,1-1.008.176,4.9,4.9,0,0,1-.843-.123,9.7,9.7,0,0,1-1.549-.517,22.984,22.984,0,0,1-2.822-1.488c-1.78-1.118-3.581-2.152-5.457-3.11a49.589,49.589,0,0,1-5.445-3.232,17.369,17.369,0,0,1-4.51-4.579c-.6-.941-1.01-1.854-1.59-2.692a23.9,23.9,0,0,0-1.865-2.414,47.669,47.669,0,0,0-4.533-4.267,5.764,5.764,0,0,1-1.108-1.326,2.593,2.593,0,0,1-.183-.442,1.419,1.419,0,0,1-.056-.59,2.4,2.4,0,0,1,.316-.915,10.856,10.856,0,0,1,2.16-2.458,38.077,38.077,0,0,1,5.094-3.754l.055-.034Z" transform="translate(-387.968 -495.923)"/></g><g transform="translate(34.409 83.829)"><path class="a" d="M420.639,515.145c-1.492-1.676-2.848-3.406-4.3-5.023-.731-.8-1.421-1.628-2.2-2.358a11.772,11.772,0,0,0-2.709-1.819c-1.969-1-4.142-1.687-6.072-2.9a24.134,24.134,0,0,1-5.207-4.35l.3.187c-1.178-.4-2.342-.836-3.5-1.294-1.153-.476-2.305-.949-3.432-1.512l.041-.131c1.246.172,2.465.432,3.687.691,1.215.275,2.423.57,3.62.907l.153.044.148.144a48.153,48.153,0,0,0,4.86,4.335,28.671,28.671,0,0,0,5.588,3.5c.995.492,2.06.877,3.055,1.494a10.921,10.921,0,0,1,2.587,2.26,21.376,21.376,0,0,1,3.5,5.759Z" transform="translate(-393.523 -495.941)"/></g><g transform="translate(33.863 71.408)"><path class="a" d="M419.5,516.371a11.466,11.466,0,0,0,3.036-2.138,4.5,4.5,0,0,0,1.026-3.248,15.471,15.471,0,0,0-2.588-6.781,30.432,30.432,0,0,0-4.616-5.986,30.839,30.839,0,0,0-6.093-4.543,70.708,70.708,0,0,0-6.75-3.46,29.809,29.809,0,0,0-3.508-1.305,11.67,11.67,0,0,0-3.513-.591c-1.164.019-1.91.484-2.051,1.549a8.066,8.066,0,0,0,.525,3.469c.821,2.383,1.726,4.783,2.628,7.175l-.122.059a63.987,63.987,0,0,1-3.51-6.863,9.1,9.1,0,0,1-.83-4,2.921,2.921,0,0,1,1.1-2.123,3.929,3.929,0,0,1,2.193-.721c2.87-.018,5.272,1.111,7.624,2.185a43.229,43.229,0,0,1,6.621,4,62.2,62.2,0,0,1,5.989,4.85,36.411,36.411,0,0,1,5.264,5.685,16.741,16.741,0,0,1,1.885,3.457,10.221,10.221,0,0,1,.81,3.94,5.211,5.211,0,0,1-1.568,3.751,5.548,5.548,0,0,1-1.691,1.077,13.291,13.291,0,0,1-1.81.689Z" transform="translate(-393.124 -486.861)"/></g><g transform="translate(39.753 58.561)"><path class="a" d="M414.492,501.125a16.6,16.6,0,0,0,3.544-10.832,10.408,10.408,0,0,0-.386-2.836,12.588,12.588,0,0,0-1.224-2.669,14.057,14.057,0,0,0-3.989-4.308,8.868,8.868,0,0,0-5.267-1.725,7.9,7.9,0,0,0-4.881,2.283,10.9,10.9,0,0,0-1.007,1,12.447,12.447,0,0,0-.843,1.1,13.838,13.838,0,0,0-1.349,2.538,19.475,19.475,0,0,0-1.416,5.709h-.135a14.621,14.621,0,0,1,.546-6.072,15.136,15.136,0,0,1,1.234-2.871,8.976,8.976,0,0,1,.908-1.33,12.154,12.154,0,0,1,1.077-1.156,8.549,8.549,0,0,1,5.84-2.494,8.764,8.764,0,0,1,5.752,2.42,23.006,23.006,0,0,1,3.9,4.662,22.281,22.281,0,0,1,1.564,2.64,10.6,10.6,0,0,1,.807,3.026,13.035,13.035,0,0,1-.941,6.116,11.271,11.271,0,0,1-3.642,4.889Z" transform="translate(-397.429 -477.47)"/></g><g transform="translate(43.321 33.867)"><path class="a" d="M406.62,484.8c-1-1.532-2-3.063-3.1-4.509a19.954,19.954,0,0,0-1.717-2.068c-.311-.342-.607-.508-1.034-.919a2.688,2.688,0,0,1-.694-1.48,7.635,7.635,0,0,1,.36-2.906c.245-.9.528-1.776.8-2.648l1.6-5.238c.279-.878.566-1.758.915-2.632a6.09,6.09,0,0,1,1.6-2.524,2.1,2.1,0,0,1,1.665-.42,4.669,4.669,0,0,1,1.421.521c.814.462,1.592.859,2.423,1.261a56.194,56.194,0,0,0,10.227,3.83c1.759.408,3.572.866,5.29.332a2.91,2.91,0,0,1,1.555.042,2.381,2.381,0,0,1,1.141,1.137c.461.844.829,1.64,1.305,2.4a33.151,33.151,0,0,0,3.306,4.27,15.666,15.666,0,0,1,2.933,4.873,11.621,11.621,0,0,1,.4,5.757,21.319,21.319,0,0,1-1.767,5.368c-.757,1.658-1.471,3.332-2.176,5.006-.349.837-.684,1.68-.988,2.527-.15.423-.3.848-.417,1.27-.062.211-.118.421-.161.625l-.053.293-.012.123v.037c-.014-.022.033.072-.047-.129l.33.839-.836-.042c-2.215-.109-4.42-.305-6.629-.486s-4.413-.434-6.6-.8l.019-.135c2.2.178,4.416.156,6.624.223l6.628.1-.506.8a.723.723,0,0,1-.074-.3l0-.134.011-.22c.012-.135.033-.26.053-.383.044-.246.1-.48.153-.711.115-.461.246-.908.386-1.354.279-.886.588-1.758.907-2.624.633-1.73,1.358-3.421,2.082-5.108,1.45-3.245,2.482-6.817,1.41-10.12-.992-3.328-4.029-5.726-5.833-9.066-.45-.821-.8-1.711-1.175-2.5a1.634,1.634,0,0,0-.689-.83,2.215,2.215,0,0,0-1.152-.067,7.919,7.919,0,0,1-1.4.174,9.219,9.219,0,0,1-1.412-.127q-1.379-.236-2.709-.6a104.586,104.586,0,0,1-10.383-3.673c-.841-.342-1.718-.722-2.523-1.115-.8-.369-1.607-.554-2.067-.078a6.126,6.126,0,0,0-1.174,2.152c-.311.832-.579,1.7-.836,2.568-.482,1.747-1.063,3.52-1.661,5.243-.294.866-.6,1.728-.849,2.584a7.4,7.4,0,0,0-.412,2.494,1.73,1.73,0,0,0,.389.995c.213.242.676.6.962.959a20.38,20.38,0,0,1,1.659,2.253,49.123,49.123,0,0,1,2.672,4.824Z" transform="translate(-400.037 -459.419)"/></g><g transform="translate(45.851 46.792)"><path class="a" d="M416.683,491.491a31.828,31.828,0,0,1,4.078-.339,3.311,3.311,0,0,0,1.7-.477,4.592,4.592,0,0,0,1.183-1.353c.692-1.079,1.289-2.343,2.015-3.49a22.8,22.8,0,0,0,1.927-3.479,2.307,2.307,0,0,0,.064-1.773,2.729,2.729,0,0,0-1.4-1.215,15.876,15.876,0,0,1-3.369-2.406,42.772,42.772,0,0,1-5.646-6l.358.243a43.016,43.016,0,0,0-4.547-.732,29.9,29.9,0,0,0-4.566-.176,9.288,9.288,0,0,0-4.25,1.108,4.722,4.722,0,0,0-2.174,3.7h-.137a5.312,5.312,0,0,1,.29-2.409,4.806,4.806,0,0,1,1.512-2.015A9.341,9.341,0,0,1,408.36,469a20.841,20.841,0,0,1,4.843.021,31.138,31.138,0,0,1,4.724.919l.223.06.137.185a72.793,72.793,0,0,0,5.025,6.327,11.466,11.466,0,0,0,3.122,2.484,3.478,3.478,0,0,1,1.669,1.354,3.093,3.093,0,0,1,.187,2.205,17.812,17.812,0,0,1-1.6,3.858,39.022,39.022,0,0,1-2.079,3.566A5.378,5.378,0,0,1,423,491.562a4.059,4.059,0,0,1-2.23.406c-1.394-.077-2.71-.26-4.082-.341Z" transform="translate(-401.887 -468.867)"/></g></g><g transform="translate(6.548 134.798)"><g transform="translate(8.245 4.787)"><path class="a" d="M340.323,554.682a3.487,3.487,0,0,0,.985.137l-.027,1.122c-3.516-.055-8.3.014-14.993.123-20.164.356-22.654,2-25.978,3.871s-3.557,1.409-1.683-1.409,2.189-3.748.917-7.456a1.959,1.959,0,0,1,.684-.369c1.847-.561,2.38,2.093,3.83,2.531a12.075,12.075,0,0,0,4.487-.068c1.259-.342.958-.7,2.271-.6a12.06,12.06,0,0,1,2.066.534,17.471,17.471,0,0,0,4.856.438c6.129,0,11.943-.506,18.057-.479C337.819,553.067,338.517,554.135,340.323,554.682Z" transform="translate(-297.451 -529.574)"/><path class="a" d="M340.53,557.025c-2.025-1.368-3.967-1.874-11.04-1.97l.027-1.122c1.792,0,3.584-1.231,5.6-.821,1.642.342,2.462,1.231,4.35,1.245,1.628.014,3.27-.068,4.884,0,2.3.109,3.844,1.409,6.142,1.409,1.2,0,2.38.315,3.571.328.15,0,.328-.014.492-.027a10.427,10.427,0,0,1-3.01,2.982c-2.339,1.724-3.434,5.157-4.063,5.472S343.567,559.05,340.53,557.025Z" transform="translate(-285.661 -528.689)"/><path class="a" d="M346.312,560.412c.821-.342,1.683,1.45.52,2.353C346.161,563.271,345.491,560.767,346.312,560.412Z" transform="translate(-279.61 -525.988)"/><path class="a" d="M338.232,542.732a1.29,1.29,0,0,1-1.642,1.86C335.769,544.059,337.411,541.377,338.232,542.732Z" transform="translate(-283.13 -532.617)"/><path class="a" d="M336.519,536.809c1.19-.52,1.915,2.025,1.053,2.134C336.04,539.148,335.343,537.342,336.519,536.809Z" transform="translate(-283.292 -534.684)"/><path class="a" d="M334.024,557.8c.588.41.315,2.394-1.409,1.354C332.054,558.825,333.436,557.4,334.024,557.8Z" transform="translate(-284.559 -526.959)"/><path class="a" d="M323.927,535.556c2.066-1.409,4.87,2.216,4.036,3.625S321.875,536.965,323.927,535.556Z" transform="translate(-287.882 -535.236)"/><path class="a" d="M326.762,562.213c1.161.629-.246,1.327-.944,1.094S325.586,561.57,326.762,562.213Z" transform="translate(-287.133 -525.368)"/><path class="a" d="M324.994,543.15c.561,1.286-1.984,1.751-2.353.93S324.42,541.864,324.994,543.15Z" transform="translate(-288.197 -532.516)"/><path class="a" d="M321.541,557.489c.821,1.3-.711,1.532-1.176,1.3S320.8,556.34,321.541,557.489Z" transform="translate(-289.066 -527.169)"/><path class="a" d="M317.379,538.186c.4-.944,2.695,1.053,1.765,2S316.668,539.869,317.379,538.186Z" transform="translate(-290.185 -534.242)"/><path class="a" d="M311.486,537.217c1.163-.725,2.462,1.642.93,2.462S308.312,539.173,311.486,537.217Z" transform="translate(-292.842 -534.558)"/><path class="a" d="M308.078,558.77a.6.6,0,1,1,0,1.19C307.366,559.851,307.134,558.77,308.078,558.77Z" transform="translate(-293.77 -526.576)"/></g><g transform="translate(13.997)"><path class="a" d="M301.894,555.255a14.4,14.4,0,0,1,2.185-10.274,22.977,22.977,0,0,1,7.694-7.4,38.813,38.813,0,0,1,9.854-3.925,56.4,56.4,0,0,1,10.415-1.785,33.612,33.612,0,0,1,20.488,4.837,30.6,30.6,0,0,1,7.988,7.094,17.952,17.952,0,0,1,4.055,9.732l-.135.015a19.506,19.506,0,0,0-4.746-9.068,32.887,32.887,0,0,0-7.922-6.528,36.567,36.567,0,0,0-19.7-5.334,37.7,37.7,0,0,0-10.327,1.464,34.609,34.609,0,0,0-9.367,4.461,26.374,26.374,0,0,0-7.42,7,15.723,15.723,0,0,0-2.932,9.681Z" transform="translate(-301.656 -531.737)"/></g><g transform="translate(12.828 46.473)"><path class="a" d="M300.943,565.709c.413,2.964,1.23,6.04,3.454,7.885,2.187,1.856,5.189,2.491,8.1,3.062a95.543,95.543,0,0,0,18.044,1.659c6.056-.008,12.107-.017,18.1-.468A48.631,48.631,0,0,0,357.5,576.6a8.557,8.557,0,0,0,3.828-1.878,7.569,7.569,0,0,0,1.049-1.884,19.919,19.919,0,0,0,.777-2.12l.134.03a14.75,14.75,0,0,1-.5,2.241,6.889,6.889,0,0,1-.936,2.179,8.832,8.832,0,0,1-4.04,2.454,40.35,40.35,0,0,1-9.059,1.683,115.368,115.368,0,0,1-18.246-.239c-3.027-.246-6.049-.521-9.077-.7s-6.07-.2-9.116-.581a22.519,22.519,0,0,1-4.527-1.026,11.172,11.172,0,0,1-4.107-2.376,8.969,8.969,0,0,1-2.375-4.085,15.446,15.446,0,0,1-.5-4.576Z" transform="translate(-300.801 -565.709)"/></g><g transform="translate(0 18.052)"><path class="a" d="M306.205,550.847a13.756,13.756,0,0,0-1.338-.966,2.858,2.858,0,0,0-1.544-.413h-.079l-.007-.078a13.623,13.623,0,0,1,.06-1.927,1.814,1.814,0,0,0-2.09-2.272,12.9,12.9,0,0,0-1.88.191,5.3,5.3,0,0,0-3.263,1.553c-.75.971-.174,2.286.557,3.227l.126.164-.131.17c-.8,1.025-2.088,1.186-3.01,1.6a2.162,2.162,0,0,0-1.085.888,2.632,2.632,0,0,0-.291,1.393,3.686,3.686,0,0,0,1.083,2.636c.654.531,1.776.343,2.806.2a9.8,9.8,0,0,0,1.5-.373,2.942,2.942,0,0,0,1.144-.811c.695-.733,1.182-1.718,2.019-2.629a2.759,2.759,0,0,1,1.809-.945,2.417,2.417,0,0,1,1.91.881c.428.449.739.907,1.07,1.26a2,2,0,0,0,.487.4.877.877,0,0,0,.246.094,2.13,2.13,0,0,0,.339.067,13.462,13.462,0,0,0,3.138-.019,3.885,3.885,0,0,0,1.379-.413,2.3,2.3,0,0,1,1-.327,3.844,3.844,0,0,1,.484,0l.248.015.207.026a10.31,10.31,0,0,1,1.694.466c.242.077.49.13.767.2.261.056.5.108.759.148a22.394,22.394,0,0,0,3.226.2c4.4.064,8.8-.123,13.223-.194l3.315-.03h1.658a5.067,5.067,0,0,1,1.707.289c1.092.417,1.959,1.1,2.985,1.379a5.648,5.648,0,0,0,3.129-.306,6.969,6.969,0,0,1,3.354-.387c1.141.211,2.111.839,3.13,1.086a14.382,14.382,0,0,0,3.237.122c1.1-.018,2.211-.051,3.334.03a15.826,15.826,0,0,1,3.253.873,9.043,9.043,0,0,0,1.554.368c.512.079,1.037.036,1.628.085a19.87,19.87,0,0,0,3.245.217,5.055,5.055,0,0,1,1.741.036,11.047,11.047,0,0,0,1.6.171,19.823,19.823,0,0,0,3.228.052c1.037-.1,2.056-.39,2.328-1.241.739-1.713-.659-4.108-2.5-4.146l-.985-.019.535-.866a5.875,5.875,0,0,0,.988-2.268,2,2,0,0,0-.176-1.023l-.063-.12c0-.007-.037-.068-.014-.033l-.047-.072a2.6,2.6,0,0,0-.181-.264,1.889,1.889,0,0,0-.354-.345,3.484,3.484,0,0,0-2.253-.4,13.168,13.168,0,0,0-2.586.2c-.658.163-1.07.784-1.534,1.581l-.167.293-.085.148c.036-.062-.057.119-.023.068l-.052.55a1.255,1.255,0,0,1-.3.662,1.2,1.2,0,0,1-.655.365,1.989,1.989,0,0,1-.506.045,1.827,1.827,0,0,1-.286-.022,1.244,1.244,0,0,1-.216-.049,2.019,2.019,0,0,1-.881-.61,6.805,6.805,0,0,1-.475-.592,2.482,2.482,0,0,0-.68-.735,3.558,3.558,0,0,0-2.246.072c-1.651.457-3.252,1.546-5.424,1.692a3.98,3.98,0,0,1-1.65-.289,2.033,2.033,0,0,1-1.286-1.487,8.128,8.128,0,0,0-.252-1.218.918.918,0,0,0-.624-.46,1.941,1.941,0,0,0-1.958.345c-.627.471-1.216,1.229-2,1.86a5.937,5.937,0,0,1-2.819,1.3,4.615,4.615,0,0,1-1.616-.049,3.262,3.262,0,0,1-1.536-.791c-.8-.769-1.205-1.611-1.769-2.059a2.152,2.152,0,0,0-.435-.272l-.205-.079a2.193,2.193,0,0,0-.308-.062,2.317,2.317,0,0,0-1.029.141c-.755.264-1.491.8-2.406,1.237-.274.116-.436.179-.68.267-.242.071-.5.165-.73.212a12.522,12.522,0,0,1-1.423.261c-.941.138-1.895.138-2.737.276a8.2,8.2,0,0,1-2.943.131,1.694,1.694,0,0,1-.833-.5,1.491,1.491,0,0,1-.248-.419,1.678,1.678,0,0,1-.1-.458c-.019-.575.055-.947-.1-1.152-.012-.014-.066-.085-.037-.053-.07-.057-.019-.005-.068-.041l-.283-.138-.621-.259c-.41-.159-.881-.336-1.249-.449a4.67,4.67,0,0,0-2.551.26,6.455,6.455,0,0,1-1.42.26,4.4,4.4,0,0,1-1.442-.223c-.848-.227-1.859-.569-2.378.06a1.983,1.983,0,0,0-.378,1.166,3.26,3.26,0,0,0,.48,1.235.692.692,0,0,1-.294.755,2.833,2.833,0,0,1-.621.373,1.817,1.817,0,0,1-1.451.026c-.9-.352-1.524-1.161-2.421-1.212a8.952,8.952,0,0,0-2.677.458A3.107,3.107,0,0,1,306.205,550.847Zm.086-.107a2.957,2.957,0,0,0,2.591.152,9.092,9.092,0,0,1,2.74-.5c1.022.064,1.676.9,2.5,1.187a1.544,1.544,0,0,0,1.233-.036c.368-.182.874-.479.748-.783a3.537,3.537,0,0,1-.536-1.308,2.322,2.322,0,0,1,.409-1.434,1.578,1.578,0,0,1,1.416-.551,8.332,8.332,0,0,1,1.4.253,3.883,3.883,0,0,0,1.283.156,5.915,5.915,0,0,0,1.283-.289,5.333,5.333,0,0,1,2.865-.376c.521.13.917.272,1.373.424l.666.246.346.15a1.507,1.507,0,0,1,.224.138,1.347,1.347,0,0,1,.186.208,2.845,2.845,0,0,1,.3,1.538.761.761,0,0,0,.056.213c.037.077.011.042.114.165a.9.9,0,0,0,.356.167,7.763,7.763,0,0,0,2.538-.257c.973-.2,1.874-.2,2.755-.36a11.134,11.134,0,0,0,1.289-.27c.219-.049.393-.126.592-.183.189-.072.453-.185.6-.253.746-.364,1.5-.956,2.48-1.341a3.514,3.514,0,0,1,1.683-.235,3.381,3.381,0,0,1,.372.066c.2.053.294.1.446.148a3.439,3.439,0,0,1,.747.436,26.759,26.759,0,0,1,1.862,2.093,1.781,1.781,0,0,0,.893.457,3.173,3.173,0,0,0,1.131.03,4.538,4.538,0,0,0,2.131-1.01c.658-.518,1.2-1.248,2.042-1.9a3.335,3.335,0,0,1,3.248-.575,2.344,2.344,0,0,1,1.476,1.208,6.977,6.977,0,0,1,.349,1.473c.105.321.124.357.449.506a2.465,2.465,0,0,0,1.051.174c1.564-.077,3.194-1.09,5.079-1.622a4.882,4.882,0,0,1,3.182.01,3.357,3.357,0,0,1,1.249,1.2c.135.185.263.36.382.491.093.127.287.234.215.209-.045.005.083.022.119.03-.094-.008.045,0,.057,0a.763.763,0,0,0,.181-.008c.047-.005-.007,0-.055.053s-.042.1-.033.033a3.75,3.75,0,0,1,.131-.815,1.51,1.51,0,0,1,.111-.249l.088-.152.179-.305a7.68,7.68,0,0,1,.866-1.241,3.039,3.039,0,0,1,1.457-.922,6.341,6.341,0,0,1,1.539-.2l1.375-.025a4.631,4.631,0,0,1,3.051.685,3.03,3.03,0,0,1,.617.629,3.1,3.1,0,0,1,.207.308l.047.074.064.12.093.187a3.117,3.117,0,0,1,.26,1.673,6.854,6.854,0,0,1-1.22,2.751l-.45-.886a4.181,4.181,0,0,1,3.342,5.716,2.543,2.543,0,0,1-1.4,1.373,5.635,5.635,0,0,1-1.763.382,20.428,20.428,0,0,1-3.379-.126,11.678,11.678,0,0,1-1.681-.22,4.33,4.33,0,0,0-1.55-.06,19.9,19.9,0,0,1-3.342-.294c-.506-.062-1.092-.03-1.672-.13a9.644,9.644,0,0,1-1.652-.434,15.65,15.65,0,0,0-3.1-.922,29.354,29.354,0,0,0-3.28-.081,14.527,14.527,0,0,1-3.357-.164c-1.126-.294-2.056-.914-3.1-1.111a6.433,6.433,0,0,0-3.152.36,6.068,6.068,0,0,1-3.362.346c-1.127-.3-2.053-1-3.033-1.353a9.629,9.629,0,0,0-3.194-.222c-1.1.011-2.2.062-3.3.108-4.4.2-8.815.524-13.241.587a23.711,23.711,0,0,1-3.382-.111c-.283-.034-.59-.093-.87-.146-.256-.06-.549-.125-.833-.212a10.6,10.6,0,0,0-1.492-.408l-.205-.023-.167-.007a2.8,2.8,0,0,0-.342,0,1.146,1.146,0,0,0-.549.2,5.024,5.024,0,0,1-1.766.553,14.367,14.367,0,0,1-3.465.051,4.028,4.028,0,0,1-.472-.089,2.17,2.17,0,0,1-.524-.2,3.285,3.285,0,0,1-.8-.631c-.428-.45-.74-.91-1.067-1.267a1.23,1.23,0,0,0-.955-.529,1.59,1.59,0,0,0-1.045.565c-.681.7-1.22,1.713-2.052,2.583A4.084,4.084,0,0,1,298,557.839a10.5,10.5,0,0,1-1.717.4,8.5,8.5,0,0,1-1.748.108,2.856,2.856,0,0,1-1.828-.631,4.5,4.5,0,0,1-1.287-3.345,3.393,3.393,0,0,1,.462-1.785,2.875,2.875,0,0,1,1.461-1.127c1.083-.4,2.2-.536,2.829-1.312l-.005.334a5.249,5.249,0,0,1-.855-1.811,2.3,2.3,0,0,1,.421-1.993,5.692,5.692,0,0,1,3.544-1.58,12.921,12.921,0,0,1,1.927-.168,2.035,2.035,0,0,1,2.294,2.539,13.487,13.487,0,0,0-.089,1.893l-.086-.079a3.041,3.041,0,0,1,1.62.458A14.263,14.263,0,0,1,306.291,550.74Z" transform="translate(-291.424 -544.933)"/></g><g transform="translate(7.336 26.388)"><path class="a" d="M359.218,566.3c-.62,0-1.241-.815-2.54-2.516s-3.083-4.04-4.713-5.127c-2.829-1.9-5.468-2.077-25.64-1.725-19.58.339-22.3,1.882-25.457,3.668l-.2.115c-2,1.129-3.049,1.55-3.633.918-.572-.616-.118-1.553,1.045-3.3,1.789-2.683,2.014-3.435.839-6.859l1.293-.445c1.343,3.914.988,5.093-.993,8.063-.368.553-.61.949-.766,1.233.337-.151.828-.4,1.543-.8l.2-.114c3.317-1.878,6.181-3.5,26.107-3.845,20.03-.349,23.133-.25,26.427,1.956,1.817,1.214,3.679,3.653,5.038,5.434.475.62,1.034,1.354,1.393,1.747.124-.218.291-.518.436-.784a13.04,13.04,0,0,1,3.354-4.349,10.236,10.236,0,0,0,2.818-2.762l1.208.643a11.11,11.11,0,0,1-3.216,3.222,11.743,11.743,0,0,0-2.966,3.906c-.5.914-.778,1.416-1.2,1.624A.858.858,0,0,1,359.218,566.3Z" transform="translate(-296.787 -551.027)"/></g><g transform="translate(2.109 30.822)"><path class="a" d="M362.635,570.148a41.364,41.364,0,0,1-6.624-.795c-.8-.137-1.632-.278-2.494-.414a37.124,37.124,0,0,0-9.007.059,84.378,84.378,0,0,1-17.687-.055c-6.153-.678-9.435-.941-11.394-1.1a25.354,25.354,0,0,1-5.343-.792,14.3,14.3,0,0,1-3.218-1.222,11.777,11.777,0,0,0-5.451-1.339c-3.28-.213-5.746-1.308-7.131-3.164-1.319-1.763-1.651-4.14-.99-7.057l1.334.3c-.568,2.51-.316,4.509.751,5.939,1.14,1.525,3.257,2.429,6.125,2.617a13.046,13.046,0,0,1,5.971,1.479,12.955,12.955,0,0,0,2.943,1.12,24.028,24.028,0,0,0,5.12.755c1.967.159,5.26.424,11.434,1.1a82.819,82.819,0,0,0,17.426.051,38.72,38.72,0,0,1,9.334-.047c.866.137,1.7.28,2.509.419,5.246.895,9.031,1.539,11.535-1.146,2.665-2.862,3.958-5.486,3.643-7.39a4.1,4.1,0,0,0-2.412-2.893l.646-1.205a5.44,5.44,0,0,1,3.116,3.876c.494,2.988-1.9,6.3-3.99,8.545A7.808,7.808,0,0,1,362.635,570.148Z" transform="translate(-292.966 -554.268)"/></g><g transform="translate(5.906 40.282)"><path class="a" d="M299.923,561.234a1.141,1.141,0,0,1-.558.748,2.771,2.771,0,0,1-.885.291,3.529,3.529,0,0,0-1.573.487,1.268,1.268,0,0,0-.524,1.3c.12.49.424,1.04.616,1.629.2.553.373,1.161.68,1.284a4.446,4.446,0,0,0,1.561.182,8.687,8.687,0,0,0,3.285-.263l.549-.227.187.621c.037.119.079.161.3.241a2.606,2.606,0,0,0,.8.066,17.721,17.721,0,0,0,1.9-.258,2.444,2.444,0,0,1,1.28,0,3.445,3.445,0,0,1,.943.765l.677.717a1.165,1.165,0,0,0,.573.327,10.141,10.141,0,0,0,3.658.086,4.231,4.231,0,0,0,.8-.207,3.983,3.983,0,0,0,.743-.456,5.586,5.586,0,0,1,1.836-1.1,6.818,6.818,0,0,1,2.125-.09,20.015,20.015,0,0,1,2.026,0,3.16,3.16,0,0,1,.313.085,2.772,2.772,0,0,1,.257.114,1.793,1.793,0,0,1,.494.375,5.539,5.539,0,0,1,.573.88,2.823,2.823,0,0,0,.573.67,1.577,1.577,0,0,0,.769.334,3.213,3.213,0,0,1,1.938.791,3.606,3.606,0,0,0,1.461,1.129c1.17.42,2.465-.167,3.551-.819,1.122-.665,2.193-1.445,3.413-2.034a5.824,5.824,0,0,1,1.969-.592,2.637,2.637,0,0,0,1.636-.689,3.336,3.336,0,0,1,.953-.547,3.738,3.738,0,0,1,.529-.122,4.814,4.814,0,0,1,.557-.042c.7-.018,1.358.068,1.94.007a8.794,8.794,0,0,0,.932-.17,2.274,2.274,0,0,1,1.233.041,2.377,2.377,0,0,1,1.01.756,2.755,2.755,0,0,1,.5,1.093A4.433,4.433,0,0,0,346,570.28l.051.052c-.005,0,.047.047-.007,0l.048.04c.06.048.141.12.165.119a1.466,1.466,0,0,0,.294.126,3.288,3.288,0,0,0,.815.129c.6.034,1.233-.027,1.933-.038a3.965,3.965,0,0,1,1.153.13,5.786,5.786,0,0,1,1.031.42,2.253,2.253,0,0,0,2.878-.034,1.847,1.847,0,0,0,.543-1.239c-.051-.148.1.026-.185-.185a2.131,2.131,0,0,1-.551-.435,1.664,1.664,0,0,1-.369-.808l-.082-.48.41-.245a3.747,3.747,0,0,1,1.145-.5,2.221,2.221,0,0,1,1.412.161,8.255,8.255,0,0,0,1.7.766c.231.059.494.029.977.112a2.019,2.019,0,0,1,.695.265l.081.048.088.063.1.077a2.065,2.065,0,0,1,.294.3,2.442,2.442,0,0,1,.457,1.26.919.919,0,0,0,.26.585,1.81,1.81,0,0,0,1.3.482c.6.047,1.26-.008,2.031.068,1.454.216,2.7.781,3.4.119a1.724,1.724,0,0,0,.259-.275c.033-.031.1-.151.1-.127a1.325,1.325,0,0,0,.093-.192,2.355,2.355,0,0,0,.075-.758,4.185,4.185,0,0,1,.083-1.138,1.664,1.664,0,0,1,.852-1.075,3.755,3.755,0,0,1,2.242-.083c.6.071.865-.133,1.074-.751.259-.962-.815-2.207-1.787-2.828a3.032,3.032,0,0,0-1.815.075,7.958,7.958,0,0,1-1.99.367v-.135a7.934,7.934,0,0,0,1.9-.528,3.273,3.273,0,0,1,2.109-.212,5.033,5.033,0,0,1,1.653,1.324,2.549,2.549,0,0,1,.652,2.172l-.072.242a2.284,2.284,0,0,1-.135.3,1.646,1.646,0,0,1-.41.51,1.8,1.8,0,0,1-1.228.342c-.732-.044-1.368-.156-1.7.073a.658.658,0,0,0-.335.462,3.489,3.489,0,0,0-.016.856,3.045,3.045,0,0,1-.127,1.224,1.946,1.946,0,0,1-.116.26,3.22,3.22,0,0,1-.183.29,2.661,2.661,0,0,1-2.756,1.1c-.737-.085-1.379-.274-1.964-.316-.562-.044-1.239.035-1.974,0a3.107,3.107,0,0,1-2.305-.988,2.364,2.364,0,0,1-.55-1.215c-.059-.391-.092-.522-.174-.613l-.053-.06-.1-.075s-.068-.052-.015-.009l-.027-.014a.609.609,0,0,0-.238-.086c-.172-.044-.591-.021-1.014-.111a8.731,8.731,0,0,1-1.962-.837.772.772,0,0,0-.54-.069,2.463,2.463,0,0,0-.677.316l.328-.725c.053.105-.052.031.263.242a1.945,1.945,0,0,1,.576.509,1.509,1.509,0,0,1,.268.866,3.231,3.231,0,0,1-3.311,3.16,4.621,4.621,0,0,1-2.135-.684,2.96,2.96,0,0,0-1.588-.447c-.617-.005-1.3.052-2.018-.005a4.373,4.373,0,0,1-1.12-.227,2.42,2.42,0,0,1-.6-.3,1.808,1.808,0,0,1-.226-.179l-.047-.04a.846.846,0,0,1-.092-.094l-.114-.133a4.884,4.884,0,0,1-.632-2.111,1.585,1.585,0,0,0-.283-.7,1.418,1.418,0,0,0-.529-.445c-.33-.186-1,.051-1.736.084-1.456.048-2.684-.465-3.642.371a4.589,4.589,0,0,1-.925.532,4.056,4.056,0,0,1-1.052.192,5.245,5.245,0,0,0-1.819.458c-1.168.529-2.252,1.291-3.406,1.951a8.5,8.5,0,0,1-1.847.821,3.388,3.388,0,0,1-2.075.041,4.048,4.048,0,0,1-1.669-1.207,2.755,2.755,0,0,0-1.673-.6,2.2,2.2,0,0,1-1.045-.393A3.493,3.493,0,0,1,322,569.2c-.4-.639-.65-.992-1.205-1.055-.531-.057-1.219.118-1.921.119a6.258,6.258,0,0,0-1.8.152,4.7,4.7,0,0,0-1.461,1.022,4.479,4.479,0,0,1-.921.6,4.81,4.81,0,0,1-1.1.327,11.131,11.131,0,0,1-4.194-.042,2.291,2.291,0,0,1-1.111-.658l-.665-.733a4.159,4.159,0,0,0-.543-.521,2.753,2.753,0,0,0-.67.056,18.719,18.719,0,0,1-2.022.226,3.6,3.6,0,0,1-1.157-.138,1.424,1.424,0,0,1-1.015-1.088l.736.393a8.288,8.288,0,0,1-3.765.215,4.785,4.785,0,0,1-1.926-.39,1.707,1.707,0,0,1-.687-.9c-.116-.309-.19-.6-.275-.881-.137-.554-.416-1.062-.535-1.74a1.612,1.612,0,0,1,.175-1.044,2.4,2.4,0,0,1,.669-.736,3.742,3.742,0,0,1,1.824-.436c.562-.056,1.183-.175,1.362-.769Z" transform="translate(-295.741 -561.183)"/></g><path class="a" d="M307.91,560.2a.592.592,0,1,0,0-1.183C306.973,559.014,307.207,560.091,307.91,560.2Z" transform="translate(-285.585 -521.699)"/><path class="a" d="M321.376,557.733c-.737-1.159-1.642,1.055-1.171,1.289S322.2,559.021,321.376,557.733Z" transform="translate(-280.881 -522.294)"/><path class="a" d="M332.459,559.4c1.711,1.027,1.993-.956,1.406-1.357S331.893,559.059,332.459,559.4Z" transform="translate(-276.373 -522.083)"/><path class="a" d="M346.67,563c1.167-.9.3-2.695-.521-2.343S346,563.512,346.67,563Z" transform="translate(-271.425 -521.112)"/><path class="a" d="M325.657,563.55c-.7-.235-.235-1.737.938-1.1S326.36,563.786,325.657,563.55Z" transform="translate(-278.948 -520.493)"/><path class="a" d="M311.32,537.456c-3.17,1.958-.587,3.28.938,2.461S312.487,536.735,311.32,537.456Z" transform="translate(-284.657 -529.682)"/><path class="a" d="M317.219,538.426c-.713,1.681.821,2.934,1.759,1.995S317.62,537.482,317.219,538.426Z" transform="translate(-281.999 -529.366)"/><path class="a" d="M323.769,535.792c-2.053,1.406,3.185,5.036,4.023,3.631S325.824,534.385,323.769,535.792Z" transform="translate(-279.695 -530.362)"/><path class="a" d="M322.483,544.324c.368.821,2.912.352,2.343-.938S322.112,543.505,322.483,544.324Z" transform="translate(-280.01 -527.642)"/><path class="a" d="M336.425,544.833a1.293,1.293,0,0,0,1.639-1.867C337.246,541.613,335.6,544.305,336.425,544.833Z" transform="translate(-274.946 -527.743)"/><path class="a" d="M337.406,539.185c.871-.112.138-2.661-1.045-2.134S335.882,539.382,337.406,539.185Z" transform="translate(-275.106 -529.808)"/></g><g transform="translate(0 97.1)"><path class="a" d="M305.136,510.411c-2.015,1.358-4.037,2.687-6.089,4-1.049.655-2.138,1.2-3.145,1.834a8.45,8.45,0,0,0-2.561,2.22,5.51,5.51,0,0,0-.655,1.544,3.341,3.341,0,0,1-1.194,1.744,8.4,8.4,0,0,0-1.35,1.09,8.8,8.8,0,0,0-1.042,1.347l-.219.347-.219.4a7.45,7.45,0,0,0-.309.741,8.621,8.621,0,0,0-.406,1.651,9.288,9.288,0,0,0-.133,1.683,3.787,3.787,0,0,0,.46,1.509c.549.988,1.187,2.141,1.713,3.2a10.51,10.51,0,0,0,1.989,2.858,3.956,3.956,0,0,0,1.413.862,6.794,6.794,0,0,0,1.715.347,13.391,13.391,0,0,0,3.553-.287,34.983,34.983,0,0,0,3.5-.923,23.766,23.766,0,0,1,3.613-.666,20.361,20.361,0,0,0,3.534-.674,11.844,11.844,0,0,0,3.166-1.6l6.124-3.9a4.952,4.952,0,0,0,1.65-2.754,10.326,10.326,0,0,1,1.535-3.531,10.692,10.692,0,0,1,3.163-2.245,12.521,12.521,0,0,0,2.876-1.886,4.031,4.031,0,0,0,1.155-2.774,8.254,8.254,0,0,0-.666-3.254,14.144,14.144,0,0,0-1.694-3.016,30.734,30.734,0,0,0-2.332-2.643,7.424,7.424,0,0,0-2.791-1.843,7.2,7.2,0,0,0-3.279-.468c-.947.123-1.792,1.2-3.094,1.661a12.16,12.16,0,0,1-3.732.428,5.147,5.147,0,0,0-3.233,1.044c-.453.373-.859.83-1.334,1.234A2.657,2.657,0,0,1,305.136,510.411Zm-.026-.133c1.244-.108,1.877-1.293,2.755-2.142a5.45,5.45,0,0,1,3.469-1.412,11.62,11.62,0,0,0,3.453-.569c1.008-.352,1.706-1.516,3.211-1.88a8.221,8.221,0,0,1,3.884.389,8.666,8.666,0,0,1,3.313,2.021,23.882,23.882,0,0,1,2.533,2.77,15.6,15.6,0,0,1,1.886,3.309,9.615,9.615,0,0,1,.8,3.83,5.252,5.252,0,0,1-1.609,3.763,13.8,13.8,0,0,1-3.224,2.051,6.076,6.076,0,0,0-4.186,4.958,6.029,6.029,0,0,1-2.19,3.273c-2.108,1.293-4.224,2.443-6.346,3.64a12.5,12.5,0,0,1-3.389,1.52,28.218,28.218,0,0,1-3.635.585,23.359,23.359,0,0,0-3.555.6c-1.157.332-2.326.724-3.524.981a14.531,14.531,0,0,1-3.681.384,7.521,7.521,0,0,1-1.866-.271,4.692,4.692,0,0,1-1.729-.922,11.161,11.161,0,0,1-2.326-2.967c-.612-1.092-1.223-2.019-1.882-3.14a4.932,4.932,0,0,1-.616-1.943,11.551,11.551,0,0,1,.543-3.832,5.953,5.953,0,0,1,.4-.933l.227-.4.274-.417a9.668,9.668,0,0,1,1.217-1.5,9.3,9.3,0,0,1,1.5-1.171,2.188,2.188,0,0,0,.844-1.2,6.64,6.64,0,0,1,.809-1.774,8.51,8.51,0,0,1,2.979-2.419c1.082-.606,2.2-1.094,3.239-1.674,2.109-1.187,4.248-2.361,6.393-3.5l.015-.008Z" transform="translate(-286.638 -504.18)"/><g transform="translate(3.226 0.576)"><path class="a" d="M289.343,521.891c.267,2.122.2,4.473,1.68,5.784a3.455,3.455,0,0,0,2.446,1.109,20.127,20.127,0,0,0,2.995-.751,5.755,5.755,0,0,1,1.757-.126,10.585,10.585,0,0,1,1.639.423,1.86,1.86,0,0,0,2.293-1.183,5.03,5.03,0,0,1,.788-1.487,3.113,3.113,0,0,1,1.461-.907c.542-.164,1.081-.249,1.562-.424a6.265,6.265,0,0,0,1.358-.721c.44-.294.874-.614,1.354-.915a3.93,3.93,0,0,0,1.055-.956c.591-.754.951-1.809,1.721-2.755a5.358,5.358,0,0,1,1.384-1.217c.5-.3.986-.539,1.442-.792a7.556,7.556,0,0,0,1.212-.785,12.836,12.836,0,0,0,1-1.126,6.9,6.9,0,0,1,1.3-1.227c.49-.352.993-.611,1.387-.86a1.8,1.8,0,0,0,.777-.93,6.608,6.608,0,0,0,.22-.717c.063-.246.124-.5.172-.747a5.067,5.067,0,0,0-.119-2.96,15.879,15.879,0,0,0-1.264-2.936l.109-.082a11.842,11.842,0,0,1,1.8,2.756,5.672,5.672,0,0,1,.536,3.384c-.034.282-.079.562-.129.844a7.779,7.779,0,0,1-.2.848,3.083,3.083,0,0,1-1.135,1.609c-.488.372-.944.622-1.321.915a5.716,5.716,0,0,0-1.01,1.034,11.248,11.248,0,0,1-1.156,1.292,6.96,6.96,0,0,1-1.513.951c-.5.249-.992.465-1.43.706a4.028,4.028,0,0,0-1.071.869c-.636.7-1.071,1.717-1.873,2.624a4.422,4.422,0,0,1-1.439,1.078c-.465.222-.937.491-1.427.744a7.09,7.09,0,0,1-1.572.64c-.557.126-1.094.177-1.591.319a2.64,2.64,0,0,0-1.282.729,3.961,3.961,0,0,0-.692,1.372,2.579,2.579,0,0,1-2.834,1.766,12.181,12.181,0,0,0-1.531-.218,5.288,5.288,0,0,0-1.446.272,11.855,11.855,0,0,1-3.257.859,3.765,3.765,0,0,1-1.841-.462,5.715,5.715,0,0,1-1.4-1.126,5.16,5.16,0,0,1-1.245-3.235,20.309,20.309,0,0,1,.194-3.28Z" transform="translate(-288.996 -504.601)"/></g><path class="a" d="M298.011,514c-.528-.019-1.285-.16-1.743.182-.7.524-.311,1.207-.587,1.944-.581,1.562-2.321,2.475-2.568,4.183-.125.867.059,1.182-.473,1.9-.442.6-1.1,1.161-1.572,1.8-.376.512-1.5,1.125-1.707,1.587-.326.711.475,1.163,1.22.966.365-.1.553-.721.945-.885.28-.118.587.052.873-.034a2.2,2.2,0,0,0,1.7-1.289c.527-1.2.267-2.5.877-3.722a5.026,5.026,0,0,1,1.146-1.6,10.333,10.333,0,0,0,1.491-1.341c.205-.328.04-.673.192-1.012.131-.3.492-.512.636-.832C298.7,515.279,298.886,514.036,298.011,514Z" transform="translate(-285.663 -500.581)"/><path class="a" d="M304.326,509.2c-1.625.182-2.042,2.146-2.635,3.445-.748,1.639-.246,3.406-1.346,4.854-.941,1.242-2.72,1.951-3.3,3.517-.115.316-.352,1.305-.071,1.59.432.436,1.72-.362,2.313-.536,1.826-.534,1.2-1.379,1.506-2.918.287-1.454,1.424-2.28,2.264-3.376.758-.993,1.023-2.535,1.585-3.668.2-.412.873-1.153.81-1.643C305.339,509.568,304.573,509.944,304.326,509.2Z" transform="translate(-282.881 -502.334)"/><path class="a" d="M310.693,505.839c-2.208,2.07-3.33,5.538-4.62,8.229a6.387,6.387,0,0,0-.906,3.227c-.012,1.651.644,1.665,1.68.332a37.016,37.016,0,0,0,3.46-5.98c.471-.934.884-1.828,1.272-2.792.331-.825,1.223-1.949,1.048-2.843C311.81,505.9,311.461,506.174,310.693,505.839Z" transform="translate(-279.819 -503.569)"/><path class="a" d="M298.748,523.642c-.662,1.627,1.439,2,1.672.769S299.41,522.014,298.748,523.642Z" transform="translate(-282.229 -497.312)"/><path class="a" d="M306.473,522.391c-.494,1.048,1.146,1.224,1.286.321S307.2,520.865,306.473,522.391Z" transform="translate(-279.373 -497.776)"/><path class="a" d="M310.6,516.1c-.521,1.349.12,1.108.558.93S310.932,515.233,310.6,516.1Z" transform="translate(-277.893 -499.888)"/><path class="a" d="M291.655,525.105c-1.265-.062-.856,1.632-.227,1.378S292.919,525.164,291.655,525.105Z" transform="translate(-285.095 -496.48)"/><g transform="translate(34.631 7.164)"><path class="a" d="M313.1,512.139h0a1.121,1.121,0,0,1-.988-.484,1.233,1.233,0,0,1,.011-1.239c.15-.326.465-1,1.1-1a1.138,1.138,0,0,1,.949.74,1.775,1.775,0,0,0,.175.274.828.828,0,0,1,.2.922A1.616,1.616,0,0,1,313.1,512.139Z" transform="translate(-311.953 -509.417)"/></g><path class="a" d="M302.339,516.83c1.56-.514.488-1.148-.067-.952S301.606,517.072,302.339,516.83Z" transform="translate(-281.05 -499.889)"/></g><g transform="translate(55.129 86.888)"><path class="a" d="M351.687,500.953c-2.286-.8-4.483-2-6.793-2.332-.573-.07-1.194-.09-1.828-.209-.661-.123-1.223-.362-1.781-.5a5.075,5.075,0,0,0-3.272.141,27.018,27.018,0,0,0-3.194,1.577c-1.138.577-2.289.958-3.313,1.491a4.573,4.573,0,0,0-1.286.907,4.85,4.85,0,0,0-.759,1.4c-.207.534-.364,1.112-.583,1.707-.205.579-.412,1.137-.576,1.692a5.074,5.074,0,0,0-.086,3.259,13.8,13.8,0,0,0,1.662,3.093,12.576,12.576,0,0,1,1.684,3.316c.176.613.227,1.242.378,1.781a2.321,2.321,0,0,0,.356.724,3.579,3.579,0,0,0,.632.554c.477.341,1.019.636,1.516,1.011s.977.7,1.492,1.015a12.912,12.912,0,0,0,3.256,1.442,16.778,16.778,0,0,0,3.575.339,5.6,5.6,0,0,1,3.46,1.5,26.093,26.093,0,0,0,2.627,2.4c.439.265,1.045.513,1.58.761s1.092.471,1.651.692c1.108.415,2.289.924,3.354,1.274a4.767,4.767,0,0,0,1.622.238,10.1,10.1,0,0,0,1.709-.074,3.626,3.626,0,0,0,.75-.182,3.075,3.075,0,0,0,.669-.374c.468-.309.969-.685,1.51-1.026a14.46,14.46,0,0,1,1.672-.867,2.628,2.628,0,0,0,1.125-.926,7.427,7.427,0,0,1,1.163-1.562c.512-.472,1.008-.788,1.334-1.163a4.6,4.6,0,0,0,.691-1.364l.648-1.684a7.517,7.517,0,0,0,.492-3.274,9.4,9.4,0,0,0-.992-3.211,16.459,16.459,0,0,0-1.885-2.941,10.614,10.614,0,0,0-1.172-1.269,6.205,6.205,0,0,0-1.417-.825,10.283,10.283,0,0,1-1.692-.874,4.6,4.6,0,0,1-1.341-1.462,8.672,8.672,0,0,0-2.56-2.326,12.375,12.375,0,0,1-1.464-1.148,8.331,8.331,0,0,0-1.376-1.116,26.677,26.677,0,0,0-3.235-1.607l.053-.126a26.544,26.544,0,0,1,3.4,1.363,8.836,8.836,0,0,1,1.538,1.049,15.077,15.077,0,0,0,1.465,1.008,9.385,9.385,0,0,1,2.912,2.391,4.908,4.908,0,0,0,2.725,1.866,7.065,7.065,0,0,1,1.74.959,11.813,11.813,0,0,1,1.342,1.353,17.633,17.633,0,0,1,2.138,3.1,9.718,9.718,0,0,1,1.2,3.681,8.847,8.847,0,0,1-.536,3.869l-.646,1.717a5.647,5.647,0,0,1-.974,1.847,18.3,18.3,0,0,1-1.391,1.239,7.161,7.161,0,0,0-1,1.345,4.093,4.093,0,0,1-1.668,1.338,13.281,13.281,0,0,0-1.572.773c-.491.3-.967.64-1.518.99a4.358,4.358,0,0,1-.929.481,4.991,4.991,0,0,1-1.018.231,11.7,11.7,0,0,1-1.922.049,7.081,7.081,0,0,1-.989-.085,6.576,6.576,0,0,1-.966-.256c-1.223-.451-2.253-.948-3.4-1.421q-.841-.365-1.678-.773a16.769,16.769,0,0,1-1.651-.9,25.231,25.231,0,0,1-2.611-2.625,4.907,4.907,0,0,0-3.019-1.476,21.583,21.583,0,0,1-3.643-.46,13.292,13.292,0,0,1-3.349-1.549c-1.047-.68-1.99-1.358-3.056-1.994a3.979,3.979,0,0,1-.741-.631,2.8,2.8,0,0,1-.466-.885c-.189-.626-.233-1.22-.423-1.766a12,12,0,0,0-1.776-3.052,14.412,14.412,0,0,1-1.937-3.205,5.99,5.99,0,0,1-.1-3.885c.17-.612.376-1.194.566-1.762.19-.546.342-1.142.564-1.744a5.905,5.905,0,0,1,.955-1.789,5.258,5.258,0,0,1,1.669-1.175c1.144-.559,2.316-.922,3.352-1.425a27.417,27.417,0,0,1,3.36-1.564,5.79,5.79,0,0,1,3.867-.011c.607.193,1.16.454,1.689.577.553.135,1.146.185,1.772.293,2.5.517,4.549,1.889,6.736,2.915Z" transform="translate(-326.937 -496.715)"/><g transform="translate(7.726 1.225)"><path class="a" d="M334.677,497.688a8.2,8.2,0,0,0-1.312,2.7c-.141.926.528,1.776.6,3.051.041.56-.071,1.19-.031,1.534a1.882,1.882,0,0,0,.583,1.011c.614.695,1.551,1.159,2.379,2.055a6.705,6.705,0,0,1,1.352,3.056,6.518,6.518,0,0,0,.523,1.408,3.346,3.346,0,0,0,1.012,1.064c.861.573,1.789,1.135,2.628,1.777s1.7,1.26,2.568,1.815a14.566,14.566,0,0,0,2.785,1.31,30.279,30.279,0,0,0,2.844,1.177,3.1,3.1,0,0,0,1.28.137,1.805,1.805,0,0,0,1.029-.558,7.916,7.916,0,0,1,1.358-1.062,4.323,4.323,0,0,1,1.836-.4,9.342,9.342,0,0,1,3.331.375,6,6,0,0,0,2.866.215,5.917,5.917,0,0,0,2.726-.984,4.086,4.086,0,0,0,.934-1.134c.28-.43.524-.9.774-1.361l.127.049a10.843,10.843,0,0,1-.514,1.523c-.1.26-.212.48-.334.736a2.868,2.868,0,0,1-.527.7A6.259,6.259,0,0,1,362.5,519.4a7.189,7.189,0,0,1-3.39.011,8.919,8.919,0,0,0-2.93-.194,3.237,3.237,0,0,0-1.234.237,10.974,10.974,0,0,0-1.131.873,3.214,3.214,0,0,1-1.766.8,4.346,4.346,0,0,1-1.828-.256,21.128,21.128,0,0,1-2.912-1.416,12.842,12.842,0,0,1-2.761-1.684,35.007,35.007,0,0,0-5.015-3.84,4.923,4.923,0,0,1-2.007-2.588,5.975,5.975,0,0,0-1.462-2.528,25.446,25.446,0,0,1-2.44-2.014,2.984,2.984,0,0,1-.847-1.737c-.011-.713.14-1.123.129-1.618.063-.837-.516-1.956-.246-3.167.3-1.233,1.241-1.885,1.908-2.666Z" transform="translate(-332.584 -497.61)"/></g><path class="a" d="M348.493,502.936c.057-.6-.688-.752-1.141-1.085a4,4,0,0,0-2.579-.839c-1.6.115-2.669,1.138-4.1,1.572-.584.179-1.2.213-1.791.367-1.1.286-.4.695-1.029,1.038a9.6,9.6,0,0,1-2.083.382c-.824.137-1.441-.007-2.213.085-.963.12-1.663.4-.855,1.019a2.835,2.835,0,0,0,2.2.514,39.408,39.408,0,0,0,4.823-.3,6.618,6.618,0,0,0,1.171-.213c.331-.138.492-.368.847-.5a14.74,14.74,0,0,1,1.969-.361c.743-.141,1.527-.114,2.254-.324.689-.2,1.2-.591,1.884-.815.231-.075.427-.183.659-.254C348.549,503.124,348.484,503.037,348.493,502.936Z" transform="translate(-324.944 -495.136)"/><path class="a" d="M352.051,506.412a2.276,2.276,0,0,0-1.134-1.137,3.738,3.738,0,0,0-1.99.445c-1.033.372-1.908,1.215-3.012,1.421a6.556,6.556,0,0,0-.752.111,3.241,3.241,0,0,1-.659.217c-.718.081-1.389-.35-2.085-.119-.525.175-2.342.789-2.536,1.294-.438,1.148,2.1,1.417,2.722,1.3,1.1-.212,2.068-.778,3.185-.934,1.093-.152,2.167-.651,3.267-.758.911-.088,2.171.487,2.862-.477A1.149,1.149,0,0,0,352.051,506.412Z" transform="translate(-322.192 -493.579)"/><path class="a" d="M357.584,509.286c-.339-.6-.826-.451-1.352-.313a8.8,8.8,0,0,0-1.208.54l-1.234.544a4.112,4.112,0,0,1-.952.345c-.3.055-.551-.04-.836,0-.362.051-.784.306-1.14.4a5.582,5.582,0,0,1-1.86-.062,3.494,3.494,0,0,0-1.915.413c-.153.088-.7.315-.758.5-.124.438.55.625.874.714,2.131.585,4.416-.109,6.575-.089.6,0,1.174.153,1.765.134a3.99,3.99,0,0,0,1.558-.5A1.845,1.845,0,0,0,357.584,509.286Z" transform="translate(-319.806 -492.25)"/><path class="a" d="M331.2,501.448c-1.339.45-.4,1.287.252,1.233S331.893,501.217,331.2,501.448Z" transform="translate(-325.618 -494.983)"/><path class="a" d="M331.871,507c-.974-.4-1.335,1.39-.679,1.642S332.844,507.407,331.871,507Z" transform="translate(-325.493 -492.95)"/><path class="a" d="M340.815,513.273c-1.726-.342-1.293.985-.536,1.3S341.671,513.443,340.815,513.273Z" transform="translate(-322.271 -490.642)"/><path class="a" d="M347.282,516c-1,.081-.4.974.379.923S348.594,515.892,347.282,516Z" transform="translate(-319.643 -489.622)"/><path class="a" d="M352.952,515.352c.884.241.176,1.487-.518,1.253S352.068,515.114,352.952,515.352Z" transform="translate(-317.692 -489.867)"/><path class="a" d="M347.485,508.8c.5.19.357,1.105-.338.818S345.888,508.2,347.485,508.8Z" transform="translate(-319.754 -492.33)"/></g></svg>