<svg xmlns="http://www.w3.org/2000/svg" width="32.864" height="32.679" viewBox="0 0 32.864 32.679"><defs><style>.a,.b{fill:#cd435f;stroke:#cd435f;}.b{stroke-linecap:round;stroke-linejoin:round;stroke-width:0.5px;}</style></defs><g transform="translate(-1.5 0.133)"><path class="a" d="M26.3,34.2a.71.71,0,0,0-.71.71v6.3a2.131,2.131,0,0,1-2.129,2.129H3.548a2.131,2.131,0,0,1-2.129-2.129V22.716a2.131,2.131,0,0,1,2.129-2.129h6.3a.71.71,0,1,0,0-1.419h-6.3A3.552,3.552,0,0,0,0,22.716V41.207a3.552,3.552,0,0,0,3.548,3.548h19.91a3.552,3.552,0,0,0,3.548-3.548v-6.3A.71.71,0,0,0,26.3,34.2Zm0,0" transform="translate(2 -12.708)"/><g transform="translate(11.435 0.269)"><path class="b" d="M156.367,45.54l13.211-13.211,4.261,4.261L160.628,49.8Zm0,0" transform="translate(-154.212 -29.427)"/><path class="b" d="M132.543,201.927l4.708-1.3-3.4-3.4Zm0,0" transform="translate(-132.543 -179.399)"/><path class="b" d="M320.686.93a2.265,2.265,0,0,0-3.2,0l-.96.96,4.261,4.261.96-.96a2.264,2.264,0,0,0,0-3.2Zm0,0" transform="translate(-299.881 -0.269)"/></g></g></svg>