<svg xmlns="http://www.w3.org/2000/svg" width="49.525" height="44.783" viewBox="0 0 49.525 44.783"><defs><style>.a{fill:#797475;stroke:#797475;stroke-width:0.5px;}</style></defs><g transform="translate(0.25 -0.249)"><path class="a" d="M146.2,61.424a.817.817,0,1,0,1.155-1.155,2.132,2.132,0,0,1,0-3.01,3.76,3.76,0,0,0,0-5.321.817.817,0,1,0-1.155,1.155,2.126,2.126,0,0,1,0,3.01A3.768,3.768,0,0,0,146.2,61.424Zm0,0" transform="translate(-131.205 -46.297)"/><path class="a" d="M333.933,61.424a.817.817,0,1,0,1.155-1.155,2.132,2.132,0,0,1,0-3.01,3.76,3.76,0,0,0,0-5.321.817.817,0,0,0-1.155,1.155,2.127,2.127,0,0,1,0,3.01A3.768,3.768,0,0,0,333.933,61.424Zm0,0" transform="translate(-300.963 -46.297)"/><path class="a" d="M240.066,10.225a.817.817,0,0,0,1.155-1.155,2.132,2.132,0,0,1,0-3.01,3.76,3.76,0,0,0,0-5.321.817.817,0,0,0-1.155,1.155,2.127,2.127,0,0,1,0,3.01A3.767,3.767,0,0,0,240.066,10.225Zm0,0" transform="translate(-216.085 0)"/><path class="a" d="M208.565,200.494a.856.856,0,0,0,.181-.019,16.45,16.45,0,0,1,3.612-.4h.01a.817.817,0,1,0,0-1.634h-.012a18.1,18.1,0,0,0-3.971.439.817.817,0,0,0,.179,1.614Zm0,0" transform="translate(-187.855 -178.989)"/><path class="a" d="M77.474,235.245a.768.768,0,0,0,.147.014.818.818,0,0,0,.8-.67,16.352,16.352,0,0,1,7.506-11.08A.817.817,0,1,0,85.1,222.1a18.005,18.005,0,0,0-8.28,12.192A.816.816,0,0,0,77.474,235.245Zm0,0" transform="translate(-69.449 -200.282)"/><path class="a" d="M45.45,143.387A21.3,21.3,0,0,0,28.563,126.11a3.668,3.668,0,0,0,.035-.392,4.085,4.085,0,1,0-8.171,0,3.574,3.574,0,0,0,.035.392A21.3,21.3,0,0,0,3.575,143.387C1.868,144.354,0,145.776,0,147.372c0,4.155,12.675,6.945,24.513,6.945s24.513-2.79,24.513-6.945C49.026,145.776,47.158,144.354,45.45,143.387ZM22.067,125.859c0-.048-.005-.095-.005-.141a2.451,2.451,0,1,1,4.9,0c0,.047,0,.093,0,.141l-.114-.01c-.281-.031-.564-.053-.848-.073-.1-.007-.208-.018-.313-.024-.387-.021-.777-.034-1.17-.034s-.783.012-1.17.034c-.1.006-.208.016-.313.024-.284.02-.567.043-.848.073C22.143,125.854,22.1,125.855,22.067,125.859Zm-.5,1.715c.439-.065.88-.113,1.323-.149l.272-.02a20.015,20.015,0,0,1,2.7,0l.272.02c.443.036.884.083,1.323.149a19.654,19.654,0,0,1,16.466,16.6c.037.262.068.525.095.788.009.091.021.18.03.271.032.362.055.724.067,1.086a87.2,87.2,0,0,1-39.2,0q.019-.543.067-1.086c.008-.091.02-.181.029-.271.027-.264.057-.527.1-.788A19.652,19.652,0,0,1,21.57,127.574Zm2.943,25.109c-13.969,0-22.879-3.488-22.879-5.311,0-.313.387-1,1.687-1.9,0,.046,0,.092-.005.139-.028.448-.047.9-.047,1.355v.644l.627.151a88.732,88.732,0,0,0,41.235,0l.627-.151v-.644c0-.456-.019-.906-.047-1.355,0-.047,0-.092,0-.139,1.3.9,1.687,1.589,1.687,1.9C47.391,149.195,38.482,152.683,24.513,152.683Zm0,0" transform="translate(0 -109.535)"/></g></svg>