<svg xmlns="http://www.w3.org/2000/svg" width="24.905" height="25.221" viewBox="0 0 24.905 25.221"><defs><style>.a{fill:#888787;stroke:#888787;stroke-width:0.5px;}</style></defs><g transform="translate(-0.25 0.286)"><path class="a" d="M173.6,254.853a3.139,3.139,0,0,0-.156-.341c-.038-.071-.082-.139-.125-.208-.031-.049-.062-.1-.095-.146-.05-.072-.1-.14-.157-.208-.032-.039-.066-.076-.1-.113a3.379,3.379,0,0,0-.334-.325c-.043-.036-.084-.075-.128-.109s-.114-.08-.173-.119-.139-.089-.21-.129c-.049-.027-.1-.054-.147-.078a2.732,2.732,0,0,0-.39-.159,2.469,2.469,0,0,0-.324-.075l-.066-.01a2.1,2.1,0,0,0-.636.007l-.014,0a1.73,1.73,0,0,0-.728.3c-.021.016-.036.037-.057.053a1.6,1.6,0,0,0-.16.152,1.529,1.529,0,0,0-.105.113,1.714,1.714,0,0,0-.177.279s0,0,0,.006a2,2,0,0,0-.207.9,3.221,3.221,0,0,0,2.2,2.9,2.333,2.333,0,0,0,.69.108,1.742,1.742,0,0,0,1.786-1.845,2.7,2.7,0,0,0-.189-.965Zm-3.328-.873a.728.728,0,0,1,.148-.117.738.738,0,0,1,.1-.049.856.856,0,0,1,.147-.052.931.931,0,0,1,.119-.017,1.092,1.092,0,0,1,.184-.009l.052,0a1.468,1.468,0,0,1,.293.057,1.9,1.9,0,0,1,.279.115l.056.028a2.3,2.3,0,0,1,.514.379l.024.023a2.516,2.516,0,0,1,.386.5c.016.027.031.054.046.082s.016.037.026.055a.983.983,0,0,1-1.059.2A2.347,2.347,0,0,1,170.248,254C170.254,253.992,170.261,253.986,170.268,253.98Zm2.263,2.605a1.054,1.054,0,0,1-.949.091,2.376,2.376,0,0,1-1.369-1.26,3.047,3.047,0,0,0,1.1.637,2.32,2.32,0,0,0,.684.107,1.863,1.863,0,0,0,.859-.2A.864.864,0,0,1,172.531,256.585Zm0,0" transform="translate(-160.477 -240.624)"/><path class="a" d="M355.8,321.541a1.512,1.512,0,0,0-1.361.182,1.421,1.421,0,0,0-.551,1.166,2.4,2.4,0,0,0,1.64,2.162,1.776,1.776,0,0,0,.524.082,1.4,1.4,0,0,0,.836-.263,1.419,1.419,0,0,0,.551-1.166A2.4,2.4,0,0,0,355.8,321.541Zm.542,2.588a.6.6,0,0,1-.542.043,1.474,1.474,0,0,1-.991-1.282.514.514,0,0,1,.177-.426.48.48,0,0,1,.288-.085.859.859,0,0,1,.254.042,1.475,1.475,0,0,1,.991,1.283A.512.512,0,0,1,356.344,324.129Zm0,0" transform="translate(-336.353 -305.961)"/><path class="a" d="M88.373,302.442a1.513,1.513,0,0,0-1.361.182,1.42,1.42,0,0,0-.551,1.166,2.4,2.4,0,0,0,1.64,2.162,1.783,1.783,0,0,0,.524.082,1.394,1.394,0,0,0,.836-.263,1.419,1.419,0,0,0,.551-1.166A2.4,2.4,0,0,0,88.373,302.442Zm.541,2.587a.606.606,0,0,1-.542.043,1.474,1.474,0,0,1-.991-1.282.513.513,0,0,1,.177-.425.481.481,0,0,1,.288-.085.861.861,0,0,1,.254.042,1.475,1.475,0,0,1,.991,1.283A.511.511,0,0,1,88.914,305.029Zm0,0" transform="translate(-81.817 -287.782)"/><path class="a" d="M298.037,388.218a1.145,1.145,0,0,0-1.028.142,1.083,1.083,0,0,0-.424.888,1.729,1.729,0,0,0,1.179,1.56,1.317,1.317,0,0,0,.389.061,1.067,1.067,0,0,0,.639-.2,1.084,1.084,0,0,0,.424-.888A1.731,1.731,0,0,0,298.037,388.218Zm.208,1.705a.254.254,0,0,1-.208,0,.809.809,0,0,1-.53-.68.194.194,0,0,1,.049-.146.152.152,0,0,1,.091-.024.411.411,0,0,1,.117.019.807.807,0,0,1,.53.68A.2.2,0,0,1,298.246,389.924Zm0,0" transform="translate(-281.811 -369.444)"/><path class="a" d="M290.952,277.247a1.314,1.314,0,0,0,.389.061,1.069,1.069,0,0,0,.639-.2,1.082,1.082,0,0,0,.424-.888,1.729,1.729,0,0,0-1.179-1.56,1.141,1.141,0,0,0-1.027.142,1.084,1.084,0,0,0-.424.888A1.727,1.727,0,0,0,290.952,277.247Zm-.208-1.706a.154.154,0,0,1,.091-.023.413.413,0,0,1,.117.019.808.808,0,0,1,.53.68.2.2,0,0,1-.049.146.257.257,0,0,1-.209,0,.807.807,0,0,1-.53-.68A.192.192,0,0,1,290.744,275.541Zm0,0" transform="translate(-275.327 -261.358)"/><path class="a" d="M50.273,173.633a1.853,1.853,0,0,0-1.264-1.671,1.207,1.207,0,0,0-1.089.15,1.144,1.144,0,0,0-.448.939,1.851,1.851,0,0,0,1.264,1.67,1.394,1.394,0,0,0,.413.064,1.129,1.129,0,0,0,.676-.214A1.143,1.143,0,0,0,50.273,173.633Zm-.994.2a.317.317,0,0,1-.27.011.926.926,0,0,1-.616-.791.252.252,0,0,1,.073-.2.217.217,0,0,1,.128-.034.491.491,0,0,1,.142.023.926.926,0,0,1,.615.791A.249.249,0,0,1,49.279,173.83Zm0,0" transform="translate(-44.708 -163.609)"/><path class="a" d="M23.076,16.287a.716.716,0,0,1,.032-.089.8.8,0,0,1,.031-.085l0,0a.617.617,0,0,1,.092-.128.559.559,0,0,1,.165-.121c.013-.006.026-.011.039-.017a.715.715,0,0,1,.2-.05l.028,0a.915.915,0,0,1,.185.006h.022l.017,0a1.188,1.188,0,0,1,.176.043c.037.012.077.03.117.046l.074.029a.418.418,0,0,0,.081.025c.01,0,.019.007.029.009a.464.464,0,0,0,.1.006h.013a.435.435,0,0,0,.106-.021h.006a.451.451,0,0,0,.065-.031.391.391,0,0,0,.04-.019A.474.474,0,0,0,24.9,15.5V14.471a3.263,3.263,0,0,0-1.246-2.554l-8-7.568a.459.459,0,0,0-.609-.021.63.63,0,0,1-.6.067,1.571,1.571,0,0,1-1.055-1.367.676.676,0,0,1,.067-.308.462.462,0,0,0-.094-.542L11.993.881a.449.449,0,0,0-.037-.031A3.455,3.455,0,0,0,8.588.207L1.778,3.492A2.165,2.165,0,0,0,.5,5.5v7.257a.46.46,0,0,0,.543.453,1,1,0,0,1,.484.035A1.9,1.9,0,0,1,2.8,14.9a.714.714,0,0,1-.256.6.828.828,0,0,1-.747.067,1.686,1.686,0,0,1-.55-.306.461.461,0,0,0-.749.359v1a2.143,2.143,0,0,0,1.614,2.085l20.115,5.925a2.154,2.154,0,0,0,2.677-2.09v-3.84a.462.462,0,0,0-.388-.455c-.01,0-.019-.005-.029-.007a1.849,1.849,0,0,1-1.087-.74,1.879,1.879,0,0,1-.288-.585,1.621,1.621,0,0,1-.045-.174,1.341,1.341,0,0,1-.018-.237,1.094,1.094,0,0,1,.013-.112A.823.823,0,0,1,23.076,16.287ZM2.16,4.329,8.973,1.043a2.536,2.536,0,0,1,2.405.524l1.137,1.076a1.681,1.681,0,0,0-.043.385,2.493,2.493,0,0,0,1.7,2.246,1.632,1.632,0,0,0,1.1-.022L22.6,12.185,14.681,9.825A2.532,2.532,0,0,0,13.05,8.082a1.568,1.568,0,0,0-1.408.188,1.343,1.343,0,0,0-.425.525L1.939,6.033a.6.6,0,0,1-.492-.584.407.407,0,0,0-.019-.06A1.24,1.24,0,0,1,2.16,4.329Zm11.672,6a.557.557,0,0,1-.195.464.653.653,0,0,1-.588.049,1.243,1.243,0,0,1-.209-.086,1.634,1.634,0,0,1-.823-1.066A1.058,1.058,0,0,1,12,9.478c0-.01.008-.06.009-.07s0-.021,0-.032a.506.506,0,0,1,.188-.366.522.522,0,0,1,.315-.094.931.931,0,0,1,.273.045,1.589,1.589,0,0,1,1.043,1.256s0,.008,0,.012Zm10.151,12.2a1.235,1.235,0,0,1-1.514,1.2L2.355,17.806a1.232,1.232,0,0,1-.934-1.2v-.2c.035.013.071.025.106.036a1.742,1.742,0,0,0,1.566-.206,1.608,1.608,0,0,0,.63-1.338A2.813,2.813,0,0,0,1.8,12.362a2.024,2.024,0,0,0-.379-.08V6.836a1.43,1.43,0,0,0,.3.091l9.368,2.791c0,.022.01.044.014.066.008.048.019.1.03.145.015.066.033.131.054.2.016.049.034.1.054.145s.053.123.084.184.049.094.076.14.072.114.111.17.062.088.1.131.089.1.136.154.072.079.11.115.107.093.163.138c.039.032.077.065.118.094a2.314,2.314,0,0,0,.2.123c.037.021.072.046.11.065a2.139,2.139,0,0,0,.333.136,1.861,1.861,0,0,0,.344.069c.031,0,.061,0,.091.007s.072.008.107.008a1.673,1.673,0,0,0,.185-.013l.035,0a1.482,1.482,0,0,0,.3-.078l.067-.027a1.19,1.19,0,0,0,.49-.356c.017-.019.033-.04.049-.06a1.341,1.341,0,0,0,.147-.233c0-.007.008-.013.012-.021a1.442,1.442,0,0,0,.084-.225l8.317,2.475a1.239,1.239,0,0,1,.975,1.205v.412a1.883,1.883,0,0,0-.413-.01,1.681,1.681,0,0,0-.328.064c-.036.011-.071.026-.106.039a1.509,1.509,0,0,0-.211.1c-.033.018-.064.037-.1.058a1.5,1.5,0,0,0-.2.158c-.016.015-.035.024-.05.04s-.008.012-.013.018-.018.015-.026.024h0a1.589,1.589,0,0,0-.113.163,1.524,1.524,0,0,0-.092.132c0,.008-.011.014-.015.022a1.666,1.666,0,0,0-.086.227c-.013.039-.033.075-.044.116a1.82,1.82,0,0,0-.049.319c0,.031-.011.059-.013.091,0,0,0,.01,0,.015a2.258,2.258,0,0,0,.026.367c0,.019,0,.036,0,.055a2.488,2.488,0,0,0,.1.387c0,.009,0,.018.007.027a1.719,1.719,0,0,0,.07.164c.023.055.046.111.073.164.01.021.018.042.029.063.026.049.057.1.087.142s.053.085.081.127h0a.948.948,0,0,0,.057.087,2.774,2.774,0,0,0,.229.273c.01.011.03.036.041.047.032.033.066.06.1.091l.047.043a2.943,2.943,0,0,0,.238.193l.044.032a2.612,2.612,0,0,0,.265.163c.014.007.027.016.04.023a2.5,2.5,0,0,0,.321.141v3.485h0Zm0,0" transform="translate(0 0)"/></g></svg>