<svg xmlns="http://www.w3.org/2000/svg" width="43.241" height="54.481" viewBox="0 0 43.241 54.481"><defs><style>.a{fill:#797475;stroke:#797475;stroke-width:0.5px;}</style></defs><g transform="translate(0.25 0.263)"><path class="a" d="M268.1,184.5a.949.949,0,0,0,1.2-.595,1.675,1.675,0,0,1,2.12-1.045,3.576,3.576,0,0,0,4.528-2.234.95.95,0,1,0-1.8-.611,1.673,1.673,0,0,1-2.12,1.045A3.58,3.58,0,0,0,267.5,183.3.952.952,0,0,0,268.1,184.5Zm0,0" transform="translate(-239.261 -160.466)"/><path class="a" d="M289.416,121.7a.949.949,0,0,0,1.2-.595,1.669,1.669,0,0,1,2.12-1.045,3.576,3.576,0,0,0,4.528-2.235.949.949,0,1,0-1.8-.611,1.671,1.671,0,0,1-2.12,1.046,3.569,3.569,0,0,0-4.528,2.234A.949.949,0,0,0,289.416,121.7Zm0,0" transform="translate(-258.333 -104.283)"/><path class="a" d="M310.724,63.573a.951.951,0,0,0,1.205-.595,1.236,1.236,0,0,1,1.565-.772,3.132,3.132,0,0,0,3.976-1.959.95.95,0,1,0-1.8-.611,1.232,1.232,0,0,1-1.566.77,3.141,3.141,0,0,0-3.974,1.96A.952.952,0,0,0,310.724,63.573Zm0,0" transform="translate(-277.395 -52.772)"/><path class="a" d="M40.209,23.966a1.236,1.236,0,0,0-.541-.2A66.852,66.852,0,0,0,42.738,5.9,6.391,6.391,0,0,0,40.132.586,3.894,3.894,0,0,0,36.076.543c-2.837,1.464-4.866,5.769-6.5,9.23l-.277.587a5.5,5.5,0,0,0-3.01-3.81,4.53,4.53,0,0,0-3.522-3.5,2.963,2.963,0,0,0-.072-.294A3.275,3.275,0,0,0,19.985.437a3.229,3.229,0,0,0-2.018.415A3.446,3.446,0,0,0,16.288.414a3.5,3.5,0,0,0-3.4,2.694A4.277,4.277,0,0,0,9.743,7.182,4.756,4.756,0,0,0,6.5,13.506a3.732,3.732,0,0,0-.831,2.354,3.693,3.693,0,0,0,.31,1.485A5.046,5.046,0,0,0,2.2,15.518a.95.95,0,0,0,.028,1.9c.032,0,.061,0,.092,0a3.3,3.3,0,0,1,2.319,1.272c-1.506.434-3.322,1.141-4.169,2.738a4.835,4.835,0,0,0-.23,3.5A1.649,1.649,0,0,0,0,25.861L1.619,48.832a5.409,5.409,0,0,0,5.4,5.136h26.66a5.4,5.4,0,0,0,5.4-5.119l1.657-23.77c0-.005,0-.011,0-.017A1.232,1.232,0,0,0,40.209,23.966ZM30.078,13.075c.376-.7.786-1.572,1.22-2.494C32.726,7.55,34.683,3.4,36.946,2.231a2.069,2.069,0,0,1,2.176-.036,4.587,4.587,0,0,1,1.717,3.657A65.055,65.055,0,0,1,37.79,23.416c-.062.2-.2.6-.393,1.149l-1.619.719a.939.939,0,0,0-.1.054,2.917,2.917,0,0,1-3.031,0l-.677-.406a4.9,4.9,0,0,0-2.525-.7l-.032,0a4.894,4.894,0,0,0-2.557.7l-.676.406a2.981,2.981,0,0,1-1.216.384c.024-.082.051-.163.076-.245.26-.884.539-1.756.832-2.621.111-.329.227-.655.343-.981.244-.687.5-1.365.764-2.038.118-.3.233-.6.354-.9A63.459,63.459,0,0,1,30.078,13.075ZM17.972,15.328c.111-.142.219-.281.322-.416a.005.005,0,0,1,0,0,2.343,2.343,0,0,0,.2-.307,2.034,2.034,0,0,0,.18-1.416l3.964-.867a2.175,2.175,0,0,0,.1.354,2.132,2.132,0,0,0,.936,1.05c.145.08.3.159.451.242.128.068.257.138.385.208.062.033.124.066.186.1.113.063.222.134.332.2.094.058.187.118.278.182s.206.154.307.236.173.151.257.232a3.81,3.81,0,0,1,.262.277,3.264,3.264,0,0,1,.4.574c-.4.889-.781,1.8-1.148,2.71-.057.142-.118.28-.174.421a9.7,9.7,0,0,0-3.289,1.642,5.59,5.59,0,0,1-4.651,1.129l-.576-2.639C16.3,17.455,17.152,16.374,17.972,15.328ZM22.681,9.56a.411.411,0,0,1,.074-.007.4.4,0,0,1,.387.309.4.4,0,0,1-.3.467L17.6,11.477a.393.393,0,0,1-.167-.767l2.787-.61Zm-3.07,14.69c-.072,0-.145.007-.217.014a4.875,4.875,0,0,0-1.514.4l-.182-.831c.274.023.546.046.8.046A7.344,7.344,0,0,0,23.023,22.3a11.611,11.611,0,0,1,1.316-.819c-.087.248-.174.494-.258.744-.061.178-.126.354-.185.534q-.419,1.268-.793,2.557l-.632-.378a4.9,4.9,0,0,0-2.524-.7l-.035,0C19.811,24.233,19.711,24.244,19.612,24.25ZM8.252,14.429l.622-.513-.4-.7a2.855,2.855,0,0,1,2.357-4.288l1.153-.049-.269-1.123a2.34,2.34,0,0,1,2.106-2.9L14.7,4.8V3.854a1.6,1.6,0,0,1,1.593-1.54,1.569,1.569,0,0,1,1.061.416l.666.6.638-.63a1.345,1.345,0,0,1,1.108-.376,1.37,1.37,0,0,1,1.117.967,1.243,1.243,0,0,1,.045.5l-.111,1.061h1.069a2.615,2.615,0,0,1,2.6,2.428l.043.624.59.207a3.62,3.62,0,0,1,2.428,3.5,3.428,3.428,0,0,1-.623,1.885,10.051,10.051,0,0,0-1.9-1.206c-.149-.079-.293-.155-.439-.236a.207.207,0,0,1-.107-.163.542.542,0,0,1,.132-.422,2.039,2.039,0,0,0,.446-1.754L24.941,9.2a2.025,2.025,0,0,0-2.41-1.545l-.255.056h-.008l-2.787.61-2.72.594a2.028,2.028,0,0,0-1.545,2.41l.057.258v0s0,0,0,0l.056.257A2.02,2.02,0,0,0,16.5,13.265a.575.575,0,0,1,.315.307c.025.07.01.106-.045.2h0c-.094.126-.2.254-.3.387s-.213.273-.323.417c-.037.048-.072.1-.109.148-.079.107-.158.217-.236.331-.043.062-.084.126-.126.19-.072.111-.142.226-.21.344-.04.068-.079.136-.117.207-.072.133-.136.273-.2.415-.028.061-.057.119-.082.182a5.206,5.206,0,0,0-.217.651c-.009.036-.013.075-.022.112a5.184,5.184,0,0,0-.107.6c-.009.084-.011.171-.017.257-.008.112-.022.219-.022.335l-.012-.014c-.013-.017-.027-.033-.039-.049-.165-.218-.331-.418-.5-.608-.052-.06-.105-.117-.159-.175q-.209-.226-.42-.425c-.045-.043-.091-.089-.138-.131a6.587,6.587,0,0,0-.536-.433c-.05-.036-.1-.066-.152-.1-.135-.091-.27-.174-.407-.248-.066-.036-.132-.071-.2-.1a4.226,4.226,0,0,0-.427-.18c-.047-.017-.1-.04-.142-.055a3.9,3.9,0,0,0-.47-.119c-.018,0-.036,0-.054,0s-.063-.018-.1-.023c-.11-.016-.215-.009-.323-.017-.076,0-.151-.021-.227-.021-.023,0-.047.006-.07.006a3.856,3.856,0,0,0-.433.037c-.071.009-.142.015-.214.028a4.467,4.467,0,0,0-.548.139c-.028.009-.054.015-.082.025a5.966,5.966,0,0,0-1.341.662,1.809,1.809,0,0,1-.132-.68A1.851,1.851,0,0,1,8.252,14.429Zm-6.1,7.886c.4-.757,1.377-1.334,3.071-1.819a5.127,5.127,0,0,0,2.124-1.219c.271-.259.524-.478.769-.678a4.225,4.225,0,0,1,2.023-1.038l.04,0a1.929,1.929,0,0,1,.55.016c.047.009.094.025.142.037a1.964,1.964,0,0,1,.264.079c.057.022.114.055.172.082.082.04.164.076.247.126.065.039.129.089.194.134s.154.1.232.166.145.128.217.194.145.126.217.2.161.175.241.265c.065.073.131.14.2.219.09.108.181.231.272.351.058.076.115.145.173.225.1.145.208.3.313.464.046.07.092.133.138.205q.227.358.456.762a7.214,7.214,0,0,1,.627,4.643c-.051,0-.1-.012-.15-.02a2.947,2.947,0,0,1-1.028-.368l-.677-.406a4.9,4.9,0,0,0-2.524-.7l-.032,0a4.894,4.894,0,0,0-2.557.7l-.329.2a3.681,3.681,0,0,1-1.862.524A3.669,3.669,0,0,1,3.8,25.128l-1.278-.767h0a1.622,1.622,0,0,0-.536-.2A2.729,2.729,0,0,1,2.15,22.314ZM37.2,48.734a3.512,3.512,0,0,1-3.508,3.333H7.027a3.515,3.515,0,0,1-3.509-3.352L1.937,26.262l.826.5a5.578,5.578,0,0,0,2.9.8,5.57,5.57,0,0,0,2.9-.8l.33-.2a2.909,2.909,0,0,1,3.03,0l.677.406a4.884,4.884,0,0,0,2.787.682c.085,0,.171,0,.257-.011.01,0,.02-.007.031-.008a4.878,4.878,0,0,0,1.872-.611.918.918,0,0,0,.166-.051l.677-.406a2.909,2.909,0,0,1,3.03,0l.677.406a4.908,4.908,0,0,0,2.323.687l.049,0a4.826,4.826,0,0,0,.83-.039c.158-.02.31-.06.465-.1.075-.018.15-.034.224-.056a4.863,4.863,0,0,0,1.219-.5l.677-.407a2.912,2.912,0,0,1,3.031,0l.677.407a4.9,4.9,0,0,0,2.544.7l.044,0A4.9,4.9,0,0,0,36.663,27l1.864-.828a.979.979,0,0,0,.105-.075l.145-.065Zm0,0" transform="translate(0 0)"/><path class="a" d="M46.012,371.353H52.66a.95.95,0,1,0,0-1.9H46.012a.95.95,0,0,0,0,1.9Zm0,0" transform="translate(-40.312 -330.51)"/><path class="a" d="M46.012,407.4H54.56a.95.95,0,0,0,0-1.9H46.012a.95.95,0,0,0,0,1.9Zm0,0" transform="translate(-40.312 -362.754)"/><path class="a" d="M56.459,441.539H46.012a.95.95,0,0,0,0,1.9H56.459a.95.95,0,1,0,0-1.9Zm0,0" transform="translate(-40.312 -394.998)"/><path class="a" d="M183.064,441.539h-1.9a.95.95,0,1,0,0,1.9h1.9a.95.95,0,1,0,0-1.9Zm0,0" transform="translate(-161.219 -394.998)"/></g></svg>