<svg xmlns="http://www.w3.org/2000/svg" width="76.933" height="71.676" viewBox="0 0 76.933 71.676">
  <g id="harvest" transform="translate(-3.813 -17.489)">
    <g id="Groupe_7274" data-name="Groupe 7274" transform="translate(4.09 17.831)">
      <g id="Groupe_7273" data-name="Groupe 7273" transform="translate(0 0)">
        <path id="Tracé_9103" data-name="Tracé 9103" d="M74.033,50.627a8.783,8.783,0,0,0,.218-5.7A9.987,9.987,0,0,0,71.139,40.4a6.243,6.243,0,0,0,1.77-4.8,6.182,6.182,0,0,0,0-11.136A6.182,6.182,0,0,0,63.265,18.9a6.182,6.182,0,0,0-9.644,5.568,6.171,6.171,0,0,0-.551.308c-3.89-6-8.149-6.8-10.449-6.707a9.281,9.281,0,0,0-7.907,5.316,5.766,5.766,0,0,1-3.544,3.233,6.615,6.615,0,0,1-5.245-.569,15.1,15.1,0,0,0-5.834-2.224,6.892,6.892,0,0,0-5.434,1.817A2.49,2.49,0,0,0,13.3,25.7c-1.629.555-2.593,2.745-3.36,5.852-.607-2.357-1.214-4.292-1.709-5.728C8,25.165,7.832,24.617,7.7,24.176c-.355-1.174-.635-2.1-1.659-2.389s-1.743.352-2.655,1.164l-.359.318L.505,25.491a1.493,1.493,0,0,0-.4,1.685C2.082,32,4.372,45.348,5.15,50.115H4.438A4.444,4.444,0,0,0,0,54.553V60.6a4.42,4.42,0,0,0,1.123,2.946A4.419,4.419,0,0,0,0,66.492v6.046a4.42,4.42,0,0,0,1.123,2.946A4.418,4.418,0,0,0,0,78.43v6.046a4.443,4.443,0,0,0,4.439,4.438H71.966A4.443,4.443,0,0,0,76.4,84.476V78.43a4.42,4.42,0,0,0-1.123-2.946A4.419,4.419,0,0,0,76.4,72.538V66.491a4.42,4.42,0,0,0-1.123-2.946A4.419,4.419,0,0,0,76.4,60.6V54.553A4.442,4.442,0,0,0,74.033,50.627ZM71.4,45.812a6.122,6.122,0,0,1-.373,4.3H63.285l.174-.3a23.634,23.634,0,0,0,3.123-7.579c.054,0,.108,0,.162,0a6.18,6.18,0,0,0,1.612-.215A7.64,7.64,0,0,1,71.4,45.812ZM55.634,26.9a1.492,1.492,0,0,0,1.107-1.918,3.2,3.2,0,0,1,5.416-3.127,1.492,1.492,0,0,0,2.215,0,3.2,3.2,0,0,1,5.416,3.127A1.492,1.492,0,0,0,70.9,26.9a3.2,3.2,0,0,1,0,6.254,1.492,1.492,0,0,0-1.107,1.918A3.2,3.2,0,0,1,66.6,39.25a7.389,7.389,0,0,0-2.287-4.071,7.907,7.907,0,0,1,2.735-2.246,1.492,1.492,0,0,0-1.151-2.754,10.814,10.814,0,0,0-3.982,3.215c-.147-.089-.294-.176-.439-.26s-.3-.169-.445-.249a10.812,10.812,0,0,0,.794-5.058,1.492,1.492,0,1,0-2.96.38,7.91,7.91,0,0,1-.58,3.5,8.191,8.191,0,0,0-2.329-.357,6.914,6.914,0,0,0-2.341.4A3.2,3.2,0,0,1,55.634,26.9ZM53.7,38.93a1.493,1.493,0,0,0,.748-2.785L53.151,35.4a6.382,6.382,0,0,1,.724-.489c.04-.019.079-.041.117-.064a3.985,3.985,0,0,1,1.961-.512,8.344,8.344,0,0,1,4.028,1.386c2.372,1.369,3.48,2.634,3.707,4.23a9.818,9.818,0,0,1-1.1,5.045L60.3,43.674a1.492,1.492,0,0,0-1.492,2.585l2.439,1.408q-.18.323-.371.656c-.35.605-.7,1.205-1.051,1.792H43.952q.9-1.917,1.975-3.974l1.687.974a1.492,1.492,0,0,0,1.492-2.585L47.341,43.51q.618-1.116,1.279-2.263a31.811,31.811,0,0,1,2.4-3.636l1.937,1.118A1.483,1.483,0,0,0,53.7,38.93Zm-31.784,8.05a11.74,11.74,0,0,1,22.585-4.5q-.232.423-.458.841v0l0,.007c-1.283,2.379-2.409,4.646-3.367,6.779H22.338A11.727,11.727,0,0,1,21.914,46.981Zm.919-15.9a7.475,7.475,0,0,0-4.481-.888q.053-.143.109-.279a1.493,1.493,0,0,0-.378-1.669l-.892-.81c1.74-1.168,3.824-.778,7.243,1.2A9.638,9.638,0,0,0,29.228,29.9a9.36,9.36,0,0,0,2.854-.439,8.809,8.809,0,0,0,5.35-4.841,6.328,6.328,0,0,1,5.31-3.569c2.911-.119,5.8,1.985,8.195,5.941a6.138,6.138,0,0,0,.1,6.272,13.944,13.944,0,0,0-1.452,1.407c-.017.018-.033.036-.049.055a29.33,29.33,0,0,0-3.277,4.649,14.763,14.763,0,0,0-6.083-5.587,14.362,14.362,0,0,1,1.676-3.843,1.492,1.492,0,0,0-2.5-1.623,17.227,17.227,0,0,0-1.975,4.42A14.723,14.723,0,0,0,19.266,50.114H16.895c-.115-3.211-.279-11.209.653-16.692a4.64,4.64,0,0,1,3.862.283,1.492,1.492,0,1,0,1.424-2.623ZM11.873,37.017c.3-1.648.662-3.7,1.142-5.452A9.38,9.38,0,0,1,14.145,28.7l1.195,1.085c-1.769,5.631-1.58,16.3-1.435,20.328H12.668A90.938,90.938,0,0,0,11.5,38.978C11.616,38.447,11.736,37.776,11.873,37.017ZM3.251,27.05l1.738-1.531c.113.368.248.793.417,1.282A84.408,84.408,0,0,1,9.681,50.114H8.175C7.511,45.985,5.33,33,3.251,27.05Zm70.17,57.426a1.456,1.456,0,0,1-1.454,1.454H4.438a1.456,1.456,0,0,1-1.454-1.454V78.429a1.456,1.456,0,0,1,1.454-1.454H71.967a1.456,1.456,0,0,1,1.454,1.454v6.046Zm0-11.938a1.456,1.456,0,0,1-1.454,1.454H4.438a1.456,1.456,0,0,1-1.454-1.454V66.491a1.456,1.456,0,0,1,1.454-1.454H71.967a1.456,1.456,0,0,1,1.454,1.454v6.046Zm0-11.938a1.456,1.456,0,0,1-1.454,1.454H4.438A1.456,1.456,0,0,1,2.984,60.6V54.553A1.456,1.456,0,0,1,4.438,53.1h67.53a1.456,1.456,0,0,1,1.452,1.454V60.6Z" transform="translate(0 -17.831)" fill="#797475" stroke="#797475" stroke-width="0.5"/>
        <path id="Tracé_9104" data-name="Tracé 9104" d="M365.1,178.184l.016.009a1.492,1.492,0,0,0,1.489-2.587l-.016-.009a1.492,1.492,0,1,0-1.489,2.587Z" transform="translate(-309.984 -151.885)" fill="#797475" stroke="#797475" stroke-width="0.5"/>
        <path id="Tracé_9105" data-name="Tracé 9105" d="M286.262,65.678a1.489,1.489,0,0,0,.611-.132l.056-.025a1.492,1.492,0,0,0-1.2-2.734l-.084.037a1.492,1.492,0,0,0,.613,2.854Z" transform="translate(-242.273 -55.972)" fill="#797475" stroke="#797475" stroke-width="0.5"/>
        <path id="Tracé_9106" data-name="Tracé 9106" d="M52.494,274.167a1.492,1.492,0,1,0,1.492,1.492A1.5,1.5,0,0,0,52.494,274.167Z" transform="translate(-43.391 -235.914)" fill="#797475" stroke="#797475" stroke-width="0.5"/>
        <path id="Tracé_9107" data-name="Tracé 9107" d="M52.494,354.167a1.492,1.492,0,1,0,1.492,1.492A1.5,1.5,0,0,0,52.494,354.167Z" transform="translate(-43.391 -303.976)" fill="#797475" stroke="#797475" stroke-width="0.5"/>
        <path id="Tracé_9108" data-name="Tracé 9108" d="M52.494,434.165a1.492,1.492,0,1,0,1.492,1.492A1.5,1.5,0,0,0,52.494,434.165Z" transform="translate(-43.391 -372.036)" fill="#797475" stroke="#797475" stroke-width="0.5"/>
        <path id="Tracé_9109" data-name="Tracé 9109" d="M442.492,274.167a1.492,1.492,0,1,0,1.492,1.492A1.5,1.5,0,0,0,442.492,274.167Z" transform="translate(-375.19 -235.914)" fill="#797475" stroke="#797475" stroke-width="0.5"/>
        <path id="Tracé_9110" data-name="Tracé 9110" d="M442.492,354.167a1.492,1.492,0,1,0,1.492,1.492A1.5,1.5,0,0,0,442.492,354.167Z" transform="translate(-375.19 -303.976)" fill="#797475" stroke="#797475" stroke-width="0.5"/>
        <path id="Tracé_9111" data-name="Tracé 9111" d="M442.492,434.165a1.492,1.492,0,1,0,1.492,1.492A1.5,1.5,0,0,0,442.492,434.165Z" transform="translate(-375.19 -372.036)" fill="#797475" stroke="#797475" stroke-width="0.5"/>
      </g>
    </g>
  </g>
</svg>
