<svg xmlns="http://www.w3.org/2000/svg" width="41.954" height="41.954" viewBox="0 0 41.954 41.954"><defs><style>.a{fill:#797475;}</style></defs><g transform="translate(0 0)"><circle class="a" cx="2.049" cy="2.049" r="2.049" transform="translate(18.928 28.966)"/><path class="a" d="M20.977,0A20.977,20.977,0,1,0,41.954,20.977,20.965,20.965,0,0,0,20.977,0Zm0,38.676a17.7,17.7,0,1,1,17.7-17.7A17.69,17.69,0,0,1,20.977,38.676Z"/><path class="a" d="M182.555,128.5A6.563,6.563,0,0,0,176,135.055a1.639,1.639,0,1,0,3.278,0,3.278,3.278,0,1,1,3.278,3.278,1.639,1.639,0,0,0-1.639,1.639v4.1a1.639,1.639,0,1,0,3.278,0V141.4a6.556,6.556,0,0,0-1.639-12.9Z" transform="translate(-161.578 -117.971)"/></g></svg>