<svg xmlns="http://www.w3.org/2000/svg" width="51.491" height="61.383" viewBox="0 0 51.491 61.383"><defs><style>.a{fill:#79bf3c;stroke:#79bf3c;stroke-width:0.5px;}</style></defs><g transform="translate(0.25 0.25)"><path class="a" d="M126.922,91.014h-.876a13.592,13.592,0,0,0-10.834-12.548l.174-1.665a1.931,1.931,0,0,0-1.921-2.132h-1.928a1.931,1.931,0,0,0-1.921,2.132l.174,1.665A13.591,13.591,0,0,0,98.957,91.013h-.876a1.407,1.407,0,0,0-1.405,1.405v1.863a1.407,1.407,0,0,0,1.405,1.405h28.841a1.407,1.407,0,0,0,1.405-1.405V92.418A1.406,1.406,0,0,0,126.922,91.014Zm-15.478-14.5a.122.122,0,0,1,.094-.041h1.928a.123.123,0,0,1,.094.041.12.12,0,0,1,.032.1l-.169,1.613c-.3-.02-.611-.032-.921-.032s-.616.012-.921.032l-.169-1.613A.124.124,0,0,1,111.444,76.515Zm15.078,17.366H98.481V92.819h3.8a.9.9,0,1,0,0-1.805h-1.519a11.759,11.759,0,0,1,23.472,0H106.485a.9.9,0,1,0,0,1.805h20.037Zm0,0" transform="translate(-85.061 -57.346)"/><path class="a" d="M48.692,0H5.951a2.3,2.3,0,0,0-2.3,2.3v1.63H2.81a2.811,2.811,0,0,0,0,5.621h.842v3.86H2.81a2.81,2.81,0,0,0,0,5.621h.842v3.86H2.81a2.81,2.81,0,0,0,0,5.621h.842v3.86H2.81a2.81,2.81,0,0,0,0,5.621h.842v3.86H2.81a2.81,2.81,0,0,0,0,5.621h.842v3.86H2.81a2.81,2.81,0,0,0,0,5.621h.842v1.63a2.3,2.3,0,0,0,2.3,2.3H48.692a2.3,2.3,0,0,0,2.3-2.3V2.3A2.3,2.3,0,0,0,48.692,0ZM3.652,7.745H2.81a1.005,1.005,0,0,1,0-2.011h.842Zm0,9.48H2.81a1.005,1.005,0,0,1,0-2.01h.842Zm0,9.481H2.81a1.005,1.005,0,0,1,0-2.011h.842Zm0,9.481H2.81a1.005,1.005,0,0,1,0-2.011h.842Zm0,9.48H2.81a1.005,1.005,0,1,1,0-2.01h.842Zm0,9.481H2.81a1.005,1.005,0,1,1,0-2.01h.842Zm45.534,3.435a.494.494,0,0,1-.493.494H5.951a.494.494,0,0,1-.493-.494V2.3a.494.494,0,0,1,.493-.493H48.692a.494.494,0,0,1,.493.493Zm0,0"/></g></svg>