<svg xmlns="http://www.w3.org/2000/svg" width="54.801" height="64.8" viewBox="0 0 54.801 64.8"><defs><style>.a{fill:#e82d67;stroke:#e82d67;stroke-width:0.8px;}</style></defs><g transform="translate(-4.6 0.4)"><path class="a" d="M44.993,34.033A5.022,5.022,0,0,0,44.928,33H45c0-1.626.916-3,2-3V28a3.909,3.909,0,0,0-3.4,2.362l-.053-.055a5.01,5.01,0,0,0-4.813-1.282,1,1,0,0,0-.711.711,5.01,5.01,0,0,0,1.281,4.813c.052.052.1.1.159.151A14.993,14.993,0,0,0,32.007,58H10.222l1.759-8.713a1.019,1.019,0,0,0,.01-.335L7.456,16.227c7.549.653,11.976,2.616,16.648,4.688,1.156.513,2.312,1.025,3.517,1.517l.756-1.852c-1.186-.484-2.323-.989-3.461-1.494-.74-.328-1.485-.658-2.245-.984L18.618,10H35v2.939L33.672,22.4c-1.1-.3-2.2-.652-3.331-1.063l-.684,1.88c1.265.46,2.495.849,3.735,1.179L31.784,35.861l1.98.278L35.5,23.8a0,0,0,0,1,0,0l.844-6.02.649-4.624a.929.929,0,0,0,.01-.139V9a1,1,0,0,0-1-1H17.618L13.894.553A1,1,0,0,0,13,0H5V2h7.382l3,6H6A1,1,0,0,0,5,9v4.009a.893.893,0,0,0,.01.137L9.987,49.058,8.02,58.8a.2.2,0,0,0,0,.024c0,.008,0,.016,0,.024s0,.026-.005.039,0,.008,0,.011,0,.028,0,.043v.008A.227.227,0,0,0,8,59v3a2,2,0,0,0,2,2H32a2,2,0,0,0,2-2V60.171A15,15,0,1,0,44.993,34.033ZM7,10h9.382l3.485,6.97A44.7,44.7,0,0,0,7.174,14.2L7,12.94ZM39.859,30.86A2.958,2.958,0,0,1,43,34a2.959,2.959,0,0,1-3.136-3.136ZM10,62V60H32v2Zm34,0A13,13,0,1,1,57,49,13.015,13.015,0,0,1,44,62Z"/><path class="a" d="M51.069,40.577A10.99,10.99,0,1,0,55,49,11.007,11.007,0,0,0,51.069,40.577ZM52.944,48h-6.8l4.369-5.206A8.967,8.967,0,0,1,52.944,48ZM45,46.252v-6.2a9.014,9.014,0,0,1,3.981,1.452Zm-2-6.2v6.2l-3.981-4.745A9.024,9.024,0,0,1,43,40.056Zm-5.514,2.738L41.855,48h-6.8A8.979,8.979,0,0,1,37.486,42.794ZM35.056,50h6.8l-4.369,5.206A8.967,8.967,0,0,1,35.056,50ZM43,51.748v6.2a9.014,9.014,0,0,1-3.981-1.452Zm2,6.2v-6.2l3.981,4.745A9.024,9.024,0,0,1,45,57.944Zm5.514-2.738L46.145,50h6.8A8.979,8.979,0,0,1,50.514,55.206Z"/><path class="a" d="M12,27a3,3,0,1,0,3-3A3,3,0,0,0,12,27Zm4,0a1,1,0,1,1-1-1A1,1,0,0,1,16,27Z"/><path class="a" d="M19,40a3,3,0,1,0,3-3A3,3,0,0,0,19,40Zm4,0a1,1,0,1,1-1-1A1,1,0,0,1,23,40Z"/></g></svg>