<svg xmlns="http://www.w3.org/2000/svg" width="14.955" height="31.304" viewBox="0 0 14.955 31.304"><defs><style>.a{fill:#888787;stroke:#888787;stroke-width:0.5px;}</style></defs><g transform="translate(-136.053 0.25)"><g transform="translate(136.312 4.621)"><g transform="translate(0)"><path class="a" d="M149.578,88.095c-2.233-4-3.512-7-3.512-8.214V77.313a.513.513,0,0,0-.513-.513h-4.107a.513.513,0,0,0-.513.513V79.88c0,1.217-1.278,4.21-3.512,8.214a8.728,8.728,0,0,0-1.109,4.246v8.589a2.054,2.054,0,0,0,2.054,2.054h10.268a2.054,2.054,0,0,0,2.054-2.054V92.341A8.728,8.728,0,0,0,149.578,88.095Zm.082,12.835a1.027,1.027,0,0,1-1.027,1.027H138.366a1.027,1.027,0,0,1-1.027-1.027V92.341a7.7,7.7,0,0,1,.981-3.732c1.658-3,3.64-6.921,3.64-8.728V77.827h3.08V79.88c0,1.807,1.982,5.73,3.64,8.728a7.7,7.7,0,0,1,.981,3.732Z" transform="translate(-136.312 -76.8)"/></g></g><g transform="translate(139.906)"><g transform="translate(0)"><path class="a" d="M201.692,0h-4.107a1.54,1.54,0,0,0-1.54,1.54v3.08a1.027,1.027,0,0,0,1.027,1.027h5.134a1.027,1.027,0,0,0,1.027-1.027V1.54A1.54,1.54,0,0,0,201.692,0Zm.513,4.621h-5.134V1.54a.513.513,0,0,1,.513-.513h4.107a.513.513,0,0,1,.513.513Z" transform="translate(-196.045)"/></g></g><g transform="translate(139.906 2.567)"><path class="a" d="M202.72,42.667h-6.161a.513.513,0,0,0,0,1.027h6.161a.513.513,0,0,0,0-1.027Z" transform="translate(-196.046 -42.667)"/></g><g transform="translate(139.392 15.915)"><path class="a" d="M192.646,264.533h-2.054a3.08,3.08,0,0,0-3.08,3.08v6.161a.513.513,0,0,0,.513.513h7.188a.513.513,0,0,0,.513-.513v-6.2A3.08,3.08,0,0,0,192.646,264.533Zm-4.107,8.728v-5.647a2.054,2.054,0,0,1,2.054-2.054h2.054a2.054,2.054,0,0,1,2.054,2.028v5.673Z" transform="translate(-187.512 -264.533)"/></g><g transform="translate(136.348 19.525)"><g transform="translate(0)"><path class="a" d="M140.467,325.578a4.934,4.934,0,0,1-2.752-.95.513.513,0,0,0-.621.816,5.965,5.965,0,0,0,3.373,1.16.513.513,0,0,0,0-1.027Z" transform="translate(-136.909 -324.537)"/></g></g><g transform="translate(146.6 18.451)"><g transform="translate(0)"><path class="a" d="M311.22,307.842a5.955,5.955,0,0,0-3.373-1.16.514.514,0,1,0-.041,1.027,4.929,4.929,0,0,1,2.767.95.521.521,0,1,0,.647-.816Z" transform="translate(-307.313 -306.681)"/></g></g><g transform="translate(141.446 20.023)"><g transform="translate(0)"><path class="a" d="M225.24,332.8h-3.08a.513.513,0,0,0,0,1.027h3.08a.513.513,0,0,0,0-1.027Z" transform="translate(-221.646 -332.8)"/></g></g><g transform="translate(141.446 22.076)"><g transform="translate(0)"><path class="a" d="M225.24,366.933h-3.08a.513.513,0,1,0,0,1.027h3.08a.513.513,0,1,0,0-1.027Z" transform="translate(-221.646 -366.933)"/></g></g></g></svg>