<svg xmlns="http://www.w3.org/2000/svg" width="25.131" height="28.141" viewBox="0 0 25.131 28.141"><defs><style>.a{fill:#888787;stroke:#888787;stroke-width:0.5px;}</style></defs><path class="a" d="M.5,9.628A4.543,4.543,0,0,1,3.262,5.349,3.662,3.662,0,0,1,6.394,2.3a2.481,2.481,0,0,1,.09-.474,2.547,2.547,0,0,1,2.11-1.8,2.515,2.515,0,0,1,1.747.437A2.717,2.717,0,0,1,11.842,0a2.747,2.747,0,0,1,2.712,2.333c.049.01.1.024.144.035.045-.109.092-.217.145-.321A3.167,3.167,0,0,1,17.931.036a2.372,2.372,0,0,1,1.744,1.406,2.567,2.567,0,0,1,1.95-.142A2.506,2.506,0,0,1,23.088,2.72,4.543,4.543,0,0,1,23.1,5.968a3.072,3.072,0,0,1,1.155,1.565,4.893,4.893,0,0,1-.355,3.719c-.067.135-.141.27-.221.4a3.085,3.085,0,0,1,1.24,1.609,4.269,4.269,0,0,1-.446,3.479,5.2,5.2,0,0,1-1.157,1.381,2.709,2.709,0,0,1-.338,2A3.3,3.3,0,0,1,20.5,21.728c-1.578,2.963-3.535,4.235-6.548,5.512l-.034.015a2.6,2.6,0,0,1-1.384.385,3.047,3.047,0,0,1-.828-.119l-.013,0-.005,0a2.829,2.829,0,0,1-.629-.264,1.936,1.936,0,0,1-.963-2.371c.91-2.671.836-4.677-.22-5.961C8.045,16.7,3.8,17.243,3.76,17.251l-.494.067-.049-.5a3.909,3.909,0,0,1,.754-2.663q.078-.091.165-.174a4.328,4.328,0,0,1-.755-.243A4.623,4.623,0,0,1,.5,9.628ZM19.772,21.042l.135-.264.3,0h.012a2.328,2.328,0,0,0,1.935-1.146,1.686,1.686,0,0,0,.165-1.5l-.146-.35.306-.223a4.22,4.22,0,0,0,1.166-1.3,3.315,3.315,0,0,0,.37-2.691,2.1,2.1,0,0,0-1.21-1.3l-.569-.235.366-.494a4.784,4.784,0,0,0,.441-.718,3.989,3.989,0,0,0,.308-2.979A2.067,2.067,0,0,0,22.3,6.609l-.411-.2.175-.421.021-.046a3.693,3.693,0,0,0,.126-2.84,1.59,1.59,0,0,0-.9-.9,1.827,1.827,0,0,0-1.616.327l-.554.374-.177-.645A1.582,1.582,0,0,0,17.777.985,2.268,2.268,0,0,0,15.7,2.48c-.04.08-.078.162-.112.245.011.006.02.014.031.021a3.324,3.324,0,0,1,.286.19c.055.04.107.084.159.127.035.029.069.059.1.09a3.383,3.383,0,0,1,.512.577l.032.048a3.414,3.414,0,0,1,.229.392c.017.033.034.066.05.1.029.065.056.129.081.2s.05.139.072.21.036.118.051.178a3.2,3.2,0,0,1,.063.315c.006.039.011.077.016.117a3.342,3.342,0,0,1,.026.4c0,.088,0,.176-.011.265a3.865,3.865,0,0,1,2.832,5.4,2.968,2.968,0,0,1-.856,4.686c0,.257,0,.507-.01.752,0,.08-.009.158-.013.237-.008.163-.018.326-.031.485-.008.091-.018.18-.027.269-.015.144-.031.286-.051.426-.012.091-.027.182-.041.272q-.032.2-.071.4-.026.133-.055.265c-.029.131-.061.261-.094.39-.021.083-.042.166-.065.248-.038.135-.079.268-.122.4-.023.073-.045.146-.07.218-.054.159-.114.316-.175.473-.017.043-.032.087-.049.129q-.12.3-.258.589c-.026.055-.055.11-.082.165-.068.139-.136.278-.21.416-.039.074-.082.148-.123.222-.066.119-.132.237-.2.355-.047.08-.1.16-.146.24-.069.112-.139.224-.211.336q-.08.124-.163.248-.112.166-.229.333c-.058.083-.116.165-.176.248-.082.113-.167.228-.253.342-.061.081-.12.162-.183.244-.093.121-.191.244-.288.367-.059.075-.117.15-.178.226l-.016.02A9.4,9.4,0,0,0,19.772,21.042ZM5.883,13.025,6.011,13l.465.108.051,1.06-.479.026a1.8,1.8,0,0,0-1.344.584,2.566,2.566,0,0,0-.527,1.466c1.321-.086,4.679-.073,6.437,2.059,1.285,1.558,1.416,3.874.39,6.884a1,1,0,0,0,.539,1.233c.021.013.045.021.067.032a30.227,30.227,0,0,0,1.841-6.19c0-.012,0-.023.005-.034a18.805,18.805,0,0,0,.284-3.933c-.672-1.146-2.648-1.192-2.668-1.193a.48.48,0,0,1,.007-.96h.006a5.475,5.475,0,0,1,2.533.712,12.341,12.341,0,0,0-.626-2.541.476.476,0,0,1-.07-.109.469.469,0,0,1-.042-.189,10.427,10.427,0,0,0-1.19-2.2,6.963,6.963,0,0,0-3.813.241.473.473,0,0,1-.192.04.48.48,0,0,1-.193-.92,7.485,7.485,0,0,1,3.3-.456A7.635,7.635,0,0,0,8.919,7.25a2.571,2.571,0,0,0-2.052.293.475.475,0,0,1-.243.066.48.48,0,0,1-.244-.893,4.089,4.089,0,0,1,2.24-.532A2.692,2.692,0,0,0,8.209,5.3a.48.48,0,0,1,.763-.582A3.388,3.388,0,0,1,9.63,6.552,10.4,10.4,0,0,1,13.4,10.883c.068.14.134.291.2.442A2.748,2.748,0,0,0,14.678,8.76a.48.48,0,0,1,.949-.15,3.653,3.653,0,0,1-1.678,3.632,14.194,14.194,0,0,1,.712,3.785.474.474,0,0,1,.008.138,19.274,19.274,0,0,1-.165,3.449,2.406,2.406,0,0,0,.905-.858.48.48,0,0,1,.849.45,3.418,3.418,0,0,1-1.929,1.522,30.868,30.868,0,0,1-1.773,5.95,1.646,1.646,0,0,0,.858-.241h0c.052-.033.095-.065.137-.1A1.275,1.275,0,0,0,13.7,26.2l.008-.007.2-.229c3.007-3.46,4.512-5.992,4.392-10.225l-.01-.35.33-.116a2.007,2.007,0,0,0,.605-3.445l-.315-.258.2-.353a2.907,2.907,0,0,0-2.4-4.364l-.583-.024.136-.568a2.455,2.455,0,0,0,.07-.574,2.424,2.424,0,0,0-.042-.432c-.006-.036-.016-.07-.024-.106a2.473,2.473,0,0,0-.1-.322c-.011-.029-.022-.057-.034-.086a2.461,2.461,0,0,0-.183-.356s0-.009-.008-.013a2.509,2.509,0,0,0-.579-.629c-.031-.024-.064-.045-.1-.068a2.481,2.481,0,0,0-.239-.147c-.052-.028-.1-.055-.158-.079a2.415,2.415,0,0,0-.815-.214L13.626,3.2V2.717a1.776,1.776,0,0,0-2.974-1.291l-.337.3-.323-.319A1.552,1.552,0,0,0,8.707.973a1.573,1.573,0,0,0-1.3,1.119,1.479,1.479,0,0,0-.052.6l.05.535h-.54a2.693,2.693,0,0,0-2.678,2.5l-.022.315-.3.1a3.585,3.585,0,0,0-2.4,3.464,3.661,3.661,0,0,0,2.293,3.248A3.334,3.334,0,0,0,5.883,13.025Zm0,0" transform="translate(-0.249 0.251)"/></svg>