<svg xmlns="http://www.w3.org/2000/svg" width="50.5" height="47.493" viewBox="0 0 50.5 47.493"><defs><style>.a{fill:#797475;stroke:#797475;stroke-width:0.5px;}</style></defs><g transform="translate(0.25 -67.816)"><g transform="translate(0 68.066)"><path class="a" d="M46.44,102.143c-2.621-1.058-5.466-1.988-5.466-1.988a.937.937,0,0,0-.256-.718L38.972,97.6V94.522c.185-.152.367-.308.543-.474a11.005,11.005,0,0,0,3.467-8v-2.46a10.839,10.839,0,0,0,1-4.558V69a.938.938,0,0,0-.938-.938H29.01a8.969,8.969,0,0,0-8.958,8.958V79.03a10.839,10.839,0,0,0,1,4.558V85.7a11.458,11.458,0,0,0,4.01,8.745V97.6l-1.747,1.835a.937.937,0,0,0-.256.718l-5.769,2.1a4.916,4.916,0,0,0-1.159.607l-.906-.453A7.162,7.162,0,0,0,18.82,99.5a.937.937,0,0,0,0-.839c-.676-1.352-.758-3.83-.824-5.821-.022-.663-.043-1.289-.082-1.847A8.157,8.157,0,0,0,9.961,83.1a8.156,8.156,0,0,0-7.953,7.889c-.04.558-.06,1.184-.082,1.847-.066,1.991-.148,4.469-.824,5.821a.937.937,0,0,0,0,.839,7.161,7.161,0,0,0,3.6,2.9l-2.516,1.258A3.925,3.925,0,0,0,0,107.193v6.928a.938.938,0,1,0,1.875,0v-6.928a2.059,2.059,0,0,1,1.144-1.852l3.134-1.567,1.09,1.036a3.944,3.944,0,0,0,5.436,0l1.09-1.036,1.022.511a4.938,4.938,0,0,0-.754,2.618v7.217a.938.938,0,1,0,1.875,0V106.9a3.082,3.082,0,0,1,2.023-2.888l6.083-2.212,2.532,3.8a1.933,1.933,0,0,0,1.423.855q.1.01.193.01a1.933,1.933,0,0,0,1.37-.568l1.545-1.545v9.767a.938.938,0,1,0,1.875,0v-9.767L34.5,105.9a1.932,1.932,0,0,0,1.37.568q.1,0,.193-.01a1.933,1.933,0,0,0,1.423-.855l2.532-3.8,6.083,2.212a3.082,3.082,0,0,1,2.023,2.888v7.217a.938.938,0,1,0,1.875,0V106.9A5.531,5.531,0,0,0,46.44,102.143Zm-40.424-1.23a6.741,6.741,0,0,1-3.009-1.932,10.336,10.336,0,0,0,.534-2.245A6.992,6.992,0,0,0,6.016,99.79Zm5.372,2.538a2.069,2.069,0,0,1-2.852,0l-.872-.829a1.94,1.94,0,0,0,.228-.916v-1a6.973,6.973,0,0,0,4.14,0v1a1.94,1.94,0,0,0,.228.916Zm-1.426-4.3a5.084,5.084,0,0,1-5.078-5.078.932.932,0,0,0-1.092-.924c0-.081.005-.161.008-.241.021-.645.041-1.254.078-1.776a6.962,6.962,0,0,1,1.9-4.372,5.826,5.826,0,0,1,8.374,0,6.962,6.962,0,0,1,1.9,4.372c.037.522.057,1.131.079,1.776l.006.167A8.426,8.426,0,0,0,11.5,89.686a11.769,11.769,0,0,0-3.567-.565.938.938,0,0,0-.649.286L5.589,91.162a.938.938,0,0,0,1.35,1.3L8.347,91c1.212.059,5.113.513,6.63,3.853A5.066,5.066,0,0,1,9.961,99.147Zm3.945,1.77V99.8a6.936,6.936,0,0,0,2.476-3.057,10.323,10.323,0,0,0,.534,2.24A6.773,6.773,0,0,1,13.906,100.917ZM22.93,85.7V83.378a.938.938,0,0,0-.093-.408,8.994,8.994,0,0,1-.909-3.941V77.024a7.091,7.091,0,0,1,7.083-7.083h13.1V79.03A8.995,8.995,0,0,1,41.2,82.97a.938.938,0,0,0-.093.408v2.67a9,9,0,0,1-2.874,6.632,9.335,9.335,0,0,1-.72.609L37.5,93.3a9.016,9.016,0,0,1-6.085,1.815A9.288,9.288,0,0,1,22.93,85.7Zm5.28,18.868a.059.059,0,0,1-.052.019.06.06,0,0,1-.048-.029l-2.916-4.374.938-.986,4.424,3.024Zm3.809-3.619L26.94,97.482v-1.75a10.558,10.558,0,0,0,4.35,1.256q.371.024.738.024A10.861,10.861,0,0,0,37.1,95.77v1.713Zm3.909,3.609a.239.239,0,0,1-.1.01l-2.346-2.346L37.9,99.2l.939.986Z" transform="translate(0 -68.066)"/></g><g transform="translate(4.01 108.407)"><path class="a" d="M33.015,390.728a.938.938,0,0,0-.938.938v4.776a.938.938,0,1,0,1.875,0v-4.776A.938.938,0,0,0,33.015,390.728Z" transform="translate(-32.077 -390.728)"/></g><g transform="translate(24.062 76.585)"><path class="a" d="M208.1,138.987c-3.546-3.546-10.967-2.868-13.992-2.412a1.925,1.925,0,0,0-1.645,1.918v2.16a.938.938,0,1,0,1.875,0v-2.16a.062.062,0,0,1,.049-.063,29.621,29.621,0,0,1,6.092-.3c2.924.195,5.042.929,6.295,2.182a.938.938,0,0,0,1.326-1.326Z" transform="translate(-192.46 -136.203)"/></g><g transform="translate(20.052 109.173)"><path class="a" d="M161.322,396.853a.938.938,0,0,0-.938.938v4.01a.938.938,0,1,0,1.875,0v-4.01A.938.938,0,0,0,161.322,396.853Z" transform="translate(-160.384 -396.853)"/></g><g transform="translate(42.109 109.173)"><path class="a" d="M337.744,396.853a.938.938,0,0,0-.938.938v4.01a.938.938,0,1,0,1.875,0v-4.01A.938.938,0,0,0,337.744,396.853Z" transform="translate(-336.806 -396.853)"/></g></g></svg>