<svg xmlns="http://www.w3.org/2000/svg" width="65.221" height="62.873" viewBox="0 0 65.221 62.873"><defs><style>.a{fill:#fff;}.b,.e{fill:#cd435f;}.b{stroke:#cd435f;stroke-linejoin:round;}.b,.c{stroke-linecap:round;}.c{fill:none;stroke:#000;stroke-width:2px;}.d,.e{stroke:none;}</style></defs><g transform="translate(0 0)"><g transform="translate(0 0)"><g transform="translate(48.562 32.776)"><path d="M386.486,270.613a.949.949,0,0,0-.949.949,1.205,1.205,0,1,1-2.41,0,.949.949,0,1,0-1.9,0,3.1,3.1,0,1,0,6.207,0A.949.949,0,0,0,386.486,270.613Z" transform="translate(-381.228 -270.613)"/></g><g transform="translate(0 0)"><g transform="translate(0 14.386)"><path d="M62.729,38.433l-2.671-.856a1.118,1.118,0,0,1-.721-.731,17.224,17.224,0,0,0-2.525-5,18.329,18.329,0,0,0-1.687-1.99,23.543,23.543,0,0,0,.581-5.376c-.04-2.418-.523-3.837-1.477-4.337-.514-.27-2.078-1.088-10.545,2.787a3.08,3.08,0,0,0-.561.334c-.571-.153-1.154-.3-1.741-.423l-.215-.044c.686-1.5-1.444,2.464-.965,1.74.262.051.521.1.777.16q.511.111,1.017.237c-.011.041-.021.082-.03.124a11.32,11.32,0,0,0,.089,5.774,6.872,6.872,0,0,0,2.517,3.538,7.985,7.985,0,0,0,4.672,1.483,6.263,6.263,0,0,0,3.028-.7A5.78,5.78,0,0,0,54.5,31.989q.41.479.777.981a15.326,15.326,0,0,1,2.248,4.445,3.019,3.019,0,0,0,1.953,1.969l2.671.856a1.681,1.681,0,0,1,1.172,1.606v4.43a1.681,1.681,0,0,1-1.172,1.606l-4.3,1.379a2.933,2.933,0,0,0-1.641,1.333,18.918,18.918,0,0,1-7.9,7.188,1.487,1.487,0,0,0-.78,1.048l-1.379,7.3a.427.427,0,0,1-.419.347H41.243a.427.427,0,0,1-.419-.347L40.06,62.1a1.491,1.491,0,0,0-1.7-1.2,39.677,39.677,0,0,1-5.913.44,37.841,37.841,0,0,1-4.35-.246A1.5,1.5,0,0,0,26.456,62.3l-.726,3.833a.427.427,0,0,1-.419.347H20.83a.427.427,0,0,1-.419-.35l-1.327-6.894a1.49,1.49,0,0,0-.766-1.036A16.763,16.763,0,0,1,9.06,42.575a18.247,18.247,0,0,1,2.3-9.277,16.56,16.56,0,0,1,6.169-6.023.949.949,0,0,0-.951-1.643,18.067,18.067,0,0,0-9.168,13.5h0L7.132,39.1a4.726,4.726,0,0,0-.348-1.894A3.888,3.888,0,0,0,3.9,34.692a2.623,2.623,0,0,0-2.47,1.1,2.5,2.5,0,0,0-.475,2.727c.478.985,1.707,1.682,3.746,2.12q-.084.126-.185.253A4.657,4.657,0,0,1,.972,42.769,1,1,0,0,0,0,43.76v0a.994.994,0,0,0,.952.991q.1,0,.213,0A6.165,6.165,0,0,0,6,42.076,5.414,5.414,0,0,0,6.7,40.956q.269.03.516.053h0c-.032.514-.05,1.036-.05,1.567a19.56,19.56,0,0,0,2.8,10.475,19.19,19.19,0,0,0,7.293,6.73l1.29,6.7a2.327,2.327,0,0,0,2.284,1.892h4.482A2.327,2.327,0,0,0,27.6,66.482l.656-3.466a40,40,0,0,0,4.2.217,41.7,41.7,0,0,0,5.816-.405l.692,3.654a2.327,2.327,0,0,0,2.284,1.892h4.482a2.327,2.327,0,0,0,2.284-1.893l1.342-7.107a20.694,20.694,0,0,0,8.5-7.831,1.038,1.038,0,0,1,.577-.475l4.3-1.379a3.574,3.574,0,0,0,2.491-3.414v-4.43A3.573,3.573,0,0,0,62.729,38.433ZM53.664,27.152c-.365,3.124-1.345,5.8-2.33,6.354a5.808,5.808,0,0,1-5.643-.663c-1.942-1.421-2.589-3.976-1.87-7.389h0a1.145,1.145,0,0,1,.651-.793c4.752-2.175,7.492-2.887,8.509-2.887a.993.993,0,0,1,.344.046C53.632,22.147,54.033,24,53.664,27.152Zm-51,10.538c-.1-.2.134-.559.281-.753a.757.757,0,0,1,.61-.371.713.713,0,0,1,.1.007,2.069,2.069,0,0,1,1.372,1.344,2.882,2.882,0,0,1,.2.9C3.907,38.54,2.887,38.147,2.665,37.69Z" transform="translate(0 -19.888)"/></g><g transform="translate(15.512)"><g class="a"><path class="d" d="M 13.05630207061768 25.11260223388672 C 9.835942268371582 25.11260223388672 6.808341979980469 23.8585319519043 4.531211853027344 21.58139228820801 C 2.254072189331055 19.30426216125488 1.000002026557922 16.27666282653809 1.000002026557922 13.05630207061768 C 1.000002026557922 9.835942268371582 2.254072189331055 6.808341979980469 4.531211853027344 4.531211853027344 C 6.808341979980469 2.254072189331055 9.835942268371582 1.000002026557922 13.05630207061768 1.000002026557922 C 16.27666282653809 1.000002026557922 19.30426216125488 2.254072189331055 21.58139228820801 4.531211853027344 C 23.8585319519043 6.808341979980469 25.11260223388672 9.835942268371582 25.11260223388672 13.05630207061768 C 25.11260223388672 16.27666282653809 23.8585319519043 19.30426216125488 21.58139228820801 21.58139228820801 C 19.30426216125488 23.8585319519043 16.27666282653809 25.11260223388672 13.05630207061768 25.11260223388672 Z"/><path class="e" d="M 13.05630207061768 2.000001907348633 C 10.10305213928223 2.000001907348633 7.326572418212891 3.150062561035156 5.238311767578125 5.238311767578125 C 3.150062561035156 7.326572418212891 2.000001907348633 10.10305213928223 2.000001907348633 13.05630207061768 C 2.000001907348633 16.00955200195312 3.150062561035156 18.78603172302246 5.238311767578125 20.87429237365723 C 7.326572418212891 22.9625415802002 10.10305213928223 24.11260223388672 13.05630207061768 24.11260223388672 C 16.00955200195312 24.11260223388672 18.78603172302246 22.9625415802002 20.87429237365723 20.87429237365723 C 22.9625415802002 18.78603172302246 24.11260223388672 16.00955200195312 24.11260223388672 13.05630207061768 C 24.11260223388672 10.10305213928223 22.9625415802002 7.326572418212891 20.87429237365723 5.238311767578125 C 18.78603172302246 3.150062561035156 16.00955200195312 2.000001907348633 13.05630207061768 2.000001907348633 M 13.05630207061768 1.9073486328125e-06 C 20.2671012878418 1.9073486328125e-06 26.11260223388672 5.845502853393555 26.11260223388672 13.05630207061768 C 26.11260223388672 20.2671012878418 20.2671012878418 26.11260223388672 13.05630207061768 26.11260223388672 C 5.845502853393555 26.11260223388672 1.9073486328125e-06 20.2671012878418 1.9073486328125e-06 13.05630207061768 C 1.9073486328125e-06 5.845502853393555 5.845502853393555 1.9073486328125e-06 13.05630207061768 1.9073486328125e-06 Z"/></g><path class="b" d="M7.643,12.913H4.223a4.125,4.125,0,0,0,.837,2.672,2.828,2.828,0,0,0,2.271.935,6.1,6.1,0,0,0,1.942-.3l.178,1.425a8.784,8.784,0,0,1-2.137.267,4.627,4.627,0,0,1-3.478-1.3,5.254,5.254,0,0,1-1.323-3.692H.928v-1.1H2.513v-1.22H.928V9.475H2.513A5.2,5.2,0,0,1,3.871,5.864,4.621,4.621,0,0,1,7.3,4.586a9.707,9.707,0,0,1,2.146.276L9.273,6.3a6.347,6.347,0,0,0-1.95-.312,2.823,2.823,0,0,0-2.249.9,4.008,4.008,0,0,0-.842,2.578H7.643v1.113H4.223v1.22h3.42Z" transform="translate(6.864 1.573)"/></g><path class="c" d="M0,.1A24.7,24.7,0,0,1,9.412-2.214a18.637,18.637,0,0,1,3.4.352A25.507,25.507,0,0,1,18.8.1" transform="translate(19.083 27.581)"/></g></g></g></svg>