<svg xmlns="http://www.w3.org/2000/svg" width="26.11" height="32.288" viewBox="0 0 26.11 32.288"><g transform="translate(-46.155)"><g transform="translate(46.155)"><path d="M68.577,3.868H63.551a4.369,4.369,0,0,0-8.681,0H49.844a3.693,3.693,0,0,0-3.689,3.689v.189a3.692,3.692,0,0,0,2.331,3.427V28.6a3.693,3.693,0,0,0,3.689,3.689H66.246A3.693,3.693,0,0,0,69.934,28.6V11.173a3.693,3.693,0,0,0,2.331-3.427V7.557A3.693,3.693,0,0,0,68.577,3.868ZM59.21,1.749a2.626,2.626,0,0,1,2.573,2.119H56.638A2.626,2.626,0,0,1,59.21,1.749ZM68.185,28.6a1.942,1.942,0,0,1-1.939,1.94H52.175a1.942,1.942,0,0,1-1.939-1.94V11.436H68.185ZM70.516,7.747a1.942,1.942,0,0,1-1.939,1.94H49.844A1.942,1.942,0,0,1,47.9,7.747V7.557a1.942,1.942,0,0,1,1.939-1.94H68.577a1.942,1.942,0,0,1,1.939,1.94v.189Z" transform="translate(-46.155)"/><path d="M158.95,261.169a.875.875,0,0,0,.875-.875v-9.849a.875.875,0,1,0-1.749,0v9.849A.875.875,0,0,0,158.95,261.169Z" transform="translate(-150.584 -232.868)"/><path d="M229.02,261.169a.875.875,0,0,0,.875-.875v-9.849a.875.875,0,1,0-1.749,0v9.849A.875.875,0,0,0,229.02,261.169Z" transform="translate(-215.965 -232.868)"/><path d="M299.089,261.169a.875.875,0,0,0,.875-.875v-9.849a.875.875,0,1,0-1.749,0v9.849A.875.875,0,0,0,299.089,261.169Z" transform="translate(-281.344 -232.868)"/></g></g></svg>