<svg xmlns="http://www.w3.org/2000/svg" width="40.098" height="43.742" viewBox="0 0 40.098 43.742"><defs><style>.a{fill:#797475;}</style></defs><g transform="translate(-20.331 23)"><g transform="translate(20.331 -23)"><g transform="translate(0)"><path class="a" d="M49.4,60.559a1.823,1.823,0,0,0-1.459,3.34,16.4,16.4,0,1,1-13.121,0,1.823,1.823,0,0,0-1.46-3.34,20.051,20.051,0,1,0,16.041,0Z" transform="translate(-21.331 -55.246)"/><path class="a" d="M236.479,20.049a1.823,1.823,0,0,0,1.823-1.823V1.823a1.823,1.823,0,1,0-3.645,0v16.4A1.823,1.823,0,0,0,236.479,20.049Z" transform="translate(-216.431)"/></g></g></g></svg>