<svg xmlns="http://www.w3.org/2000/svg" width="26.583" height="26.313" viewBox="0 0 26.583 26.313"><defs><style>.a{fill:#888787;stroke:#888787;stroke-width:0.3px;}</style></defs><g transform="translate(0.162 -0.345)"><path class="a" d="M25.126,7.52c-.935-2.3-2.678-5.3-5.679-6.49-2.2-.876-4.752-.666-7.581.623-3.537,1.613-4.694,4.5-3.257,8.139A3.316,3.316,0,0,1,5.063,14.33c-1.921-.252-3.4.179-4.266,1.247-.666.818-1.256,2.381-.284,5.177l.018.045a10.61,10.61,0,0,0,6.079,5.154,12.389,12.389,0,0,0,2.838.477l.148.013c.312.028.851.064,1.551.064a19.285,19.285,0,0,0,7.226-1.353,12.076,12.076,0,0,0,7.5-8.71A14.541,14.541,0,0,0,25.126,7.52Zm-.238,8.686a11.109,11.109,0,0,1-6.9,8.012,18.671,18.671,0,0,1-8.3,1.216l-.148-.013a11.46,11.46,0,0,1-2.609-.43,9.782,9.782,0,0,1-5.468-4.6c-.629-1.826-.586-3.308.122-4.178.637-.781,1.794-1.085,3.347-.882A4.329,4.329,0,0,0,9.551,9.419c-1.244-3.148-.324-5.45,2.735-6.845,2.569-1.17,4.852-1.374,6.786-.6,2.669,1.062,4.254,3.811,5.115,5.93A13.528,13.528,0,0,1,24.888,16.206Zm0,0" transform="translate(0 0)"/><path class="a" d="M283.67,89.93a2.533,2.533,0,1,0-2.533-2.533A2.536,2.536,0,0,0,283.67,89.93Zm0-4.053a1.52,1.52,0,1,1-1.52,1.52A1.522,1.522,0,0,1,283.67,85.877Zm0,0" transform="translate(-266.718 -80.038)"/><path class="a" d="M61.715,50.164a13.045,13.045,0,0,0-.956-4.334c-2.2-5.416-5.812-7.063-10.716-4.831-.982.448-3.969,1.81-2.353,5.9A4.683,4.683,0,0,1,42.7,53.291c-1.335-.178-2.337.087-2.8.738-.49.689-.485,1.884.013,3.361l.029.07a8.718,8.718,0,0,0,4.908,4.077,10.609,10.609,0,0,0,2.384.388l.143.013c.43.039.891.058,1.371.058,9.57,0,12.043-5.955,12.661-8.515a11.843,11.843,0,0,0,.311-3.223A.446.446,0,0,0,61.715,50.164ZM50.464,41.922a8.616,8.616,0,0,1,3.513-.882c2.484,0,4.45,1.74,5.844,5.171a12.235,12.235,0,0,1,.809,3.117c-2.269-.64-6.288,1.35-6.959,1.7-3.03.964-4.434-.418-4.819-.907a5.7,5.7,0,0,0-.22-3.594C47.521,43.711,48.935,42.619,50.464,41.922Zm-2.4,9.932a5.822,5.822,0,0,0,.4-.694,4.715,4.715,0,0,0,3.269,1.208,7.454,7.454,0,0,0,2.291-.391.518.518,0,0,0,.078-.032c2-1.04,5.454-2.3,6.615-1.483a10.825,10.825,0,0,1-.291,2.781c-.005.02-.011.043-.016.063-1.1-.311-3.779-.622-8.2,1.5a4.707,4.707,0,0,1-3.875.422A3.844,3.844,0,0,1,46.484,53.4,5.68,5.68,0,0,0,48.062,51.854Zm-.6,9.074-.144-.013a9.89,9.89,0,0,1-2.156-.341,7.807,7.807,0,0,1-4.308-3.545c-.434-1.307-.355-2.1-.135-2.414s.932-.44,1.84-.32a5.774,5.774,0,0,0,2.909-.369c.03.165.062.351.092.552a6.44,6.44,0,0,0,2.7,4.355c1.043.719,1.747,1.367,1.779,2.106-.417.027-.846.044-1.3.044S47.866,60.963,47.467,60.928Zm3.59-.081c-.082-1.373-1.437-2.311-2.217-2.849a5.4,5.4,0,0,1-1.959-2.486,4.26,4.26,0,0,0,1.053.641,5.644,5.644,0,0,0,4.718-.437c4.149-1.99,6.574-1.679,7.461-1.438C59.269,56.6,57.018,60.119,51.056,60.847Zm0,0" transform="translate(-37.506 -37.507)"/></g></svg>